<svg width="182" height="48" fill="none" xmlns="http://www.w3.org/2000/svg"><rect x="1" y="1" width="180" height="46" rx="7" stroke="#FF0004" stroke-width="2"/><path d="M24.96 30V18.8h7.024v1.952h-5.072v2.272h4.024v1.952h-4.024v3.072h5.072V30H24.96zm8.008 0l2.928-4.016-2.904-3.992H35.4l1.696 2.328 1.704-2.328h2.408l-2.904 3.992L41.232 30h-2.408l-1.728-2.368L35.376 30h-2.408zm11.46 4h-1.952V22h1.952v1.016a3.15 3.15 0 01.96-.88c.384-.23.832-.344 1.344-.344a4.109 4.109 0 012.976 1.24c.389.384.69.83.904 1.336.218.507.328 1.05.328 1.632a4.13 4.13 0 01-.328 1.64 4.149 4.149 0 01-.904 1.352c-.384.384-.83.685-1.336.904a4.093 4.093 0 01-1.64.328c-.512 0-.96-.112-1.344-.336a3.245 3.245 0 01-.96-.888v5zm2.28-10.328c-.406 0-.768.107-1.088.32a2.16 2.16 0 00-.752.84A2.513 2.513 0 0044.596 26c0 .427.09.819.272 1.176.181.352.432.635.752.848.32.208.682.312 1.088.312.41 0 .786-.104 1.128-.312A2.324 2.324 0 0048.956 26a2.324 2.324 0 00-1.12-2.008 2.06 2.06 0 00-1.128-.32zM52.069 30V18h1.952v12H52.07zm7.27.208c-.736 0-1.408-.19-2.016-.568a4.258 4.258 0 01-1.448-1.52A4.274 4.274 0 0155.34 26c0-.587.104-1.133.312-1.64.208-.512.494-.96.856-1.344.368-.39.795-.693 1.28-.912a3.734 3.734 0 011.552-.328c.736 0 1.406.19 2.008.568a4.151 4.151 0 011.448 1.528c.363.64.544 1.35.544 2.128 0 .581-.104 1.125-.312 1.632a4.333 4.333 0 01-.864 1.344 3.984 3.984 0 01-1.272.904c-.48.219-.997.328-1.552.328zm0-1.952c.39 0 .739-.104 1.048-.312.31-.208.552-.483.728-.824a2.35 2.35 0 00.272-1.12c0-.416-.093-.795-.28-1.136a2.14 2.14 0 00-.744-.824 1.796 1.796 0 00-1.024-.312c-.384 0-.73.104-1.04.312a2.232 2.232 0 00-.736.832A2.396 2.396 0 0057.291 26c0 .421.094.803.28 1.144.187.341.435.613.744.816.315.197.656.296 1.024.296zM64.593 30l-.008-8h1.952l.008.712a2.94 2.94 0 01.976-.68c.379-.17.787-.256 1.224-.256.293 0 .587.043.88.128l-.768 1.968a1.665 1.665 0 00-1.472.112c-.256.15-.461.355-.616.616a1.66 1.66 0 00-.224.856V30h-1.952zm9.075.208c-.737 0-1.409-.19-2.017-.568a4.24 4.24 0 01-1.983-3.648 4.315 4.315 0 011.167-2.976c.369-.39.795-.693 1.28-.912a3.734 3.734 0 011.553-.328 3.68 3.68 0 011.711.4c.523.261.966.621 1.328 1.08a4.44 4.44 0 01.905 3.408h-5.849c.075.299.198.568.368.808.171.235.387.424.648.568.262.139.558.21.889.216.34.005.65-.075.927-.24.283-.17.518-.4.704-.688l1.992.464c-.325.71-.81 1.29-1.456 1.744a3.714 3.714 0 01-2.167.672zM71.699 25.2h3.936a2.03 2.03 0 00-.376-.864 2.109 2.109 0 00-.695-.624 1.81 1.81 0 00-.896-.232c-.32 0-.617.077-.889.232-.272.15-.504.355-.695.616a2.26 2.26 0 00-.385.872zM83.184 30V18.8h1.952V30h-1.952zm11.448-5.056V30H92.68v-4.544c0-.315-.078-.6-.232-.856a1.687 1.687 0 00-.624-.616 1.623 1.623 0 00-.856-.232 1.705 1.705 0 00-1.48.848 1.66 1.66 0 00-.224.856V30h-1.952l-.008-8h1.952l.008.712a2.94 2.94 0 01.976-.68 2.95 2.95 0 011.224-.256c.581 0 1.112.144 1.592.432.48.283.861.664 1.144 1.144.288.475.432 1.005.432 1.592zm8.922 0V30h-1.952v-4.544c0-.315-.078-.6-.232-.856a1.691 1.691 0 00-.624-.616 1.625 1.625 0 00-.856-.232 1.705 1.705 0 00-1.48.848 1.66 1.66 0 00-.224.856V30h-1.952l-.008-8h1.952l.008.712a2.94 2.94 0 01.976-.68 2.95 2.95 0 011.224-.256c.581 0 1.112.144 1.592.432.48.283.861.664 1.144 1.144.288.475.432 1.005.432 1.592zm4.957 5.264c-.736 0-1.408-.19-2.016-.568a4.267 4.267 0 01-1.448-1.52 4.278 4.278 0 01-.536-2.12c0-.587.104-1.133.312-1.64.208-.512.494-.96.856-1.344a4.02 4.02 0 011.28-.912 3.737 3.737 0 011.552-.328c.736 0 1.406.19 2.008.568a4.15 4.15 0 011.448 1.528c.363.64.544 1.35.544 2.128 0 .581-.104 1.125-.312 1.632a4.333 4.333 0 01-.864 1.344 3.968 3.968 0 01-1.272.904c-.48.219-.997.328-1.552.328zm0-1.952c.39 0 .739-.104 1.048-.312.31-.208.552-.483.728-.824.182-.341.272-.715.272-1.12 0-.416-.093-.795-.28-1.136a2.133 2.133 0 00-.744-.824 1.794 1.794 0 00-1.024-.312c-.384 0-.73.104-1.04.312a2.234 2.234 0 00-.736.832 2.401 2.401 0 00-.272 1.128c0 .421.094.803.28 1.144.187.341.435.613.744.816.315.197.656.296 1.024.296zM118.334 30h-2.52l-2.912-8.008h2.08l2.096 5.76 2.088-5.76h2.08L118.334 30zm9.814-8h1.952v8h-1.952l-.088-.992a2.613 2.613 0 01-.872.872c-.357.219-.781.328-1.272.328a4.145 4.145 0 01-1.664-.336 4.382 4.382 0 01-1.368-.928 4.45 4.45 0 01-.92-1.368 4.241 4.241 0 01-.328-1.664c0-.57.104-1.107.312-1.608a4.164 4.164 0 012.2-2.208 4.009 4.009 0 011.6-.32c.528 0 1 .117 1.416.352a3.63 3.63 0 011.072.896L128.148 22zm-2.28 6.328a1.98 1.98 0 001.104-.312 2.16 2.16 0 00.752-.84c.182-.357.272-.75.272-1.176 0-.432-.09-.824-.272-1.176a2.12 2.12 0 00-.76-.848 1.966 1.966 0 00-1.096-.312c-.41 0-.786.107-1.128.32a2.35 2.35 0 00-.808.84 2.367 2.367 0 00-.296 1.176 2.35 2.35 0 001.112 2.016c.342.208.715.312 1.12.312zm10.114-4.376h-1.552V30h-1.952v-6.048h-1.184V22h1.184v-2.512h1.952V22h1.552v1.952zM137.304 22h1.952v8h-1.952v-8zm.992-1.032c-.288 0-.531-.093-.728-.28a.96.96 0 01-.296-.72.95.95 0 01.296-.712.993.993 0 01.72-.288c.282 0 .52.096.712.288.197.192.296.43.296.712a.977.977 0 01-.288.72.983.983 0 01-.712.28zm6.215 9.24c-.736 0-1.408-.19-2.016-.568a4.267 4.267 0 01-1.448-1.52 4.278 4.278 0 01-.536-2.12c0-.587.104-1.133.312-1.64.208-.512.494-.96.856-1.344a4.02 4.02 0 011.28-.912 3.737 3.737 0 011.552-.328c.736 0 1.406.19 2.008.568a4.15 4.15 0 011.448 1.528c.363.64.544 1.35.544 2.128 0 .581-.104 1.125-.312 1.632a4.333 4.333 0 01-.864 1.344 3.968 3.968 0 01-1.272.904c-.48.219-.997.328-1.552.328zm0-1.952c.39 0 .739-.104 1.048-.312.31-.208.552-.483.728-.824.182-.341.272-.715.272-1.12 0-.416-.093-.795-.28-1.136a2.133 2.133 0 00-.744-.824 1.794 1.794 0 00-1.024-.312c-.384 0-.73.104-1.04.312a2.234 2.234 0 00-.736.832 2.401 2.401 0 00-.272 1.128c0 .421.094.803.28 1.144.187.341.435.613.744.816.315.197.656.296 1.024.296zm12.574-3.312V30h-1.952v-4.544c0-.315-.077-.6-.232-.856a1.691 1.691 0 00-.624-.616 1.622 1.622 0 00-.856-.232 1.708 1.708 0 00-1.48.848 1.67 1.67 0 00-.224.856V30h-1.952l-.008-8h1.952l.008.712a2.94 2.94 0 01.976-.68c.379-.17.787-.256 1.224-.256.581 0 1.112.144 1.592.432.48.283.861.664 1.144 1.144.288.475.432 1.005.432 1.592z" fill="#000"/></svg>