<svg width="120" height="36" fill="none" xmlns="http://www.w3.org/2000/svg"><path d="M105.531 26.8V10h3.576l6.552 10.812V10h3.312v16.8h-3.576l-6.552-10.812V26.8h-3.312zm-6.554 0V10h3.312v16.8h-3.312zM86.795 10h3.768l6.096 16.8h-3.516l-1.008-2.784h-6.912L84.215 26.8H80.7L86.795 10zm-.36 10.704h4.488l-2.256-6.156-2.232 6.156zM67.023 26.8V10h6.672a4.54 4.54 0 012.472.696 4.955 4.955 0 011.764 1.848c.44.768.66 1.62.66 2.556 0 .736-.128 1.42-.384 2.052a5.06 5.06 0 01-2.7 2.748l3.996 6.9h-3.816l-3.828-6.6h-1.524v6.6h-3.312zm3.312-9.912H73.3c.36 0 .688-.088.984-.264.304-.184.544-.428.72-.732.184-.312.276-.656.276-1.032a1.91 1.91 0 00-.276-1.008 2.008 2.008 0 00-.72-.744 1.827 1.827 0 00-.984-.276h-2.964v4.056zM53.266 26.8V10h6.252c.904 0 1.724.188 2.46.564a4.216 4.216 0 011.74 1.584c.432.688.648 1.496.648 2.424 0 .376-.052.764-.156 1.164-.096.4-.264.768-.504 1.104a2.188 2.188 0 01-.96.768c.528.128.952.368 1.272.72.32.344.564.744.732 1.2.168.448.28.908.336 1.38.056.472.084.9.084 1.284 0 .864-.224 1.644-.672 2.34a4.826 4.826 0 01-1.812 1.656c-.752.408-1.584.612-2.496.612h-6.924zm3.312-2.82h3.264c.44 0 .84-.104 1.2-.312a2.45 2.45 0 00.864-.876c.216-.376.324-.8.324-1.272 0-.4-.108-.78-.324-1.14a2.585 2.585 0 00-.864-.876 2.169 2.169 0 00-1.2-.348h-3.264v4.824zm0-7.584h2.556c.528 0 .98-.172 1.356-.516.376-.344.564-.788.564-1.332 0-.56-.188-.984-.564-1.272-.376-.296-.828-.444-1.356-.444h-2.556v3.564zM34.562 26.8L30.266 10h3.42l2.736 10.74L39.158 10h3.036l2.736 10.74L47.666 10h3.42l-4.272 16.8H43.07l-2.388-9.336-2.376 9.336h-3.744zm-17.249 0V10h10.632v3.312h-7.32v2.832h5.712v3.312h-5.712v4.032h7.32V26.8H17.312zM1 26.8V10h3.576l6.552 10.812V10h3.312v16.8h-3.576L4.312 15.988V26.8H1z" fill="#000"/></svg>