<svg width="730" height="403" fill="none" xmlns="http://www.w3.org/2000/svg"><path fill-rule="evenodd" clip-rule="evenodd" d="M665.855 658.4a8.374 8.374 0 01-6.103 6.003 8.414 8.414 0 01-4.126-.043l-6.376-1.694a8.634 8.634 0 01-4.236 2.486 8.614 8.614 0 01-4.587-.147l-5.669-1.762a8.857 8.857 0 01-4.475 2.668l.006-.001a8.83 8.83 0 01-5.055-.255l-5.021-1.781a9.128 9.128 0 01-4.657 2.811l.001.005a9.064 9.064 0 01-5.521-.385l-4.386-1.741a9.332 9.332 0 01-4.814 2.905 9.31 9.31 0 01-5.994-.519l-3.791-1.659a9.649 9.649 0 01-4.938 2.973 9.701 9.701 0 01-6.464-.665l-3.22-1.536a9.97 9.97 0 01-11.967 2.184l-2.681-1.38a10.31 10.31 0 01-5.104 3.013c-2.51.614-5.137.262-7.404-.989l-2.151-1.187a10.512 10.512 0 01-5.159 2.991l.005-.001a10.519 10.519 0 01-7.882-1.155l-1.651-.969a10.827 10.827 0 01-5.184 2.95 10.838 10.838 0 01-8.353-1.332l-1.169-.727a11.194 11.194 0 01-5.188 2.89 11.279 11.279 0 01-8.831-1.515l-.707-.463a11.498 11.498 0 01-5.172 2.814 11.57 11.57 0 01-9.303-1.704l-.27-.185a11.868 11.868 0 01-5.141 2.732l-.001-.005c-3.32.816-6.817.162-9.622-1.785a12.214 12.214 0 01-5.085 2.631 12.187 12.187 0 01-9.67-1.686 12.383 12.383 0 01-5.037 2.538 12.513 12.513 0 01-9.729-1.593 12.77 12.77 0 01-4.977 2.445l.006.004c-3.39.829-6.871.279-9.791-1.503a13.102 13.102 0 01-4.92 2.361l-.001-.005a13.328 13.328 0 01-9.843-1.421 13.604 13.604 0 01-4.861 2.283l.001.005a13.7 13.7 0 01-9.907-1.347 13.83 13.83 0 01-4.799 2.204 13.983 13.983 0 01-9.962-1.267 14.199 14.199 0 01-4.741 2.135l.001.005c-3.426.838-6.98.383-10.03-1.201a14.57 14.57 0 01-4.674 2.063c-3.45.845-7.01.419-10.09-1.124a15.02 15.02 0 01-4.617 2.003l.005-.001a15.022 15.022 0 01-14.059-3.792L4.825 358.451a15.053 15.053 0 01-4.642-10.606 15 15 0 014.195-10.779L322.74 4.79a15.06 15.06 0 017.278-4.207 15.012 15.012 0 0114.058 3.786l331.888 319.526a15.08 15.08 0 013.712 5.666 14.626 14.626 0 012.3 4.102 14.346 14.346 0 012.294 4.105 13.915 13.915 0 012.311 4.111 13.584 13.584 0 012.303 4.093 13.266 13.266 0 012.295 4.078 12.863 12.863 0 012.335 4.14 12.48 12.48 0 012.293 4.056 12.18 12.18 0 012.33 4.117 11.842 11.842 0 012.309 4.08 11.59 11.59 0 012.322 4.087 11.296 11.296 0 012.327 4.081 10.889 10.889 0 012.34 4.095 10.665 10.665 0 012.326 4.06 10.27 10.27 0 012.357 4.091 9.982 9.982 0 012.351 4.083 9.79 9.79 0 012.348 4.056 9.5 9.5 0 012.366 4.064 9.215 9.215 0 012.376 4.059 8.956 8.956 0 012.381 4.048 8.71 8.71 0 012.391 4.038 8.42 8.42 0 012.407 8.296L665.855 658.4zm60.769-244.976a7.187 7.187 0 01.942 5.772l-62.883 238.889a7.15 7.15 0 01-8.748 5.098l-5.852-1.554a8.571 8.571 0 001.113-2.304l75.044-243.346a8.585 8.585 0 00.384-2.555zm-77.783 247.875a7.46 7.46 0 001.2-2.337l75.052-243.336a7.415 7.415 0 00.16-3.757 7.207 7.207 0 00-1.14-.79 8.944 8.944 0 01-.364 1.377L637.248 658.22l11.593 3.079zm-.936 1.01a7.41 7.41 0 01-3.18 1.666 7.41 7.41 0 01-3.946-.122l-5.231-1.627a8.937 8.937 0 00.988-1.983l.307-.873 11.062 2.939zm-12.231-3.249l-.274.779a7.717 7.717 0 01-1.062 2.011l-11.344-3.528.938-2.381 11.742 3.119zm-12.912-3.43l-.92 2.334-11.306-3.516.805-1.852 11.421 3.034zm-10.931-4.161l11.379 3.023 96.455-244.82-2.47-.656-105.364 242.453zm-1.67.813l-.784 1.805-10.974-3.413.637-1.346 11.121 2.954zm-10.592-4.07l11.081 2.944 105.362-242.455-2.641-.701-113.802 240.212zm-1.717.8l-.615 1.3-10.674-3.32.441-.862 10.848 2.882zm-10.283-3.987l10.812 2.872 113.802-240.213-2.803-.744-121.811 238.085zm-1.759.788l-.417.815-10.395-3.233.217-.396 10.595 2.814zm-9.994-3.909l10.559 2.804 121.811-238.085-2.945-.783-129.425 236.064zm-1.803.776l-.192.349-8.841-2.749 9.033 2.4zm-9.725-3.838l10.326 2.742L704.036 405.52l-3.078-.817-136.67 234.139zm-11.313-3.005l10.105 2.684 136.673-234.138-3.208-.852-143.57 232.306zm-11.111-2.951l9.895 2.628 143.563-232.308-3.308-.879-150.15 230.559zm-4.514-1.199l3.281.872 150.147-230.56-3.416-.907-156.269 228.649 6.257 1.946zm-33.962-9.02l2.601.691-3.627-1.287-2.195-.682 3.221 1.278zm-.453 1.131l-4.629-1.23-.468.606 8.342 3.65 1-1.341-4.245-1.685zm15.227 4.045l-5.241-1.393 4.858 1.929.383-.536zm1.876.498l-.625-.166-.474.664 8.892 3.529.695-1.016-8.488-3.011zm17.058 4.532l-2.658-.707 5.239 1.859.189-.291-2.77-.861zm-40.056-10.641l-3.447-.916 3.104 1.359.343-.443zm-8.238-3.439l4.605 1.223-4.237-1.682-.368.459zm-2.479-.658l1.2.318.471-.585-3.077-1.222-5.37-1.67-.118.142 6.894 3.017zm-.43 1.135l.721.316-1.336 1.663-7.837-3.737.331-.399 8.121 2.157zm-9.41-2.499l-.168.203-1.175-.56 1.343.357zm-7.255-3.177l8.106 2.153.135-.163-7.821-3.422-.994 1.159.574.273zm-.438 1.133l-1.093-.29-1.558 1.817 7.546 3.886 1.831-2.205-6.726-3.208zm-2.396-.636l-8.66-2.301-.082.093 7.377 3.799 1.365-1.591zm-7.766-3.312l4.251 1.129-3.692-1.761-.559.632zm-6.445-1.712l5.136 1.364.731-.826-7.363-3.512-1.365 1.501 2.861 1.473zm-.449 1.129l-3.848-1.022-1.456 1.601 7.116 3.926 2.169-2.454-3.981-2.051zm-5.164-1.372l-7.09-1.883 5.862 3.234 1.228-1.351zm-7.494-3.238l7.652 2.032-6.448-3.32-1.204 1.288zm-3.956-1.051l2.632.699 1.412-1.511-6.395-3.293-.633-.197-1.665 1.738 4.649 2.564zm-.454 1.127l1.773.978-2.503 2.68-6.724-3.948 1.291-1.347 6.163 1.637zm-5.211-2.631l.851.226-.698-.385-.153.159zm-2.291.638l-1.026 1.072-4.179-2.454 5.205 1.382zm-9.081-3.659l10.034 2.665.392-.409-13.127-7.243-3.101-.964a7.26 7.26 0 001.593 3.48l4.209 2.471zm-.484 1.118l-.38-.101a8.323 8.323 0 01-4.121-2.542l-15.099-8.868-.431-.133a8.579 8.579 0 01-3.669-2.274l-15.526-9.118-.458-.163a8.804 8.804 0 01-3.212-1.993l-15.93-9.355-.498-.198a9.11 9.11 0 01-2.757-1.713l-16.4-9.632-.491-.215a9.39 9.39 0 01-2.28-1.413l-16.756-9.84-.603-.288a9.697 9.697 0 01-1.843-1.148l-17.232-10.12-.568-.293a9.994 9.994 0 01-1.327-.821l-15.67-9.202 139.976 87.023 2.954-3.083-7.679-4.51zm-5.923-4.881a8.414 8.414 0 01-.66-2.582l-7.942-2.469 8.602 5.051zm-.539-4.943l-8.072-4.454 8.438 2.993-.244.927a8.551 8.551 0 00-.122.534zm.766-2.979l-5.566-2.866 5.722 2.271-.156.595zm1.279-.119l-.18.685 1.249.643 6.694 2.374-7.763-3.702zm-.628-2.353l-18.069-7.907-.97-.463L468.08 335.7a7.35 7.35 0 015.316-5.013l.001.005a7.38 7.38 0 013.941.123l162.758 50.611-4.469 4.665-151.262-40.178a8.395 8.395 0 00-4.121-.044 8.355 8.355 0 00-6.103 6.007l-61.587 233.977zm222.111-198.758l-150.604-40.001a7.106 7.106 0 00-3.527-.043l-.006-.004a7.183 7.183 0 00-5.226 5.142l-61.629 234.153 17.642 7.721 3.661 1.453 199.689-208.421zm2.303-.648l4.424-4.618 3.893 1.211-4.203 4.5-4.114-1.093zm3.171 2.102l-4.133-1.098-199.813 208.548 7.431 2.949 196.515-210.399zm2.267-.658l4.16-4.453 3.845 1.196-3.943 4.336-4.062-1.079zm3.14 2.094l-4.082-1.084L444.83 599.426l7.558 3 193.158-212.441zm2.238-.665l3.9-4.29 3.792 1.179-3.688 4.174-4.004-1.063zm3.102 2.083l-4.025-1.069-193.273 212.568 7.688 3.052 189.61-214.551zm2.214-.671l3.648-4.127 3.739 1.162-3.441 4.013-3.946-1.048zm3.066 2.074l-3.967-1.054-189.726 214.677 4.992 1.981 2.915 1.034 185.786-216.638zm2.178-.681l3.401-3.966 3.682 1.145-3.2 3.852-3.883-1.031zm3.026 2.063l-3.906-1.037-185.858 216.728 8.189 2.905L661.37 394.188zm2.146-.689l3.162-3.807 3.612 1.124-2.966 3.694-3.808-1.011zm2.974 2.049l-3.831-1.018L481.01 613.215l8.343 2.959L666.49 395.548zm2.118-.697l2.929-3.648 3.549 1.104-2.739 3.537-3.739-.993zm2.93 2.038l-3.763-1-177.214 220.713 8.503 3.017 172.474-222.73zm2.079-.708l2.703-3.49 3.482 1.082-2.52 3.382-3.665-.974zm2.882 2.025l-3.691-.98-172.546 222.818 2.507.889 6.333 1.97 167.397-224.697zm2.038-.718l2.485-3.335 3.401 1.058-2.307 3.228-3.579-.951zm2.823 2.009l-3.606-.957-167.429 224.743 9.078 2.823L681.36 399.497zm2.004-.727l2.274-3.182 3.317 1.032-2.103 3.077-3.488-.927zm2.76 1.993l-3.517-.934-161.986 226.656 9.263 2.88 156.24-228.602zm1.966-.737l2.072-3.031 3.222 1.002-1.907 2.928-3.387-.899zm4.623 1.228l1.877-2.882 3.12.97-1.72 2.782-3.277-.87zm4.5 1.195l1.691-2.736 3.026.941-1.54 2.639-3.177-.844zm4.381 1.164l1.513-2.592 2.901.902-1.37 2.498-3.044-.808zm4.25 1.128l1.344-2.452 2.774.863-1.209 2.362-2.909-.773zm4.103 1.09l1.185-2.315 2.637.82-1.056 2.23-2.766-.735zm3.954 1.051l1.034-2.184 2.481.772-.913 2.103-2.602-.691zm3.785 1.005l.893-2.055 1.623.504c.147.046.292.096.434.15a7.923 7.923 0 01-.502 1.996l-.02.05-2.428-.645zm3.605.958c.228-.596.39-1.202.488-1.809a7.44 7.44 0 011.08.78c.111.49.174.992.187 1.5a7.654 7.654 0 00-.27-.077l-1.485-.394zm1.683 1.725c-.07.496-.189.991-.361 1.481l-86.534 245.858-11.698-3.107 96.462-244.818 1.624.432c.172.045.341.097.507.154zm1.275-.787c.004-.115.005-.23.004-.344.102.16.197.323.287.49a9.875 9.875 0 00-.291-.146zM412.645 590.248l-.22.834c-.073.28-.129.56-.168.84l3.585 1.978 10.719 3.333-12.784-6.583-1.132-.402zm217.351 74.491a7.653 7.653 0 003.47-1.898l-10.915-3.395-.676 1.716a9.071 9.071 0 01-.888 1.705l4.645 1.648a7.598 7.598 0 004.364.224zm-9.238-4.024l.641-1.627-11.346-3.528-1.291 2.971 11.047 3.918c.383-.53.704-1.112.949-1.734zm-13.137-2.589l1.272-2.927-11.012-3.424-1.174 2.479 10.914 3.872zm-12.06-4.278l1.154-2.436-10.71-3.33-1.029 2.011 10.585 3.755zm-11.733-4.162l1.007-1.968-10.429-3.243-.858 1.565 10.28 3.646zm-11.433-4.055l.834-1.522-10.169-3.163-.664 1.138 9.999 3.547zm-11.155-3.957l.639-1.095-9.927-3.087-.449.728 9.737 3.454zm-10.899-3.866l.424-.685-9.697-3.015-.217.333 9.49 3.367zm-80.92-27.246l-1.391-.433-2.846-1.245 1.646.584 2.633 1.045-.042.049zm-9.193-1.593l7.343 2.283.914.401-.966 1.126-7.498-3.576.207-.234zm17.796 5.534l.273.085-.021.025-.252-.11zm-19.801-6.158l.737.23-.076.086-.661-.316zm-.647-1.466l-5.927-1.844.488-.537 5.439 2.381zm-9.366.142l1.268-1.395-8.089-2.516-.251.269 7.072 3.642zm-5.703-4.829l-.202-.063.022-.023.18.086zm-2.485.613l.086-.093-.671-.208.585.301zm1.002-1.074l-7.795-2.424-.138-.071 1.009-1.053 7.083 3.378-.159.17zm-19.92-4.928l9.738 3.028-1.469 1.534-8.269-4.562zm-10.984-4.683l-11.631-3.617-3.83-2.249a7.509 7.509 0 01-1.666-2.976l3.078 1.091 14.049 7.751zm-18.478-9.322c.134.719.358 1.416.663 2.073l-7.902-4.64 7.239 2.567zm-5.952-5.534l5.838 3.221a8.73 8.73 0 01.118-.857l-5.956-2.364zm-12.298-9.379l19.021 9.072 74.513-241.614a8.672 8.672 0 016.182-5.828 8.56 8.56 0 014.586.142l163.338 50.793 3.912-4.084-174.32-61.831a7.605 7.605 0 00-4.363-.224l.005-.001a7.622 7.622 0 00-5.405 4.895l-87.213 247.788a7.836 7.836 0 00-.256.892zM646.2 376.811l-3.872 4.042 3.874 1.204 3.68-3.939-3.682-1.307zm4.924 1.747l-3.641 3.898 3.826 1.19 3.453-3.798-3.638-1.29zm4.873 1.729l-3.414 3.755 3.772 1.173 3.231-3.656-3.589-1.272zm4.823 1.71l-3.193 3.613 3.718 1.156 3.014-3.514-3.539-1.255zm4.761 1.689l-2.978 3.472 3.661 1.138 2.803-3.374-3.486-1.236zm4.701 1.667l-2.767 3.332 3.589 1.116 2.598-3.235-3.42-1.213zm4.633 1.644l-2.564 3.192 3.526 1.097 2.399-3.097-3.361-1.192zm4.561 1.618l-2.365 3.054 3.457 1.075 2.206-2.96-3.298-1.169zm4.486 1.591l-2.173 2.918 3.375 1.05 2.02-2.826-3.222-1.142zm4.406 1.562l-1.989 2.783 3.291 1.024 1.84-2.692-3.142-1.115zm4.319 1.532l-1.811 2.65 3.195.993 1.667-2.56-3.051-1.083zm4.229 1.5l-1.64 2.518 3.091.961 1.502-2.431-2.953-1.048zm4.121 1.462l-1.476 2.388 2.995.932 1.345-2.304-2.864-1.016zm4.016 1.425l-1.319 2.261 2.868.892 1.195-2.18-2.744-.973zm3.9 1.383l-1.171 2.137 2.739.852 1.054-2.059-2.622-.93zm3.77 1.337l-1.032 2.016 2.602.808.887-1.872.032-.069-2.489-.883zm3.55 1.468l-.815 1.719 2.422.753a8.232 8.232 0 00.424-1.95 10.713 10.713 0 00-.367-.141l-1.581-.56-.083.179zm3.178 1.115a9.412 9.412 0 01-.415 1.717l1.517.471.127.041a7.964 7.964 0 00-.201-1.455 7.552 7.552 0 00-1.028-.774zm2.444 2.468v.263c.074.037.147.076.219.115a7.127 7.127 0 00-.219-.378zM392.704 581.134c.004-.349.033-.7.089-1.051l2.029.805 10.943 5.636-9.218-3.27-3.843-2.12zm226.264 82.298a7.882 7.882 0 01-8.483 1.74l-4.066-1.614c.307-.463.575-.956.801-1.478l1.06-2.439 10.688 3.791zm-11.829-4.196l-1.027 2.363a8.305 8.305 0 01-.846 1.501l-10.732-4.259 1.653-3.489 10.952 3.884zm-12.097-4.291l-1.634 3.449-10.539-4.182 1.552-3.034 10.621 3.767zm-11.769-4.174l-1.531 2.993-10.208-4.051 1.426-2.6 10.313 3.658zm-11.466-4.067l-1.404 2.56-9.904-3.931 1.277-2.187 10.031 3.558zm-11.187-3.968l-1.254 2.148-9.622-3.819 1.109-1.794 9.767 3.465zm-10.929-3.877l-1.084 1.755-9.357-3.714.923-1.417 9.518 3.376zm-10.693-3.793l-.897 1.378-9.116-3.618.721-1.056 9.292 3.296zM431.93 595.805l1.811.642-2.758-1.207-1.41-.559 2.357 1.124zm17.29 7.417l-5.96-2.115-.066.07 7.205 3.437.57-.627-1.749-.765zm-17.772-6.304l-9.185-3.258 9.704 4.997.981-1.024-1.5-.715zm-52.567-19.93l10.671 3.785-12.764-7.042-2.961-1.175a7.749 7.749 0 001.629 2.42l3.425 2.012zm-5.958-3.499c-.241-.489-.438-1-.588-1.525l-6.196-2.459 6.784 3.984zm-.925-3.779l-2.48-1.368 2.479 1.085a4.056 4.056 0 000 .156l.001.127zm.273-2.359l-14.888-7.101-3.658-1.884a7.9 7.9 0 01.537-3.421l99.376-252.234a7.931 7.931 0 015.485-4.791l-.005.001a7.82 7.82 0 014.793.334l185.381 73.574-3.432 3.581-174.837-62.015a8.825 8.825 0 00-5.056-.26 8.85 8.85 0 00-6.252 5.667L372.502 566.59a8.849 8.849 0 00-.231.761zm274.845-191.496l3.394-3.543 3.498 1.388-3.227 3.455-3.665-1.3zm4.907 1.741l3.191-3.417 3.456 1.372-3.027 3.329-3.62-1.284zm4.855 1.722l2.992-3.291 3.409 1.353-2.831 3.204-3.57-1.266zm4.804 1.704l2.797-3.166 3.363 1.335-2.64 3.079-3.52-1.248zm4.741 1.681l2.608-3.04 3.312 1.314-2.454 2.956-3.466-1.23zm4.681 1.661l2.423-2.917 3.249 1.29-2.274 2.832-3.398-1.205zm4.611 1.635l2.243-2.793 3.194 1.268-2.098 2.709-3.339-1.184zm4.54 1.61l2.068-2.671 3.134 1.244-1.928 2.589-3.274-1.162zm4.462 1.583l1.9-2.55 3.062 1.215-1.765 2.469-3.197-1.134zm4.381 1.554l1.737-2.43 2.986 1.185-1.607 2.35-3.116-1.105zm4.293 1.523l1.58-2.311 2.899 1.151-1.454 2.233-3.025-1.073zm4.202 1.49l1.429-2.193 2.805 1.113-1.309 2.118-2.925-1.038zm4.093 1.452l1.285-2.078 2.719 1.079-1.17 2.004-2.834-1.005zm3.987 1.414l1.147-1.965 2.603 1.034-1.038 1.893-2.712-.962zm3.868 1.372l1.016-1.853 2.458.975a8.76 8.76 0 01-.309.669l-.576 1.127-2.589-.918zm3.736 1.325l.502-.98c.131-.256.25-.515.358-.778l1.54.612a8 8 0 01.302.126 8.46 8.46 0 01-.339 1.859l-2.363-.839zm3.504 1.243a9.511 9.511 0 00.35-1.631c.347.23.671.484.972.76.113.463.186.938.218 1.417l-1.54-.546zm2.765 1.084l-.002-.19c.054.091.107.182.158.275l-.156-.085zM373.222 569.963c.008.148.02.296.037.443l3.977 2.194 6.5 2.58-7.96-4.099-2.554-1.118zm227.325 96.329a8.157 8.157 0 003.896-2.207l-10.432-4.14-1.447 3.053a9.805 9.805 0 01-.744 1.303l3.507 1.535a8.092 8.092 0 005.22.456zm-9.075-3.811l1.413-2.983-10.574-4.196-2.022 3.953 10.402 4.552a8.71 8.71 0 00.781-1.326zm-12.291-3.711l2.003-3.916-10.24-4.064-1.935 3.529 10.172 4.451zm-11.283-4.937l1.915-3.492-9.935-3.943-1.825 3.126 9.845 4.309zm-10.957-4.795l1.804-3.09-9.651-3.83-1.696 2.744 9.543 4.176zm-10.657-4.664l1.673-2.708-9.386-3.724-1.549 2.379 9.262 4.053zm-10.387-4.545l1.526-2.343-9.143-3.629-1.388 2.031 9.005 3.941zm-10.134-4.435l1.364-1.995-8.918-3.539-1.213 1.697 8.767 3.837zm-9.901-4.333l1.188-1.661-8.707-3.456-1.027 1.378 8.546 3.739zm-119.421-50.839l-1.192-.473-1.895-.976.596.261 2.491 1.188zm-28.107-11.155l-9.068-3.599-3-1.762a7.971 7.971 0 01-1.447-1.797l2.616 1.145 10.899 6.013zm-15.217-7.903c.124.322.266.637.425.943l-5.052-2.968 4.627 2.025zm-18.599-12.689l17.982 9.26a9.123 9.123 0 01.635-3.229l99.382-252.235a9.127 9.127 0 016.318-5.523 9.03 9.03 0 015.522.385l185.835 73.756 3.01-3.142-196.005-85.778a8.103 8.103 0 00-5.219-.45l.005-.001a8.13 8.13 0 00-5.57 4.694L334.869 542.893a8.201 8.201 0 00-.351 5.582zm319.87-180.21l-2.978 3.108 3.482 1.381 2.83-3.03-3.334-1.459zm4.507 1.973l-2.798 2.995 3.439 1.365 2.653-2.918-3.294-1.442zm4.463 1.953l-2.622 2.883 3.391 1.346 2.481-2.807-3.25-1.422zm4.419 1.934l-2.449 2.771 3.344 1.328 2.311-2.696-3.206-1.403zm4.365 1.91l-2.282 2.66 3.293 1.307 2.147-2.585-3.158-1.382zm4.312 1.887l-2.117 2.55 3.229 1.282 1.987-2.476-3.099-1.356zm4.252 1.861l-1.958 2.44 3.172 1.259 1.832-2.366-3.046-1.333zm4.19 1.833l-1.805 2.331 3.112 1.235 1.681-2.258-2.988-1.308zm4.121 1.804l-1.655 2.222 3.038 1.206 1.537-2.15-2.92-1.278zm4.05 1.773l-1.51 2.114 2.961 1.175 1.396-2.044-2.847-1.245zm3.973 1.738l-1.372 2.007 2.873 1.141 1.262-1.938-2.763-1.21zm3.891 1.703l-1.238 1.902 2.778 1.102 1.133-1.834-2.673-1.17zm3.794 1.66l-1.111 1.798 2.691 1.068 1.011-1.732-2.591-1.134zm3.699 1.619l-.99 1.695 2.573 1.021.222-.405c.226-.412.418-.836.576-1.269l-2.381-1.042zm2.863 2.9l-.146.266 2.255.896a8.73 8.73 0 00.268-1.764 9.653 9.653 0 00-.252-.115l-1.498-.656a10.71 10.71 0 01-.627 1.373zm3.535.072a9.892 9.892 0 01-.296 1.538l1.441.572a8.514 8.514 0 00-.23-1.368 8.142 8.142 0 00-.915-.742zm2.381 2.582l.001.047.001.057.023.012.023.013.038.022-.055-.098-.031-.053zm-127.325 267.31a8.44 8.44 0 01-4.053 2.315 8.49 8.49 0 01-5.659-.586l-2.967-1.415c.26-.372.496-.765.705-1.175l1.831-3.578 10.143 4.439zm-11.251-4.924l-1.796 3.51a8.884 8.884 0 01-.74 1.2l-10.066-4.801 2.398-4.374 10.204 4.465zm-11.315-4.951l-2.379 4.339-9.819-4.683 2.323-3.978 9.875 4.322zm-10.987-4.808l-2.302 3.943-9.497-4.529 2.227-3.603 9.572 4.189zm-10.686-4.677l-2.206 3.57-9.198-4.387 2.115-3.248 9.289 4.065zm-10.413-4.557l-2.093 3.214-8.926-4.257 1.988-2.909 9.031 3.952zm-10.16-4.446l-1.965 2.875-8.674-4.137 1.848-2.586 8.791 3.848zm-9.925-4.344l-1.824 2.553-8.441-4.026 1.696-2.277 8.569 3.75zm-9.705-4.247l-1.671 2.244-8.227-3.924 1.534-1.98 8.364 3.66zm-9.505-4.159l-1.508 1.947-8.023-3.827 1.362-1.696 8.169 3.576zM357.934 561.95l.753.33-1.687-.868-.32-.153 1.254.691zm-18.273-7.996l6.19 2.709-7.609-4.198-2.155-1.027c.293.353.617.684.97.987l2.604 1.529zm-5.521-3.242a14 14 0 01-.143-.271l-1.697-.81 1.84 1.081zm-1.03-2.962l-13.721-7.065-3.636-2.006a8.52 8.52 0 01-.281-7.832l123.712-261.128a8.45 8.45 0 015.648-4.606l-.001-.006a8.513 8.513 0 015.658.581l206.243 98.375-2.64 2.755-196.414-85.956a9.3 9.3 0 00-5.989-.52 9.341 9.341 0 00-6.39 5.385L333.756 542.413a9.387 9.387 0 00-.646 5.337zm322.167-180.413l2.61-2.724 3.188 1.521-2.48 2.655-3.318-1.452zm4.492 1.965l2.45-2.622 3.15 1.502-2.322 2.555-3.278-1.435zm4.446 1.946l2.294-2.522 3.108 1.482-2.169 2.455-3.233-1.415zm4.402 1.927l2.141-2.423 3.066 1.463-2.019 2.355-3.188-1.395zm4.347 1.902l1.991-2.322 3.021 1.441-1.873 2.255-3.139-1.374zm4.293 1.879l1.846-2.223 2.964 1.414-1.731 2.156-3.079-1.347zm4.232 1.852l1.705-2.123 2.914 1.389-1.593 2.058-3.026-1.324zm4.169 1.824l1.568-2.025 2.858 1.364-1.459 1.959-2.967-1.298zm4.1 1.794l1.435-1.926 2.792 1.332-1.331 1.862-2.896-1.268zm4.027 1.763l1.307-1.829 2.722 1.298-1.207 1.766-2.822-1.235zm3.948 1.727l1.184-1.732 2.642 1.26-1.088 1.671-2.738-1.199zm3.866 1.692l1.066-1.636 2.554 1.218-.974 1.576-2.646-1.158zm3.767 1.649l.934-1.511.019-.031 2.273 1.084a9.49 9.49 0 01-.669 1.577l-2.557-1.119zm3.66 1.602c.264-.502.483-1.016.659-1.539l1.468.701c.066.031.132.063.197.096a9.012 9.012 0 01-.205 1.669l-2.119-.927zm3.244 1.419c.116-.476.198-.959.245-1.445.31.226.601.472.873.734.112.432.191.868.237 1.304l-1.355-.593zm2.608 1.212v-.002l.002.003-.002-.001zm-143.77 274.402a8.768 8.768 0 004.173-2.376l-9.838-4.692-2.2 4.011c-.204.373-.43.732-.677 1.074l2.448 1.26a8.775 8.775 0 006.094.723zm-8.922-3.64l2.165-3.949-9.848-4.697-2.761 4.729 9.734 5.013c.262-.346.499-.712.71-1.096zm-11.517-4.469l2.742-4.698-9.524-4.542-2.695 4.36 9.477 4.88zm-10.55-5.433l2.674-4.328-9.224-4.4-2.611 4.01 9.161 4.718zm-10.243-5.275l2.591-3.979-8.951-4.269-2.514 3.679 8.874 4.569zm-9.958-5.128l2.492-3.647-8.698-4.148-2.403 3.362 8.609 4.433zm-9.697-4.993l2.381-3.332-8.463-4.036-2.28 3.062 8.362 4.306zm-9.451-4.867l2.258-3.031-8.248-3.934-2.148 2.774 8.138 4.191zm-9.23-4.753l2.125-2.743-8.044-3.837-2.006 2.499 7.925 4.081zm-9.022-4.646l1.981-2.469-7.856-3.747-1.856 2.235 7.731 3.981zM320.252 542.54l-.141-.067-.295-.174.436.241zm-23.136-14.144l16.892 9.32a9.704 9.704 0 01.383-7.382l123.707-261.128a9.651 9.651 0 016.451-5.266 9.657 9.657 0 016.459.666l206.604 98.539 2.318-2.42-216.147-111.308a8.76 8.76 0 00-6.094-.722l-.001-.005a8.777 8.777 0 00-5.723 4.528L296.09 518.793c-1.645 3.211-1.122 6.972 1.026 9.603zm363.94-167.091l-2.29 2.39 3.173 1.514 2.175-2.329-3.058-1.575zm4.174 2.15l-2.147 2.299 3.134 1.495 2.035-2.238-3.022-1.556zm4.135 2.129l-2.008 2.209 3.092 1.474 1.898-2.147-2.982-1.536zm4.096 2.109l-1.872 2.118 3.05 1.455 1.764-2.058-2.942-1.515zm4.047 2.084l-1.739 2.028 3.004 1.432 1.634-1.967-2.899-1.493zm4.001 2.061l-1.609 1.937 2.944 1.404 1.508-1.877-2.843-1.464zm3.945 2.032l-1.483 1.847 2.894 1.38 1.384-1.788-2.795-1.439zm3.89 2.002l-1.361 1.758 2.837 1.353 1.266-1.699-2.742-1.412zm3.828 1.972l-1.243 1.668 2.77 1.321 1.151-1.61-2.678-1.379zm3.763 1.937l-1.129 1.58 2.698 1.287 1.041-1.522-2.61-1.345zm3.692 1.902l-1.02 1.491 2.617 1.249.574-.88c.121-.186.235-.375.343-.566l-2.514-1.294zm3.185 2.528l-.482.739 2.473 1.179c.229-.484.416-.983.561-1.492l-2.144-1.104c-.127.229-.263.455-.408.678zm3.645.989c-.152.494-.34.978-.563 1.45l1.996.952a9.55 9.55 0 00.148-1.586 9.993 9.993 0 00-.144-.076l-1.437-.74zm2.75 1.568c-.036.457-.101.914-.198 1.368l1.275.608a9.31 9.31 0 00-.244-1.256 8.941 8.941 0 00-.833-.72zM560.658 666.289a9.106 9.106 0 01-4.27 2.414 9.047 9.047 0 01-6.537-.868l-1.94-1.071c.242-.325.468-.666.675-1.022l2.545-4.359 9.527 4.906zm-10.6-5.459l-2.512 4.304a9.727 9.727 0 01-.703 1.041l-9.409-5.191 3.12-5.048 9.504 4.894zm-10.578-5.447l-3.101 5.018-9.148-5.046 3.063-4.703 9.186 4.731zm-10.269-5.288l-3.043 4.673-8.845-4.88 2.991-4.375 8.897 4.582zm-9.982-5.141l-2.971 4.347-8.565-4.726 2.905-4.066 8.631 4.445zm-9.719-5.005l-2.885 4.037-8.308-4.584 2.809-3.77 8.384 4.317zm-9.473-4.878l-2.788 3.742-8.073-4.454 2.702-3.49 8.159 4.202zm-9.25-4.764l-2.681 3.462-7.851-4.332 2.587-3.221 7.945 4.091zm-9.043-4.656l-2.564 3.193-7.648-4.219 2.463-2.965 7.749 3.991zm-8.85-4.558l-2.44 2.937-7.456-4.114 2.332-2.718 7.564 3.895zm-8.674-4.467l-2.308 2.691-7.28-4.016 2.194-2.483 7.394 3.808zm-169.292-89.437a10.02 10.02 0 01.083-8.948l135.88-265.581a9.973 9.973 0 016.508-5.147 9.947 9.947 0 016.93.822l216.475 111.478 2.032-2.121L437.07 233.137a9.038 9.038 0 00-6.537-.868l-.005.001a9.076 9.076 0 00-5.798 4.451L276.692 506.742c-2.257 4.118-.987 9.246 2.788 11.869l1.56.916 13.888 7.662zM661.93 360.393l2.007-2.094 2.941 1.623-1.904 2.038-3.044-1.567zm4.16 2.142l1.878-2.012 2.907 1.604-1.779 1.956-3.006-1.548zm4.119 2.121l1.754-1.929 2.867 1.582-1.656 1.874-2.965-1.527zm4.08 2.101l1.631-1.846 2.83 1.561-1.536 1.791-2.925-1.506zm4.03 2.075l1.512-1.764 2.788 1.538-1.42 1.71-2.88-1.484zm3.983 2.051l1.396-1.681 2.734 1.508-1.306 1.628-2.824-1.455zm3.926 2.023l1.285-1.6 2.688 1.483-1.197 1.546-2.776-1.429zm3.87 1.992l1.175-1.517 2.637 1.455-1.091 1.464-2.721-1.402zm3.807 1.961l1.07-1.436 2.575 1.421-.988 1.383-2.657-1.368zm3.742 1.926l.968-1.354 2.425 1.338c-.209.417-.448.825-.718 1.22l-.088.129-2.587-1.333zm3.668 1.89l.002-.003c.293-.428.553-.869.78-1.32l2.036 1.124a9.942 9.942 0 01-.463 1.411l-2.355-1.212zm3.436 1.769a11.1 11.1 0 00.476-1.365l1.412.779.036.02.057.032a9.643 9.643 0 01-.103 1.501l-1.878-.967zm3.005 1.547c.079-.424.133-.853.161-1.284.272.216.531.447.775.691.11.396.194.798.252 1.205l-1.188-.612zM541.674 669.518a9.316 9.316 0 004.35-2.42l-9.224-5.089-2.874 4.652c-.211.342-.439.669-.682.981l1.449.851a9.343 9.343 0 006.981 1.025zm-8.768-3.497l2.839-4.594-9.173-5.06-3.466 5.322 9.089 5.337a9.76 9.76 0 00.711-1.005zm-10.845-4.946l3.448-5.295-8.868-4.893-3.416 4.998 8.836 5.19zm-9.883-5.804l3.398-4.971-8.589-4.738-3.353 4.691 8.544 5.018zm-9.592-5.634l3.334-4.664-8.33-4.596-3.278 4.401 8.274 4.859zm-9.322-5.474l3.258-4.375-8.093-4.465-3.194 4.125 8.029 4.715zm-9.078-5.332l3.174-4.098-7.871-4.342-3.1 3.861 7.797 4.579zm-8.851-5.197l3.08-3.836-7.667-4.229-2.998 3.61 7.585 4.455zm-8.642-5.076l2.977-3.584-7.473-4.123-2.89 3.369 7.386 4.338zm-8.45-4.962l2.868-3.344-7.297-4.026-2.774 3.139 7.203 4.231zm-8.267-4.855l2.752-3.114-7.132-3.935-2.653 2.918 7.033 4.131zm-8.098-4.756l2.63-2.893-6.978-3.85-2.527 2.705 6.875 4.038zM260.674 507.567l15.203 8.928c-1.851-3.055-2.074-6.99-.237-10.338l148.038-270.02a10.31 10.31 0 016.572-5.046 10.25 10.25 0 017.404.989L663.7 356.79l1.78-1.857-235.113-138.078a9.31 9.31 0 00-6.981-1.025l-.001-.005a9.296 9.296 0 00-5.871 4.384L257.307 494.677c-2.614 4.486-1.105 10.261 3.367 12.89zm405.882-152.002l-1.755 1.832 2.927 1.614 1.664-1.781-2.836-1.665zm3.903 2.292l-1.64 1.756 2.891 1.595 1.551-1.705-2.802-1.646zm3.867 2.271l-1.528 1.681 2.852 1.573 1.441-1.63-2.765-1.624zm3.832 2.251l-1.418 1.604 2.813 1.552 1.333-1.554-2.728-1.602zm3.788 2.224l-1.312 1.529 2.771 1.529 1.229-1.48-2.688-1.578zm3.745 2.2l-1.207 1.453 2.716 1.498 1.127-1.404-2.636-1.547zm3.695 2.17l-1.106 1.377 2.669 1.473 1.028-1.329-2.591-1.521zm3.644 2.139l-1.008 1.302 2.616 1.444.732-.981c.067-.091.133-.182.197-.274l-2.537-1.491zm3.305 2.486l-.632.848 2.533 1.397c.256-.412.482-.838.678-1.275l-2.304-1.353c-.089.129-.181.257-.275.383zm3.627 1.585c-.196.426-.419.841-.667 1.244l2.222 1.226c.158-.438.285-.883.381-1.332l-1.936-1.138zm3.027 1.778c-.109.432-.243.86-.403 1.282l1.774.978c.054-.472.075-.946.063-1.417l-.037-.022-1.397-.821zm2.63 1.684c-.02.401-.061.803-.125 1.202l1.116.616a9.787 9.787 0 00-.25-1.135 9.096 9.096 0 00-.741-.683zm-174.26 289.293a9.636 9.636 0 01-4.396 2.405 9.622 9.622 0 01-7.427-1.185l-.977-.607c.254-.312.493-.638.715-.978l3.172-4.87 8.913 5.235zm-9.959-5.849l-3.139 4.821c-.227.349-.474.681-.739.996l-8.781-5.46 3.8-5.56 8.859 5.203zm-9.906-5.817l-3.783 5.534-8.539-5.309 3.756-5.256 8.566 5.031zm-9.614-5.647l-3.739 5.231-8.258-5.133 3.702-4.969 8.295 4.871zm-9.343-5.487l-3.684 4.944-8.001-4.974 3.637-4.696 8.048 4.726zm-9.098-5.342l-3.617 4.671-7.761-4.824 3.563-4.437 7.815 4.59zm-8.869-5.209L471.027 639l-7.541-4.689 3.481-4.19 7.603 4.466zm-8.66-5.086l-3.461 4.166-7.333-4.559 3.391-3.955 7.403 4.348zm-8.467-4.973l-3.371 3.931-7.144-4.442 3.296-3.728 7.219 4.239zm-8.283-4.864l-3.274 3.705-6.968-4.332 3.194-3.513 7.048 4.14zm-8.113-4.765l-3.173 3.489-6.804-4.23 3.087-3.305 6.89 4.046zm-7.957-4.673l-3.066 3.282-6.647-4.133 2.976-3.106 6.737 3.957zM257.066 505.98l-16.002-9.949c-4.551-2.83-5.961-8.842-3.144-13.407l172.374-278.915a9.64 9.64 0 015.938-4.321l-.004.006a9.635 9.635 0 017.432 1.185l244.23 151.837-1.55 1.619-235.365-138.226a10.537 10.537 0 00-7.878-1.156 10.52 10.52 0 00-6.624 4.948L256.262 494.07c-2.252 3.859-1.788 8.576.804 11.91zm410.35-151.313l1.529-1.595 2.739 1.703-1.446 1.549-2.822-1.657zm3.889 2.284l1.425-1.526 2.708 1.684-1.346 1.479-2.787-1.637zm3.852 2.263l1.324-1.457 2.672 1.661-1.246 1.41-2.75-1.614zm3.817 2.241l1.225-1.386 2.636 1.639-1.149 1.34-2.712-1.593zm3.771 2.215l1.129-1.316 2.598 1.614-1.055 1.271-2.672-1.569zm3.729 2.19l1.035-1.246 2.547 1.583-.964 1.2-2.618-1.537zm3.678 2.159l.944-1.176 2.455 1.526a11.55 11.55 0 01-.663.95l-.164.211-2.572-1.511zm3.624 2.129l.065-.084c.265-.342.51-.694.736-1.056l2.197 1.366c-.164.409-.354.811-.568 1.201l-2.43-1.427zm3.47 2.038c.211-.38.4-.769.567-1.167l1.85 1.15c-.079.424-.184.842-.313 1.252l-2.104-1.235zm3.171 1.862c.135-.393.248-.793.34-1.198l1.363.847c.018.444.009.889-.029 1.334l-1.674-.983zm2.814 1.653c.051-.373.083-.748.097-1.122.244.208.476.427.696.657.103.354.186.714.25 1.077l-1.043-.612zM512.252 671.174a9.983 9.983 0 004.416-2.373l-8.612-5.353-3.443 5.038c-.236.346-.49.677-.759.992l.518.34a10.088 10.088 0 007.88 1.356zm-8.636-3.376l3.411-4.99-8.561-5.323-4.12 5.765 8.485 5.558c.281-.318.543-.656.785-1.01zm-10.284-5.212l4.103-5.742-8.278-5.146-4.082 5.479 8.257 5.409zm-9.27-6.072l4.065-5.456-8.021-4.987-4.034 5.209 7.99 5.234zm-9.002-5.897l4.016-5.186-7.779-4.836-3.977 4.953 7.74 5.069zm-8.756-5.735l3.959-4.93-7.559-4.699-3.911 4.709 7.511 4.92zm-8.53-5.587l3.893-4.687-7.349-4.569-3.84 4.477 7.296 4.779zm-8.321-5.45l3.821-4.455-7.16-4.451-3.761 4.255 7.1 4.651zm-8.123-5.321l3.741-4.233-6.983-4.342-3.676 4.044 6.918 4.531zm-7.942-5.202l3.657-4.021-6.819-4.239-3.586 3.839 6.748 4.421zm-7.774-5.092l3.566-3.818-6.661-4.142-3.492 3.645 6.587 4.315zm-7.619-4.991l3.472-3.623-176.914-109.985 173.442 113.608zM221.448 484.497l17.472 11.445c-3.897-3.469-4.868-9.366-2.034-13.949L409.26 203.077a10.845 10.845 0 016.679-4.86 10.815 10.815 0 018.354 1.333l244.454 151.973 1.351-1.411-253.141-165.816a10.053 10.053 0 00-7.878-1.351l-.001-.005a9.98 9.98 0 00-6.009 4.265L218.531 470.566c-3.029 4.645-1.719 10.895 2.917 13.931zm449.684-133.708l-1.331 1.389 2.726 1.695 1.258-1.346-2.653-1.738zm3.678 2.409l-1.237 1.325 2.693 1.674 1.166-1.281-2.622-1.718zm3.645 2.388l-1.145 1.26 2.656 1.652 1.076-1.217-2.587-1.695zm3.614 2.367l-1.056 1.195 2.62 1.63.988-1.153-2.552-1.672zm3.572 2.34l-.969 1.13 2.581 1.605.682-.822c.074-.088.146-.178.217-.268l-2.511-1.645zm3.222 2.691l-.572.689 2.514 1.563c.255-.356.489-.724.701-1.101l-2.338-1.532a12.4 12.4 0 01-.305.381zm3.661 1.817c-.21.369-.438.728-.685 1.078l2.3 1.43c.18-.371.34-.75.478-1.136l-2.093-1.372zm3.129 2.05c-.144.373-.305.739-.484 1.098l2.002 1.245c.107-.389.192-.783.255-1.181l-1.773-1.162zm2.869 1.88a12.11 12.11 0 01-.286 1.125l1.588.987c.025-.417.025-.838 0-1.26l-1.302-.852zm2.526 1.782c-.009.351-.033.7-.072 1.046l.964.6a10.547 10.547 0 00-.249-1.021 10.27 10.27 0 00-.643-.625zM501.957 669.687a10.32 10.32 0 01-4.415 2.323 10.355 10.355 0 01-8.332-1.527l-.083-.057c.294-.327.571-.672.828-1.033l3.684-5.154 8.318 5.448zm-9.332-6.112l-3.653 5.111c-.263.369-.548.718-.852 1.047l-8.201-5.636 4.429-5.944 8.277 5.422zm-9.29-6.086l-4.412 5.923-7.992-5.493 4.396-5.676 8.008 5.246zm-9.021-5.909l-4.379 5.655-7.732-5.315 4.354-5.422 7.757 5.082zm-8.773-5.747l-4.337 5.401-7.495-5.152 4.303-5.18 7.529 4.931zm-8.547-5.599l-4.286 5.16-7.272-4.998 4.246-4.951 7.312 4.789zm-8.337-5.461l-4.228 4.931-7.069-4.86 4.182-4.731 7.115 4.66zm-8.139-5.331l-4.163 4.712-6.881-4.73 4.112-4.523 6.932 4.541zm-7.956-5.212l-4.094 4.503-6.706-4.609 4.038-4.323 6.762 4.429zm-7.788-5.101l-4.019 4.303-6.539-4.495 3.958-4.132 6.6 4.324zm-7.632-4.999l-3.939 4.111-211.366-145.279c-4.715-3.244-5.924-9.726-2.699-14.448l196.706-287.809a10.331 10.331 0 016.079-4.213l-.004.006a10.376 10.376 0 018.331 1.522l261.864 179.988-1.169 1.22L417.61 183.285a11.27 11.27 0 00-8.825-1.516 11.175 11.175 0 00-6.734 4.779L217.514 469.909c-3.386 5.2-1.916 12.201 3.276 15.6L417.142 614.13zm254.837-264.225l1.149-1.2 2.574 1.769-1.084 1.16-2.639-1.729zm3.665 2.401l1.064-1.14 2.544 1.748-1.001 1.1-2.607-1.708zm3.631 2.379l.982-1.08 2.509 1.725-.919 1.04-2.572-1.685zm3.599 2.357l.901-1.019 2.427 1.668c-.232.331-.481.652-.747.963l-.044.05-2.537-1.662zm3.557 2.33c.272-.322.528-.654.768-.996l2.238 1.539c-.178.353-.375.7-.59 1.04l-2.416-1.583zm3.429 2.246c.21-.331.404-.669.582-1.012l2.003 1.376c-.116.362-.25.717-.401 1.067l-2.184-1.431zm3.213 2.105c.152-.337.289-.679.411-1.027l1.694 1.164c-.05.373-.118.743-.204 1.108l-1.901-1.245zm2.967 1.944c.095-.346.174-.696.239-1.05l1.253.862c.029.395.036.789.023 1.18l-1.515-.992zm2.676 1.752c.03-.32.047-.642.052-.966.212.195.416.398.609.608.094.311.174.627.24.948l-.901-.59zM482.828 672.853a10.666 10.666 0 004.401-2.262l-8.033-5.522-3.898 5.231c-.284.381-.588.743-.912 1.086a10.7 10.7 0 008.442 1.467zm-8.5-3.273l3.871-5.196-8.01-5.506-4.727 6.104 7.927 5.698c.336-.344.649-.712.939-1.1zm-9.847-5.302l4.712-6.085-7.75-5.326-4.698 5.851 7.736 5.56zm-8.719-6.266l4.682-5.832-7.511-5.163-4.661 5.611 7.49 5.384zm-8.475-6.092l4.644-5.591-7.287-5.009-4.617 5.383 7.26 5.217zm-8.25-5.929l4.6-5.364-7.085-4.869-4.566 5.166 7.051 5.067zm-8.039-5.777l4.549-5.147-6.895-4.739-4.509 4.959 6.855 4.927zm-7.843-5.637l4.492-4.94-6.72-4.619-4.448 4.762 6.676 4.797zm-7.665-5.508l4.43-4.743-6.552-4.504-4.382 4.573 6.504 4.674zm-7.498-5.389l4.363-4.554-211.207-145.173c-5.268-3.618-6.617-10.855-3.011-16.126l196.705-287.809a11.529 11.529 0 016.787-4.702c3.2-.785 6.588-.16 9.303 1.704L672.96 347.125l1.002-1.046-270.414-194.341a10.702 10.702 0 00-8.787-1.704 10.67 10.67 0 00-6.143 4.167L179.744 446.457c-3.433 4.801-2.322 11.52 2.476 14.965L407.992 623.68zm266.966-276.884l-.983 1.026 2.56 1.76.924-.989-2.501-1.797zm3.49 2.507l-.906.971 2.529 1.738.422-.463c.142-.157.28-.317.414-.478l-2.459-1.768zm2.941 3.057l-.312.343 2.469 1.698c.237-.31.46-.628.667-.955l-2.322-1.668c-.161.197-.329.391-.502.582zm3.811 1.796c-.204.318-.422.63-.652.933l2.3 1.581c.18-.317.346-.642.497-.973l-2.145-1.541zm3.144 2.26c-.152.319-.318.634-.496.942l2.084 1.432c.125-.328.235-.66.33-.996l-1.918-1.378zm2.956 2.124a13.23 13.23 0 01-.345.953l1.813 1.247c.069-.34.122-.684.16-1.03l-1.628-1.17zm2.741 1.97a12.69 12.69 0 01-.197.969l1.433.985c.004-.364-.01-.729-.041-1.095l-1.195-.859zm2.441 1.871c0 .298-.011.594-.032.889l.845.581c-.066-.297-.143-.59-.232-.878a10.458 10.458 0 00-.581-.592zM472.481 671.514a11.019 11.019 0 01-4.36 2.185 10.997 10.997 0 01-8.47-1.357c.349-.355.679-.734.99-1.134l4.081-5.27 7.759 5.576zm-8.74-6.281l-4.053 5.234c-.324.418-.672.809-1.042 1.172l-7.665-5.741 5.007-6.237 7.753 5.572zm-8.736-6.278l-4.992 6.218-7.497-5.616 4.982-5.998 7.507 5.396zm-8.492-6.103l-4.966 5.979-7.258-5.437 4.949-5.771 7.275 5.229zm-8.265-5.941l-4.934 5.753-7.041-5.274 4.91-5.556 7.065 5.077zm-8.053-5.787l-4.894 5.538-6.841-5.124 4.865-5.351 6.87 4.937zm-7.858-5.647l-4.849 5.333-6.655-4.985 4.815-5.155 6.689 4.807zm-7.678-5.518l-4.798 5.137-6.479-4.852 4.761-4.969 6.516 4.684zm-7.511-5.398l-4.743 4.951-239.801-179.624a11.028 11.028 0 01-4.323-7.282 11.006 11.006 0 012.075-8.207l221.037-296.703a11.013 11.013 0 016.206-4.119l.005-.006c3.22-.789 6.588-.1 9.241 1.885l278.814 208.851-.124.13-.729.762-270.557-194.444a11.884 11.884 0 00-16.615 2.739L178.766 445.749c-3.82 5.346-2.587 12.819 2.752 16.656l225.63 162.156zm268.654-278.646l.608-.635c.077-.08.152-.16.227-.241l2.367 1.773c-.226.305-.465.6-.719.888l-2.483-1.785zm3.469 2.493c.245-.283.479-.574.7-.871l2.224 1.666c-.174.306-.362.607-.563.902l-2.361-1.697zm3.344 2.403c.197-.287.382-.58.556-.878l2.061 1.544c-.128.31-.267.614-.419.914l-2.198-1.58zm3.193 2.295c.152-.289.293-.582.423-.88l1.847 1.383c-.079.314-.171.624-.275.931l-1.995-1.434zm3.018 2.168c.107-.291.205-.587.292-.886l1.557 1.167c-.028.321-.07.641-.124.96l-1.725-1.241zm2.806 2.017c.064-.298.117-.598.16-.899l1.15.86c.033.342.052.682.056 1.021l-1.366-.982zm2.558 1.839c.015-.271.021-.543.019-.816.186.18.365.366.537.558.084.269.159.542.224.818l-.78-.56zM453.413 674.546a11.235 11.235 0 004.313-2.095l-7.498-5.616-4.244 5.285c-.334.416-.69.807-1.066 1.174a11.306 11.306 0 008.495 1.252zm-8.368-3.185l4.216-5.251-7.514-5.628-5.276 6.352 7.245 5.64.174.133c.41-.384.796-.8 1.155-1.246zm-9.529-5.27l5.262-6.335-7.273-5.448-5.254 6.127 7.265 5.656zm-8.225-6.404l5.239-6.109-7.056-5.285-5.225 5.912 7.042 5.482zm-7.998-6.227l5.209-5.895-6.854-5.134-5.19 5.708 6.835 5.321zm-7.792-6.066l5.175-5.691-6.668-4.994-5.15 5.513 6.643 5.172zm-7.6-5.917l5.134-5.497-6.491-4.862-5.105 5.329 6.462 5.03zm-7.424-5.779l5.09-5.312-239.684-179.528a12.23 12.23 0 01-4.796-8.079 12.23 12.23 0 012.303-9.107l221.036-296.703a12.245 12.245 0 016.89-4.57 12.192 12.192 0 0110.25 2.092L676.45 343.385c.212-.271.414-.549.605-.832L390.138 119.18a11.315 11.315 0 00-9.697-2.072l-.005.006a11.207 11.207 0 00-6.269 4.078L140.962 422.341a11.347 11.347 0 00-2.293 8.42 11.378 11.378 0 004.319 7.592l253.489 197.345zM678.016 343.3c-.189.277-.386.548-.594.813l2.262 1.695c.168-.275.326-.555.474-.84l-2.142-1.668zm3.11 2.422c-.148.275-.305.546-.471.813l2.097 1.571c.126-.28.242-.562.347-.848l-1.973-1.536zm2.971 2.313c-.109.274-.227.545-.354.813l1.912 1.432c.084-.283.159-.569.224-.858l-1.782-1.387zm2.828 2.202c-.072.273-.153.544-.243.813l1.654 1.238c.041-.292.072-.586.092-.882l-1.503-1.169zm2.63 2.047c-.035.275-.078.549-.129.821l1.29.966a12.654 12.654 0 00-.067-.935l-1.094-.852zm2.371 1.953c.005.245.003.49-.006.736l.721.54a11.65 11.65 0 00-.211-.742 11.53 11.53 0 00-.504-.534zM442.944 673.402a11.57 11.57 0 01-4.231 2 11.63 11.63 0 01-8.525-1.16c.401-.378.782-.783 1.139-1.215l4.373-5.264 7.244 5.639zm-8.199-6.383l-4.349 5.237c-.393.472-.816.91-1.266 1.312a12.486 12.486 0 01-.572-.435l-6.617-5.34 5.524-6.441 7.28 5.667zm-8.24-6.415l-5.51 6.425-7.05-5.691 5.504-6.227 7.056 5.493zm-8.013-6.238l-5.49 6.212-6.837-5.519 5.478-6.024 6.849 5.331zm-7.805-6.076l-5.464 6.009-6.639-5.359 5.447-5.832 6.656 5.182zm-7.614-5.927l-5.432 5.816-6.453-5.208 5.412-5.648 6.473 5.04zm-7.435-5.789l-5.396 5.633-266.867-215.4c-5.043-4.07-5.845-11.482-1.792-16.531L366.951 104.68a11.581 11.581 0 016.336-4.042l-.005.001a11.64 11.64 0 0110.154 2.263l294.653 237.827c-.126.269-.261.533-.405.794L390.88 118.238a12.517 12.517 0 00-10.726-2.296 12.472 12.472 0 00-6.94 4.509L140.016 421.605a12.532 12.532 0 00-2.545 9.313 12.575 12.575 0 004.777 8.393l253.39 197.263zm283.015-294.297c.143-.251.279-.506.407-.765l1.908 1.541a12.47 12.47 0 01-.295.797l-2.02-1.573zm3.007 2.341c.109-.251.211-.504.305-.761l1.702 1.374c-.053.27-.115.539-.185.806l-1.822-1.419zm2.854 2.222c.076-.251.144-.505.206-.759l1.451 1.171c-.013.277-.036.552-.067.826l-1.59-1.238zm2.691 2.096c.042-.254.077-.508.105-.764l1.054.85a11.822 11.822 0 01.075.874l-1.234-.96zm2.454 1.91c.005-.225.004-.45-.003-.676.158.161.31.327.458.496.075.229.143.46.205.693l-.66-.513zM424.002 676.26a11.956 11.956 0 004.147-1.905c-.12-.09-.238-.182-.355-.276l-6.644-5.363-4.475 5.218a13.95 13.95 0 01-1.224 1.254 12.142 12.142 0 008.551 1.072zm-8.251-3.116l4.452-5.192-7.064-5.702-5.769 6.528 6.015 5.022c.313.262.638.506.974.732a12.58 12.58 0 001.392-1.388zm-9.31-5.142l5.756-6.513-6.851-5.529-5.751 6.326 6.846 5.716zm-7.775-6.491l5.738-6.311-6.652-5.37-5.729 6.134 6.643 5.547zm-7.572-6.322l5.716-6.12-6.465-5.218-5.702 5.951 6.451 5.387zm-7.384-6.165l5.688-5.937-266.781-215.334c-5.556-4.491-6.445-12.668-1.974-18.237L366.011 103.92a12.76 12.76 0 016.987-4.46 12.848 12.848 0 0111.203 2.501l294.371 237.605c.087-.24.167-.482.241-.726L376.741 86.63a12.132 12.132 0 00-10.618-2.46 11.964 11.964 0 00-6.398 4.005L102.19 398.224a12.032 12.032 0 00-2.741 8.846 12.035 12.035 0 004.305 8.204l279.956 233.75zm296.108-309.345c-.078.232-.162.462-.252.689l1.757 1.418c.055-.241.104-.484.145-.729l-1.65-1.378zm2.707 2.26c-.05.229-.106.457-.167.683l1.505 1.214c.022-.247.036-.495.044-.743l-1.382-1.154zm2.533 2.116c-.021.227-.048.454-.081.681l1.176.949a13.473 13.473 0 00-.079-.783l-1.016-.847zm2.326 2.044c.008.197.011.392.01.587l.607.491a13.09 13.09 0 00-.179-.593 12.443 12.443 0 00-.438-.485zm-274.03 329.203a12.31 12.31 0 01-4.062 1.816 12.464 12.464 0 01-8.577-.987c.458-.4.893-.833 1.301-1.295l4.555-5.154 6.041 5.045c.241.201.489.393.742.575zm-7.712-6.395l-4.535 5.131a13.021 13.021 0 01-1.511 1.453c-.482-.31-.946-.655-1.386-1.034l-5.428-4.678 6-6.6 6.86 5.728zm-7.788-6.503l-5.988 6.585-6.653-5.734 5.985-6.408 6.656 5.557zm-7.584-6.333l-5.972 6.394-6.456-5.564 5.965-6.226 6.463 5.396zm-7.396-6.175l-5.951 6.212L84.13 403.73a12.434 12.434 0 01-4.296-8.516 12.393 12.393 0 012.965-9.064L352.496 71.66a12.322 12.322 0 016.459-3.973l.006.004c3.9-.956 8.042.04 11.082 2.66L679.25 336.873c-.032.223-.071.445-.114.665L377.513 85.698a13.328 13.328 0 00-11.673-2.706 13.137 13.137 0 00-7.037 4.404l-257.53 310.048a13.228 13.228 0 00-3.016 9.733 13.236 13.236 0 004.735 9.027l279.882 233.692zm297.31-311.482c.05-.205.095-.411.136-.618l1.341 1.155c-.003.225-.012.45-.026.674l-1.451-1.211zm2.575 2.149c.024-.203.045-.408.061-.613l.957.825c.034.235.062.471.083.707l-1.101-.919zm2.364 1.974a14.927 14.927 0 00-.015-.518c.137.146.27.296.399.447.059.176.115.353.167.531l-.551-.46zM394.588 677.985a12.624 12.624 0 003.972-1.732c-.39-.27-.767-.561-1.129-.874l-5.461-4.707-4.611 5.071c-.433.478-.895.923-1.382 1.334a12.798 12.798 0 008.611.908zm-8.125-3.054l4.591-5.048-6.665-5.745-6.216 6.655 4.874 4.329c.561.498 1.158.942 1.785 1.328a13.13 13.13 0 001.631-1.519zm-9.194-4.941l6.204-6.642-6.467-5.574-6.203 6.473 6.466 5.743zm-7.373-6.548l6.19-6.461-292.74-252.328a13.591 13.591 0 01-4.71-9.341 13.576 13.576 0 013.25-9.943l269.7-314.49a13.547 13.547 0 017.089-4.36 13.66 13.66 0 0112.15 2.92l308.563 265.968c.008-.201.012-.402.012-.604L363.341 54.069a12.81 12.81 0 00-11.541-2.863l-.004.007a12.735 12.735 0 00-6.518 3.947L63.411 374.097c-4.674 5.288-4.177 13.407 1.103 18.099l305.382 271.246zm310.68-327.594c-.012.182-.027.363-.046.543l1.055.91a13.017 13.017 0 00-.081-.629l-.928-.824zm2.283 2.404l.004.151.479.412a17.31 17.31 0 00-.147-.456 12.997 12.997 0 00-.348-.397c.005.096.009.193.012.29zM383.772 677.199a12.983 12.983 0 01-3.887 1.654 13.122 13.122 0 01-8.645-.835 14.84 14.84 0 001.462-1.368l4.65-4.978 4.902 4.354c.482.428.99.82 1.518 1.173zm-7.324-6.33l-4.629 4.956a13.524 13.524 0 01-1.752 1.577 13.172 13.172 0 01-2.183-1.62l-4.337-3.962 6.423-6.704 6.478 5.753zm-7.384-6.558l-6.411 6.691-317.755-290.34a13.14 13.14 0 01-4.284-9.139 13.1 13.1 0 013.413-9.491L338.056 38.649a13.11 13.11 0 016.578-3.921 13.138 13.138 0 0112.006 3.064l322.578 294.759c.03.182.056.366.078.55l-315.16-279.93a13.995 13.995 0 00-12.628-3.13 13.91 13.91 0 00-7.135 4.32L62.507 373.298c-5.113 5.788-4.577 14.678 1.204 19.809l305.353 271.204zm311.534-330.053l.434.385c-.039-.124-.08-.247-.123-.37-.107-.13-.216-.258-.329-.384.008.123.014.246.018.369zM365.187 679.719a13.453 13.453 0 003.786-1.574 14.454 14.454 0 01-1.901-1.467l-4.361-3.985-4.666 4.87c-.482.503-.996.969-1.537 1.397a13.453 13.453 0 008.679.759zm-8.011-3l4.64-4.844L44.089 381.541a14.328 14.328 0 01-4.674-9.975 14.293 14.293 0 013.723-10.363L337.168 37.82a14.253 14.253 0 017.182-4.275 14.334 14.334 0 0113.107 3.35l321.246 293.541-.091-.264a13.67 13.67 0 00-1.238-1.325L349.944 21.519a13.468 13.468 0 00-12.472-3.276l-.005.001a13.414 13.414 0 00-6.632 3.894L24.637 349.97c-5.089 5.446-4.797 14.036.643 19.148l327.44 307.325a13.608 13.608 0 002.585 1.911 13.98 13.98 0 001.871-1.634zm-2.997 2.371a14.77 14.77 0 01-2.289-1.764L24.449 369.995c-5.928-5.564-6.243-14.927-.697-20.862L329.95 21.303a14.688 14.688 0 0120.813-.67l325.918 305.903a14.011 14.011 0 00-1.555-1.767L343.238 5.249a13.815 13.815 0 00-12.933-3.49l-.001-.004a13.787 13.787 0 00-6.692 3.867L5.252 337.9a13.833 13.833 0 00-3.861 9.917 13.85 13.85 0 004.272 9.761l331.883 319.527a13.833 13.833 0 0012.938 3.482 13.713 13.713 0 003.695-1.496z" fill="url(#paint0_linear_4627_20110)"/><defs><linearGradient id="paint0_linear_4627_20110" x1="597.434" y1="364.051" x2="548.823" y2="120.022" gradientUnits="userSpaceOnUse"><stop stop-color="#A345EC"/><stop offset="1" stop-color="#003E99"/></linearGradient></defs></svg>