<svg width="182" height="48" viewBox="0 0 182 48" fill="none" xmlns="http://www.w3.org/2000/svg">
<rect x="1" y="1" width="180" height="46" rx="7" stroke="#FF0004" stroke-width="2"/>
<path d="M24.96 30V18.8H31.984V20.752H26.912V23.024H30.936V24.976H26.912V28.048H31.984V30H24.96ZM32.9681 30L35.8961 25.984L32.9921 21.992H35.4001L37.0961 24.32L38.8001 21.992H41.2081L38.3041 25.984L41.2321 30H38.8241L37.0961 27.632L35.3761 30H32.9681ZM44.4276 34H42.4756V22H44.4276V23.016C44.689 22.6533 45.009 22.36 45.3876 22.136C45.7716 21.9067 46.2196 21.792 46.7316 21.792C47.3183 21.792 47.865 21.9013 48.3716 22.12C48.8783 22.3387 49.3236 22.6427 49.7076 23.032C50.097 23.416 50.3983 23.8613 50.6116 24.368C50.8303 24.8747 50.9396 25.4187 50.9396 26C50.9396 26.5813 50.8303 27.128 50.6116 27.64C50.3983 28.152 50.097 28.6027 49.7076 28.992C49.3236 29.376 48.8783 29.6773 48.3716 29.896C47.865 30.1147 47.3183 30.224 46.7316 30.224C46.2196 30.224 45.7716 30.112 45.3876 29.888C45.009 29.6587 44.689 29.3627 44.4276 29V34ZM46.7076 23.672C46.3023 23.672 45.9396 23.7787 45.6196 23.992C45.2996 24.2 45.049 24.48 44.8676 24.832C44.6863 25.184 44.5956 25.5733 44.5956 26C44.5956 26.4267 44.6863 26.8187 44.8676 27.176C45.049 27.528 45.2996 27.8107 45.6196 28.024C45.9396 28.232 46.3023 28.336 46.7076 28.336C47.1183 28.336 47.4943 28.232 47.8356 28.024C48.177 27.816 48.449 27.536 48.6516 27.184C48.8543 26.8267 48.9556 26.432 48.9556 26C48.9556 25.5733 48.8543 25.184 48.6516 24.832C48.449 24.48 48.177 24.2 47.8356 23.992C47.4996 23.7787 47.1236 23.672 46.7076 23.672ZM52.0694 30V18H54.0214V30H52.0694ZM59.3394 30.208C58.6034 30.208 57.9314 30.0187 57.3234 29.64C56.7207 29.2613 56.238 28.7547 55.8754 28.12C55.518 27.48 55.3394 26.7733 55.3394 26C55.3394 25.4133 55.4434 24.8667 55.6514 24.36C55.8594 23.848 56.1447 23.4 56.5074 23.016C56.8754 22.6267 57.302 22.3227 57.7874 22.104C58.2727 21.8853 58.79 21.776 59.3394 21.776C60.0754 21.776 60.7447 21.9653 61.3474 22.344C61.9554 22.7227 62.438 23.232 62.7954 23.872C63.158 24.512 63.3394 25.2213 63.3394 26C63.3394 26.5813 63.2354 27.1253 63.0274 27.632C62.8194 28.1387 62.5314 28.5867 62.1634 28.976C61.8007 29.36 61.3767 29.6613 60.8914 29.88C60.4114 30.0987 59.894 30.208 59.3394 30.208ZM59.3394 28.256C59.7287 28.256 60.078 28.152 60.3874 27.944C60.6967 27.736 60.9394 27.4613 61.1154 27.12C61.2967 26.7787 61.3874 26.4053 61.3874 26C61.3874 25.584 61.294 25.2053 61.1074 24.864C60.926 24.5173 60.678 24.2427 60.3634 24.04C60.054 23.832 59.7127 23.728 59.3394 23.728C58.9554 23.728 58.6087 23.832 58.2994 24.04C57.99 24.248 57.7447 24.5253 57.5634 24.872C57.382 25.2187 57.2914 25.5947 57.2914 26C57.2914 26.4213 57.3847 26.8027 57.5714 27.144C57.758 27.4853 58.006 27.7573 58.3154 27.96C58.63 28.1573 58.9714 28.256 59.3394 28.256ZM64.593 30L64.585 22H66.537L66.545 22.712C66.817 22.424 67.1423 22.1973 67.521 22.032C67.8997 21.8613 68.3077 21.776 68.745 21.776C69.0383 21.776 69.3317 21.8187 69.625 21.904L68.857 23.872C68.6543 23.792 68.4517 23.752 68.249 23.752C67.9343 23.752 67.6463 23.8293 67.385 23.984C67.129 24.1333 66.9237 24.3387 66.769 24.6C66.6197 24.856 66.545 25.1413 66.545 25.456V30H64.593ZM73.6675 30.208C72.9315 30.208 72.2595 30.0187 71.6515 29.64C71.0488 29.2613 70.5662 28.752 70.2035 28.112C69.8462 27.472 69.6675 26.7653 69.6675 25.992C69.6675 25.4107 69.7715 24.8667 69.9795 24.36C70.1875 23.848 70.4728 23.4 70.8355 23.016C71.2035 22.6267 71.6302 22.3227 72.1155 22.104C72.6008 21.8853 73.1182 21.776 73.6675 21.776C74.2915 21.776 74.8622 21.9093 75.3795 22.176C75.9022 22.4373 76.3448 22.7973 76.7075 23.256C77.0702 23.7147 77.3342 24.2373 77.4995 24.824C77.6648 25.4107 77.7022 26.024 77.6115 26.664H71.7635C71.8382 26.9627 71.9608 27.232 72.1315 27.472C72.3022 27.7067 72.5182 27.896 72.7795 28.04C73.0408 28.1787 73.3368 28.2507 73.6675 28.256C74.0088 28.2613 74.3182 28.1813 74.5955 28.016C74.8782 27.8453 75.1128 27.616 75.2995 27.328L77.2915 27.792C76.9662 28.5013 76.4808 29.0827 75.8355 29.536C75.1902 29.984 74.4675 30.208 73.6675 30.208ZM71.6995 25.2H75.6355C75.5768 24.88 75.4515 24.592 75.2595 24.336C75.0728 24.0747 74.8408 23.8667 74.5635 23.712C74.2862 23.5573 73.9875 23.48 73.6675 23.48C73.3475 23.48 73.0515 23.5573 72.7795 23.712C72.5075 23.8613 72.2755 24.0667 72.0835 24.328C71.8968 24.584 71.7688 24.8747 71.6995 25.2ZM83.1844 30V18.8H85.1364V30H83.1844ZM94.6318 24.944V30H92.6798V25.456C92.6798 25.1413 92.6024 24.856 92.4478 24.6C92.2931 24.3387 92.0851 24.1333 91.8238 23.984C91.5678 23.8293 91.2824 23.752 90.9678 23.752C90.6531 23.752 90.3651 23.8293 90.1038 23.984C89.8478 24.1333 89.6424 24.3387 89.4878 24.6C89.3384 24.856 89.2638 25.1413 89.2638 25.456V30H87.3118L87.3038 22H89.2558L89.2638 22.712C89.5358 22.424 89.8611 22.1973 90.2398 22.032C90.6184 21.8613 91.0264 21.776 91.4638 21.776C92.0451 21.776 92.5758 21.92 93.0558 22.208C93.5358 22.4907 93.9171 22.872 94.1998 23.352C94.4878 23.8267 94.6318 24.3573 94.6318 24.944ZM103.554 24.944V30H101.602V25.456C101.602 25.1413 101.524 24.856 101.37 24.6C101.215 24.3387 101.007 24.1333 100.746 23.984C100.49 23.8293 100.204 23.752 99.8896 23.752C99.575 23.752 99.287 23.8293 99.0256 23.984C98.7696 24.1333 98.5643 24.3387 98.4096 24.6C98.2603 24.856 98.1856 25.1413 98.1856 25.456V30H96.2336L96.2256 22H98.1776L98.1856 22.712C98.4576 22.424 98.783 22.1973 99.1616 22.032C99.5403 21.8613 99.9483 21.776 100.386 21.776C100.967 21.776 101.498 21.92 101.978 22.208C102.458 22.4907 102.839 22.872 103.122 23.352C103.41 23.8267 103.554 24.3573 103.554 24.944ZM108.511 30.208C107.775 30.208 107.103 30.0187 106.495 29.64C105.893 29.2613 105.41 28.7547 105.047 28.12C104.69 27.48 104.511 26.7733 104.511 26C104.511 25.4133 104.615 24.8667 104.823 24.36C105.031 23.848 105.317 23.4 105.679 23.016C106.047 22.6267 106.474 22.3227 106.959 22.104C107.445 21.8853 107.962 21.776 108.511 21.776C109.247 21.776 109.917 21.9653 110.519 22.344C111.127 22.7227 111.61 23.232 111.967 23.872C112.33 24.512 112.511 25.2213 112.511 26C112.511 26.5813 112.407 27.1253 112.199 27.632C111.991 28.1387 111.703 28.5867 111.335 28.976C110.973 29.36 110.549 29.6613 110.063 29.88C109.583 30.0987 109.066 30.208 108.511 30.208ZM108.511 28.256C108.901 28.256 109.25 28.152 109.559 27.944C109.869 27.736 110.111 27.4613 110.287 27.12C110.469 26.7787 110.559 26.4053 110.559 26C110.559 25.584 110.466 25.2053 110.279 24.864C110.098 24.5173 109.85 24.2427 109.535 24.04C109.226 23.832 108.885 23.728 108.511 23.728C108.127 23.728 107.781 23.832 107.471 24.04C107.162 24.248 106.917 24.5253 106.735 24.872C106.554 25.2187 106.463 25.5947 106.463 26C106.463 26.4213 106.557 26.8027 106.743 27.144C106.93 27.4853 107.178 27.7573 107.487 27.96C107.802 28.1573 108.143 28.256 108.511 28.256ZM118.334 30H115.814L112.902 21.992H114.982L117.078 27.752L119.166 21.992H121.246L118.334 30ZM128.148 22H130.1V30H128.148L128.06 29.008C127.842 29.3653 127.551 29.656 127.188 29.88C126.831 30.0987 126.407 30.208 125.916 30.208C125.324 30.208 124.77 30.096 124.252 29.872C123.735 29.648 123.279 29.3387 122.884 28.944C122.495 28.5493 122.188 28.0933 121.964 27.576C121.746 27.0587 121.636 26.504 121.636 25.912C121.636 25.3413 121.74 24.8053 121.948 24.304C122.162 23.8027 122.458 23.3627 122.836 22.984C123.215 22.6053 123.652 22.3093 124.148 22.096C124.644 21.8827 125.178 21.776 125.748 21.776C126.276 21.776 126.748 21.8933 127.164 22.128C127.586 22.3627 127.943 22.6613 128.236 23.024L128.148 22ZM125.868 28.328C126.284 28.328 126.652 28.224 126.972 28.016C127.292 27.808 127.543 27.528 127.724 27.176C127.906 26.8187 127.996 26.4267 127.996 26C127.996 25.568 127.906 25.176 127.724 24.824C127.543 24.4667 127.29 24.184 126.964 23.976C126.644 23.768 126.279 23.664 125.868 23.664C125.458 23.664 125.082 23.7707 124.74 23.984C124.404 24.192 124.135 24.472 123.932 24.824C123.735 25.176 123.636 25.568 123.636 26C123.636 26.432 123.738 26.824 123.94 27.176C124.143 27.528 124.412 27.808 124.748 28.016C125.09 28.224 125.463 28.328 125.868 28.328ZM135.982 23.952H134.43V30H132.478V23.952H131.294V22H132.478V19.488H134.43V22H135.982V23.952ZM137.304 22H139.256V30H137.304V22ZM138.296 20.968C138.008 20.968 137.765 20.8747 137.568 20.688C137.37 20.496 137.272 20.256 137.272 19.968C137.272 19.6853 137.37 19.448 137.568 19.256C137.765 19.064 138.005 18.968 138.288 18.968C138.57 18.968 138.808 19.064 139 19.256C139.197 19.448 139.296 19.6853 139.296 19.968C139.296 20.256 139.2 20.496 139.008 20.688C138.816 20.8747 138.578 20.968 138.296 20.968ZM144.511 30.208C143.775 30.208 143.103 30.0187 142.495 29.64C141.893 29.2613 141.41 28.7547 141.047 28.12C140.69 27.48 140.511 26.7733 140.511 26C140.511 25.4133 140.615 24.8667 140.823 24.36C141.031 23.848 141.317 23.4 141.679 23.016C142.047 22.6267 142.474 22.3227 142.959 22.104C143.445 21.8853 143.962 21.776 144.511 21.776C145.247 21.776 145.917 21.9653 146.519 22.344C147.127 22.7227 147.61 23.232 147.967 23.872C148.33 24.512 148.511 25.2213 148.511 26C148.511 26.5813 148.407 27.1253 148.199 27.632C147.991 28.1387 147.703 28.5867 147.335 28.976C146.973 29.36 146.549 29.6613 146.063 29.88C145.583 30.0987 145.066 30.208 144.511 30.208ZM144.511 28.256C144.901 28.256 145.25 28.152 145.559 27.944C145.869 27.736 146.111 27.4613 146.287 27.12C146.469 26.7787 146.559 26.4053 146.559 26C146.559 25.584 146.466 25.2053 146.279 24.864C146.098 24.5173 145.85 24.2427 145.535 24.04C145.226 23.832 144.885 23.728 144.511 23.728C144.127 23.728 143.781 23.832 143.471 24.04C143.162 24.248 142.917 24.5253 142.735 24.872C142.554 25.2187 142.463 25.5947 142.463 26C142.463 26.4213 142.557 26.8027 142.743 27.144C142.93 27.4853 143.178 27.7573 143.487 27.96C143.802 28.1573 144.143 28.256 144.511 28.256ZM157.085 24.944V30H155.133V25.456C155.133 25.1413 155.056 24.856 154.901 24.6C154.746 24.3387 154.538 24.1333 154.277 23.984C154.021 23.8293 153.736 23.752 153.421 23.752C153.106 23.752 152.818 23.8293 152.557 23.984C152.301 24.1333 152.096 24.3387 151.941 24.6C151.792 24.856 151.717 25.1413 151.717 25.456V30H149.765L149.757 22H151.709L151.717 22.712C151.989 22.424 152.314 22.1973 152.693 22.032C153.072 21.8613 153.48 21.776 153.917 21.776C154.498 21.776 155.029 21.92 155.509 22.208C155.989 22.4907 156.37 22.872 156.653 23.352C156.941 23.8267 157.085 24.3573 157.085 24.944Z" fill="black"/>
</svg>
