<svg width="119" height="30" viewBox="0 0 119 30" fill="none" xmlns="http://www.w3.org/2000/svg">
<rect width="42.6319" height="17.0528" fill="#FF5112"/>
<path d="M6.92743 10.8837C7.21002 11.1955 7.5803 11.3514 8.03829 11.3514C8.49628 11.3514 8.86657 11.1955 9.14916 10.8837C9.43175 10.5621 9.57304 10.0846 9.57304 9.45122C9.57304 8.81783 9.43175 8.34523 9.14916 8.03341C8.86657 7.71184 8.49628 7.55106 8.03829 7.55106C7.5803 7.55106 7.21002 7.71184 6.92743 8.03341C6.64484 8.34523 6.50354 8.81783 6.50354 9.45122C6.50354 10.0846 6.64484 10.5621 6.92743 10.8837ZM7.52671 13.5439C6.47431 13.5439 5.63629 13.1931 5.01265 12.4915C4.39875 11.7899 4.0918 10.7765 4.0918 9.45122C4.0918 8.12598 4.39875 7.11256 5.01265 6.41096C5.63629 5.70936 6.47431 5.35856 7.52671 5.35856C8.37448 5.35856 9.03222 5.65089 9.49996 6.23556H9.57304V3.16606H11.9848V13.3977H9.86537L9.64612 12.5938H9.57304C9.04684 13.2272 8.36473 13.5439 7.52671 13.5439Z" fill="white"/>
<path d="M17.3182 13.5439C16.0319 13.5439 15.038 13.1931 14.3364 12.4915C13.6445 11.7801 13.2986 10.7667 13.2986 9.45122C13.2986 8.15521 13.6542 7.15154 14.3656 6.44019C15.0769 5.7191 16.0611 5.35856 17.3182 5.35856C18.5265 5.35856 19.4717 5.73859 20.1538 6.49866C20.8456 7.24898 21.1916 8.20881 21.1916 9.37814L21.1185 10.1821H15.7103C15.9052 11.0591 16.4168 11.4976 17.2451 11.4976C17.82 11.4976 18.2634 11.3027 18.5752 10.9129H21.0454C20.9674 11.2247 20.8456 11.5219 20.68 11.8045C20.5143 12.0773 20.2902 12.3551 20.0076 12.6377C19.7348 12.9105 19.3645 13.1297 18.8968 13.2954C18.429 13.4611 17.9028 13.5439 17.3182 13.5439ZM15.7103 8.57422H18.7798C18.7019 8.25266 18.5265 7.97981 18.2536 7.75569C17.9905 7.52182 17.6543 7.40489 17.2451 7.40489C16.8261 7.40489 16.485 7.51208 16.2219 7.72646C15.9588 7.94083 15.7883 8.22342 15.7103 8.57422Z" fill="white"/>
<path d="M22.4283 13.3977V5.50473H24.5477L24.7669 6.30864H24.84C25.2883 5.67525 25.8729 5.35856 26.594 5.35856C26.9351 5.35856 27.242 5.41215 27.5149 5.51934C27.7975 5.61679 28.0167 5.74346 28.1726 5.89938C28.3383 6.05529 28.4601 6.18684 28.538 6.29403C28.6257 6.40121 28.6842 6.48891 28.7134 6.55712H28.7865C28.8352 6.44994 28.9229 6.31839 29.0496 6.16247C29.186 6.00656 29.4394 5.83604 29.8097 5.65089C30.18 5.456 30.5941 5.35856 31.0521 5.35856C31.8122 5.35856 32.4748 5.63628 33.04 6.19171C33.6149 6.7374 33.9023 7.50721 33.9023 8.50114V13.3977H31.4906V8.93964C31.4906 8.48165 31.3931 8.13572 31.1983 7.90186C31.0034 7.66799 30.7354 7.55106 30.3943 7.55106C30.0825 7.55106 29.834 7.66799 29.6489 7.90186C29.4638 8.13572 29.3712 8.48165 29.3712 8.93964V13.3977H26.9594V8.93964C26.9594 8.48165 26.862 8.13572 26.6671 7.90186C26.4722 7.66799 26.2042 7.55106 25.8632 7.55106C25.5514 7.55106 25.3029 7.66799 25.1177 7.90186C24.9326 8.13572 24.84 8.48165 24.84 8.93964V13.3977H22.4283Z" fill="white"/>
<path d="M35.4319 13.3977V5.50473H37.8437V13.3977H35.4319ZM37.6098 4.55464C37.3662 4.79825 37.0398 4.92006 36.6305 4.92006C36.2212 4.92006 35.8948 4.79825 35.6512 4.55464C35.4076 4.30129 35.2858 3.98459 35.2858 3.60456C35.2858 3.22453 35.4076 2.91271 35.6512 2.6691C35.8948 2.41574 36.2212 2.28906 36.6305 2.28906C37.0398 2.28906 37.3662 2.41574 37.6098 2.6691C37.8632 2.91271 37.9899 3.22453 37.9899 3.60456C37.9899 3.98459 37.8632 4.30129 37.6098 4.55464Z" fill="white"/>
<path d="M40.8458 13.3977L38.7264 5.50473H41.2112L42.3806 10.4013L43.623 5.50473H45.9616L47.2041 10.4013L48.3734 5.50473H50.8582L48.7388 13.3977H46.0347L44.7923 9.01272L43.5499 13.3977H40.8458Z" fill="white"/>
<path d="M55.2444 13.5439C53.9581 13.5439 52.9642 13.1931 52.2626 12.4915C51.5707 11.7801 51.2248 10.7667 51.2248 9.45122C51.2248 8.15521 51.5805 7.15154 52.2918 6.44019C53.0031 5.7191 53.9873 5.35856 55.2444 5.35856C56.4527 5.35856 57.3979 5.73859 58.08 6.49866C58.7718 7.24898 59.1178 8.20881 59.1178 9.37814L59.0447 10.1821H53.6365C53.8314 11.0591 54.343 11.4976 55.1713 11.4976C55.7462 11.4976 56.1896 11.3027 56.5014 10.9129H58.9716C58.8937 11.2247 58.7718 11.5219 58.6062 11.8045C58.4405 12.0773 58.2164 12.3551 57.9338 12.6377C57.661 12.9105 57.2907 13.1297 56.823 13.2954C56.3552 13.4611 55.829 13.5439 55.2444 13.5439ZM53.6365 8.57422H56.706C56.6281 8.25266 56.4527 7.97981 56.1798 7.75569C55.9167 7.52182 55.5805 7.40489 55.1713 7.40489C54.7523 7.40489 54.4112 7.51208 54.1481 7.72646C53.885 7.94083 53.7145 8.22342 53.6365 8.57422Z" fill="white"/>
<path d="M63.2632 10.8837C63.5458 11.1955 63.9161 11.3514 64.3741 11.3514C64.832 11.3514 65.2023 11.1955 65.4849 10.8837C65.7675 10.5621 65.9088 10.0846 65.9088 9.45122C65.9088 8.81783 65.7675 8.34523 65.4849 8.03341C65.2023 7.71184 64.832 7.55106 64.3741 7.55106C63.9161 7.55106 63.5458 7.71184 63.2632 8.03341C62.9806 8.34523 62.8393 8.81783 62.8393 9.45122C62.8393 10.0846 62.9806 10.5621 63.2632 10.8837ZM64.8856 13.5439C64.0476 13.5439 63.3655 13.2272 62.8393 12.5938H62.7662L62.547 13.3977H60.4276V3.16606H62.8393V6.23556H62.9124C63.3801 5.65089 64.0379 5.35856 64.8856 5.35856C65.938 5.35856 66.7712 5.70936 67.3851 6.41096C68.0087 7.11256 68.3206 8.12598 68.3206 9.45122C68.3206 10.7765 68.0087 11.7899 67.3851 12.4915C66.7712 13.1931 65.938 13.5439 64.8856 13.5439Z" fill="white"/>
<path d="M71.4468 13.0908C71.1934 13.3441 70.8816 13.4708 70.5113 13.4708C70.141 13.4708 69.8292 13.3441 69.5759 13.0908C69.3225 12.8277 69.1958 12.5158 69.1958 12.1553C69.1958 11.7948 69.3225 11.4878 69.5759 11.2345C69.8292 10.9714 70.141 10.8398 70.5113 10.8398C70.8816 10.8398 71.1934 10.9714 71.4468 11.2345C71.7002 11.4878 71.8268 11.7948 71.8268 12.1553C71.8268 12.5158 71.7002 12.8277 71.4468 13.0908Z" fill="white"/>
<path d="M76.1422 13.5439C75.499 13.5439 74.9387 13.4659 74.4613 13.31C73.9838 13.1444 73.6135 12.9202 73.3504 12.6377C73.0873 12.3551 72.8875 12.0627 72.7511 11.7607C72.6147 11.4586 72.527 11.1273 72.488 10.7667H74.9728C75.0118 10.9616 75.1385 11.1321 75.3529 11.2783C75.5673 11.4245 75.8304 11.4976 76.1422 11.4976C76.9217 11.4976 77.3115 11.327 77.3115 10.986C77.3115 10.8203 77.1994 10.6888 76.9753 10.5913C76.7512 10.4939 76.4686 10.4305 76.1276 10.4013C75.7962 10.3721 75.4357 10.3087 75.0459 10.2113C74.6561 10.1138 74.2907 9.99204 73.9497 9.84587C73.6184 9.6997 73.3406 9.45609 73.1165 9.11504C72.8924 8.77398 72.7803 8.3501 72.7803 7.84339C72.7803 7.11256 73.0776 6.51815 73.672 6.06016C74.2664 5.59243 75.0898 5.35856 76.1422 5.35856C77.3115 5.35856 78.1788 5.61679 78.7439 6.13324C79.3091 6.63995 79.6356 7.25872 79.7233 7.98956H77.2384C77.2189 7.8239 77.1166 7.68748 76.9315 7.58029C76.7561 7.46336 76.493 7.40489 76.1422 7.40489C75.5575 7.40489 75.2652 7.57542 75.2652 7.91647C75.2652 8.07238 75.3772 8.19419 75.6014 8.28189C75.8255 8.36959 76.1032 8.43293 76.4345 8.47191C76.7756 8.50114 77.141 8.56935 77.5308 8.67654C77.9205 8.77398 78.2811 8.89579 78.6124 9.04196C78.9534 9.18812 79.236 9.43661 79.4602 9.78741C79.6843 10.1285 79.7963 10.5523 79.7963 11.0591C79.7963 11.3514 79.7427 11.6291 79.6356 11.8922C79.5284 12.1553 79.3481 12.4184 79.0947 12.6815C78.8511 12.9446 78.476 13.1541 77.9693 13.31C77.4625 13.4659 76.8535 13.5439 76.1422 13.5439Z" fill="white"/>
<path d="M84.3281 13.3977C83.3926 13.3977 82.7202 13.2028 82.311 12.8131C81.9017 12.4135 81.6971 11.8045 81.6971 10.986V7.69722H80.4547V5.50473H81.6971L82.0625 3.4584H84.1088V5.50473H85.9359V7.69722H84.1088V10.5475C84.1088 10.7326 84.1722 10.8885 84.2988 11.0152C84.4255 11.1419 84.5814 11.2052 84.7666 11.2052H85.9359V13.3977H84.3281Z" fill="white"/>
<path d="M90.0954 13.5439C89.3256 13.5439 88.6678 13.2759 88.1221 12.74C87.5862 12.1943 87.3182 11.3904 87.3182 10.3282V5.50473H89.7299V9.96281C89.7299 10.4013 89.8371 10.7424 90.0515 10.986C90.2659 11.2296 90.5728 11.3514 90.9724 11.3514C91.3427 11.3514 91.6399 11.2296 91.864 10.986C92.0978 10.7326 92.2148 10.3916 92.2148 9.96281V5.50473H94.6265V13.3977H92.5071L92.2879 12.5938H92.2148C91.6593 13.2272 90.9529 13.5439 90.0954 13.5439Z" fill="white"/>
<path d="M98.7097 10.8837C98.9923 11.1955 99.3626 11.3514 99.8206 11.3514C100.279 11.3514 100.649 11.1955 100.931 10.8837C101.214 10.5621 101.355 10.0846 101.355 9.45122C101.355 8.81783 101.214 8.34523 100.931 8.03341C100.649 7.71184 100.279 7.55106 99.8206 7.55106C99.3626 7.55106 98.9923 7.71184 98.7097 8.03341C98.4271 8.34523 98.2858 8.81783 98.2858 9.45122C98.2858 10.0846 98.4271 10.5621 98.7097 10.8837ZM99.309 13.5439C98.2566 13.5439 97.4186 13.1931 96.7949 12.4915C96.181 11.7899 95.8741 10.7765 95.8741 9.45122C95.8741 8.12598 96.181 7.11256 96.7949 6.41096C97.4186 5.70936 98.2566 5.35856 99.309 5.35856C100.157 5.35856 100.815 5.65089 101.282 6.23556H101.355V3.16606H103.767V13.3977H101.648L101.428 12.5938H101.355C100.829 13.2272 100.147 13.5439 99.309 13.5439Z" fill="white"/>
<path d="M105.446 13.3977V5.50473H107.858V13.3977H105.446ZM107.624 4.55464C107.381 4.79825 107.054 4.92006 106.645 4.92006C106.236 4.92006 105.909 4.79825 105.666 4.55464C105.422 4.30129 105.3 3.98459 105.3 3.60456C105.3 3.22453 105.422 2.91271 105.666 2.6691C105.909 2.41574 106.236 2.28906 106.645 2.28906C107.054 2.28906 107.381 2.41574 107.624 2.6691C107.878 2.91271 108.004 3.22453 108.004 3.60456C108.004 3.98459 107.878 4.30129 107.624 4.55464Z" fill="white"/>
<path d="M115.961 12.4769C115.269 13.1882 114.3 13.5439 113.053 13.5439C111.805 13.5439 110.836 13.1882 110.144 12.4769C109.452 11.7655 109.106 10.757 109.106 9.45122C109.106 8.14547 109.452 7.13692 110.144 6.42557C110.836 5.71423 111.805 5.35856 113.053 5.35856C114.3 5.35856 115.269 5.71423 115.961 6.42557C116.653 7.13692 116.999 8.14547 116.999 9.45122C116.999 10.757 116.653 11.7655 115.961 12.4769ZM111.942 10.8837C112.224 11.1955 112.595 11.3514 113.053 11.3514C113.511 11.3514 113.881 11.1955 114.164 10.8837C114.446 10.5621 114.587 10.0846 114.587 9.45122C114.587 8.81783 114.446 8.34523 114.164 8.03341C113.881 7.71184 113.511 7.55106 113.053 7.55106C112.595 7.55106 112.224 7.71184 111.942 8.03341C111.659 8.34523 111.518 8.81783 111.518 9.45122C111.518 10.0846 111.659 10.5621 111.942 10.8837Z" fill="white"/>
<path d="M117.331 21.5H118.145L115.137 29.75H114.317L115.318 27L113.344 21.5H114.185L115.703 25.9385L117.331 21.5Z" fill="#FFF5F5"/>
<path d="M111.908 22.2704H110.594L110.588 27.0004H109.818L109.824 22.2704H108.828V21.5004H109.824L109.818 19.7734H110.588L110.594 21.5004H111.908V22.2704Z" fill="#FFF5F5"/>
<path d="M106.233 21.5034H107.003V27.0034H106.233V21.5034ZM106.623 20.5409C106.499 20.5409 106.392 20.5005 106.304 20.4199C106.22 20.3355 106.178 20.231 106.178 20.1064C106.178 19.9817 106.22 19.879 106.304 19.7984C106.392 19.714 106.499 19.6719 106.623 19.6719C106.744 19.6719 106.847 19.714 106.931 19.7984C107.019 19.879 107.063 19.9817 107.063 20.1064C107.063 20.231 107.021 20.3355 106.937 20.4199C106.852 20.5005 106.748 20.5409 106.623 20.5409Z" fill="#FFF5F5"/>
<path d="M103.369 27V18.75H104.139V27H103.369Z" fill="#FFF5F5"/>
<path d="M100.654 21.4977H101.424V26.9977H100.654L100.626 25.9748C100.447 26.3231 100.195 26.6054 99.8727 26.8218C99.5501 27.0344 99.1651 27.1407 98.7177 27.1407C98.3144 27.1407 97.9367 27.0656 97.5847 26.9152C97.2327 26.7612 96.9229 26.5504 96.6552 26.2827C96.3876 26.0151 96.1786 25.7053 96.0282 25.3533C95.8779 25.0013 95.8027 24.6236 95.8027 24.2202C95.8027 23.8242 95.8761 23.4521 96.0227 23.1037C96.1731 22.7554 96.3784 22.4492 96.6387 22.1852C96.9027 21.9212 97.2071 21.7159 97.5517 21.5692C97.9001 21.4189 98.2722 21.3438 98.6682 21.3438C99.1266 21.3438 99.5262 21.4537 99.8672 21.6737C100.208 21.8901 100.48 22.1742 100.681 22.5262L100.654 21.4977ZM98.7012 26.3927C99.0936 26.3927 99.4309 26.2974 99.7132 26.1068C99.9956 25.9124 100.212 25.6521 100.362 25.3257C100.516 24.9994 100.593 24.6401 100.593 24.2477C100.593 23.8444 100.516 23.4814 100.362 23.1587C100.208 22.8324 99.9901 22.5739 99.7077 22.3832C99.4254 22.1926 99.0899 22.0972 98.7012 22.0972C98.3126 22.0972 97.9569 22.1944 97.6342 22.3887C97.3152 22.5794 97.0604 22.8379 96.8697 23.1642C96.6827 23.4906 96.5892 23.8517 96.5892 24.2477C96.5892 24.6474 96.6864 25.0104 96.8807 25.3367C97.0751 25.6594 97.3317 25.9161 97.6507 26.1068C97.9734 26.2974 98.3236 26.3927 98.7012 26.3927Z" fill="#FFF5F5"/>
<path d="M91.7441 27.1407C91.2381 27.1407 90.7761 27.0106 90.3581 26.7502C89.9438 26.4899 89.612 26.1416 89.3626 25.7052C89.117 25.2652 88.9941 24.7794 88.9941 24.2477C88.9941 23.8444 89.0656 23.4686 89.2086 23.1202C89.3516 22.7682 89.5478 22.4602 89.7971 22.1962C90.0501 21.9286 90.3435 21.7196 90.6771 21.5692C91.0108 21.4189 91.3665 21.3438 91.7441 21.3438C92.1511 21.3438 92.5251 21.4244 92.8661 21.5857C93.2108 21.7471 93.506 21.9726 93.7516 22.2622C94.001 22.5519 94.188 22.8911 94.3126 23.2797C94.441 23.6684 94.4941 24.0882 94.4721 24.5392H89.8081C89.8521 24.8876 89.9621 25.1992 90.1381 25.4742C90.3178 25.7492 90.5451 25.9674 90.8201 26.1287C91.0988 26.2864 91.4068 26.3671 91.7441 26.3707C92.1108 26.3707 92.4408 26.2754 92.7341 26.0847C93.0311 25.8941 93.2695 25.6319 93.4491 25.2982L94.2301 25.4798C94.0101 25.9674 93.6783 26.3671 93.2346 26.6787C92.791 26.9867 92.2941 27.1407 91.7441 27.1407ZM89.7861 23.9177H93.6966C93.671 23.5767 93.5665 23.2651 93.3831 22.9827C93.2035 22.6967 92.9706 22.4694 92.6846 22.3007C92.3986 22.1284 92.0851 22.0422 91.7441 22.0422C91.4031 22.0422 91.0915 22.1266 90.8091 22.2952C90.5268 22.4602 90.2958 22.6857 90.1161 22.9717C89.9365 23.2541 89.8265 23.5694 89.7861 23.9177Z" fill="#FFF5F5"/>
<path d="M84.9883 26.9977V21.4977H85.7583V22.2567C85.9526 21.9781 86.2056 21.7562 86.5173 21.5912C86.8289 21.4262 87.1681 21.3438 87.5348 21.3438C87.7474 21.3438 87.9528 21.3713 88.1508 21.4262L87.8373 22.1907C87.6833 22.1431 87.5329 22.1192 87.3863 22.1192C87.0893 22.1192 86.8161 22.1926 86.5668 22.3392C86.3211 22.4859 86.1249 22.6821 85.9783 22.9277C85.8316 23.1734 85.7583 23.4466 85.7583 23.7472V26.9977H84.9883Z" fill="#FFF5F5"/>
<path d="M77.0703 27.1407C76.5643 27.1407 76.1023 27.0106 75.6843 26.7502C75.27 26.4899 74.9381 26.1416 74.6888 25.7052C74.4431 25.2652 74.3203 24.7794 74.3203 24.2477C74.3203 23.8444 74.3918 23.4686 74.5348 23.1202C74.6778 22.7682 74.874 22.4602 75.1233 22.1962C75.3763 21.9286 75.6696 21.7196 76.0033 21.5692C76.337 21.4189 76.6926 21.3438 77.0703 21.3438C77.5763 21.3438 78.0365 21.4739 78.4508 21.7342C78.8688 21.9946 79.2006 22.3447 79.4463 22.7847C79.6956 23.2247 79.8203 23.7124 79.8203 24.2477C79.8203 24.6474 79.7488 25.0214 79.6058 25.3697C79.4628 25.7181 79.2648 26.0261 79.0118 26.2937C78.7625 26.5577 78.471 26.7649 78.1373 26.9152C77.8073 27.0656 77.4516 27.1407 77.0703 27.1407ZM77.0703 26.3707C77.4443 26.3707 77.7798 26.2736 78.0768 26.0792C78.3775 25.8812 78.614 25.6209 78.7863 25.2982C78.9623 24.9756 79.0503 24.6254 79.0503 24.2477C79.0503 23.8627 78.9623 23.5089 78.7863 23.1862C78.6103 22.8599 78.372 22.5996 78.0713 22.4052C77.7743 22.2109 77.4406 22.1137 77.0703 22.1137C76.6963 22.1137 76.359 22.2127 76.0583 22.4107C75.7613 22.6051 75.5248 22.8636 75.3488 23.1862C75.1765 23.5089 75.0903 23.8627 75.0903 24.2477C75.0903 24.6437 75.1801 25.0031 75.3598 25.3257C75.5395 25.6447 75.7796 25.8996 76.0803 26.0902C76.381 26.2772 76.711 26.3707 77.0703 26.3707Z" fill="#FFF5F5"/>
<path d="M73.0487 22.2704H71.7342L71.7287 27.0004H70.9587L70.9642 22.2704H69.9688V21.5004H70.9642L70.9587 19.7734H71.7287L71.7342 21.5004H73.0487V22.2704Z" fill="#FFF5F5"/>
<path d="M68.3683 23.5932V26.9977H67.5983V23.7472C67.5983 23.4466 67.5249 23.1734 67.3783 22.9277C67.2316 22.6821 67.0354 22.4859 66.7898 22.3392C66.5441 22.1926 66.2709 22.1192 65.9703 22.1192C65.6733 22.1192 65.4001 22.1926 65.1508 22.3392C64.9051 22.4859 64.7089 22.6821 64.5623 22.9277C64.4156 23.1734 64.3423 23.4466 64.3423 23.7472V26.9977H63.5723V21.4977H64.3423V22.2567C64.5366 21.9781 64.7896 21.7562 65.1013 21.5912C65.4129 21.4262 65.7521 21.3438 66.1188 21.3438C66.5331 21.3438 66.9108 21.4446 67.2518 21.6462C67.5928 21.8479 67.8641 22.1192 68.0658 22.4602C68.2674 22.8012 68.3683 23.1789 68.3683 23.5932Z" fill="#FFF5F5"/>
<path d="M60.7288 21.5034H61.4988V27.0034H60.7288V21.5034ZM61.1193 20.5409C60.9947 20.5409 60.8883 20.5005 60.8003 20.4199C60.716 20.3355 60.6738 20.231 60.6738 20.1064C60.6738 19.9817 60.716 19.879 60.8003 19.7984C60.8883 19.714 60.9947 19.6719 61.1193 19.6719C61.2403 19.6719 61.343 19.714 61.4273 19.7984C61.5153 19.879 61.5593 19.9817 61.5593 20.1064C61.5593 20.231 61.5172 20.3355 61.4328 20.4199C61.3485 20.5005 61.244 20.5409 61.1193 20.5409Z" fill="#FFF5F5"/>
<path d="M53.5181 27.104C53.2174 27.0967 52.9241 27.0417 52.6381 26.939C52.3521 26.8363 52.1028 26.697 51.8901 26.521C51.6774 26.345 51.5253 26.1452 51.4336 25.9215L52.0991 25.6355C52.1578 25.7785 52.2659 25.9105 52.4236 26.0315C52.5849 26.1488 52.7683 26.2442 52.9736 26.3175C53.1789 26.3872 53.3824 26.422 53.5841 26.422C53.8078 26.422 54.0168 26.3853 54.2111 26.312C54.4054 26.2387 54.5631 26.1342 54.6841 25.9985C54.8088 25.8592 54.8711 25.696 54.8711 25.509C54.8711 25.3073 54.8051 25.1497 54.6731 25.036C54.5411 24.9187 54.3743 24.827 54.1726 24.761C53.9709 24.6913 53.7638 24.6253 53.5511 24.563C53.1624 24.4567 52.8196 24.3393 52.5226 24.211C52.2256 24.0827 51.9928 23.9195 51.8241 23.7215C51.6591 23.5198 51.5766 23.2613 51.5766 22.946C51.5766 22.6123 51.6701 22.3245 51.8571 22.0825C52.0478 21.8368 52.2953 21.648 52.5996 21.516C52.9076 21.3803 53.2358 21.3125 53.5841 21.3125C54.0314 21.3125 54.4384 21.4097 54.8051 21.604C55.1754 21.7983 55.4431 22.0568 55.6081 22.3795L54.9866 22.748C54.9206 22.5977 54.8161 22.4675 54.6731 22.3575C54.5301 22.2475 54.3669 22.1613 54.1836 22.099C54.0039 22.0367 53.8206 22.0037 53.6336 22C53.3989 21.9963 53.1808 22.0312 52.9791 22.1045C52.7774 22.1742 52.6143 22.2787 52.4896 22.418C52.3686 22.5573 52.3081 22.7278 52.3081 22.9295C52.3081 23.1312 52.3686 23.2852 52.4896 23.3915C52.6106 23.4942 52.7738 23.5785 52.9791 23.6445C53.1881 23.7068 53.4228 23.7802 53.6831 23.8645C54.0168 23.9708 54.3303 24.0918 54.6236 24.2275C54.9169 24.3632 55.1534 24.5318 55.3331 24.7335C55.5128 24.9352 55.6008 25.19 55.5971 25.498C55.5971 25.828 55.4981 26.1158 55.3001 26.3615C55.1021 26.6072 54.8454 26.796 54.5301 26.928C54.2148 27.0563 53.8774 27.115 53.5181 27.104Z" fill="#FFF5F5"/>
<path d="M49.1791 21.4977H49.9491V26.9977H49.1791L49.1516 25.9748C48.972 26.3231 48.7208 26.6054 48.3981 26.8218C48.0755 27.0344 47.6905 27.1407 47.2431 27.1407C46.8398 27.1407 46.4621 27.0656 46.1101 26.9152C45.7581 26.7612 45.4483 26.5504 45.1806 26.2827C44.913 26.0151 44.704 25.7053 44.5536 25.3533C44.4033 25.0013 44.3281 24.6236 44.3281 24.2202C44.3281 23.8242 44.4015 23.4521 44.5481 23.1037C44.6985 22.7554 44.9038 22.4492 45.1641 22.1852C45.4281 21.9212 45.7325 21.7159 46.0771 21.5692C46.4255 21.4189 46.7976 21.3438 47.1936 21.3438C47.652 21.3438 48.0516 21.4537 48.3926 21.6737C48.7336 21.8901 49.005 22.1742 49.2066 22.5262L49.1791 21.4977ZM47.2266 26.3927C47.619 26.3927 47.9563 26.2974 48.2386 26.1068C48.521 25.9124 48.7373 25.6521 48.8876 25.3257C49.0416 24.9994 49.1186 24.6401 49.1186 24.2477C49.1186 23.8444 49.0416 23.4814 48.8876 23.1587C48.7336 22.8324 48.5155 22.5739 48.2331 22.3832C47.9508 22.1926 47.6153 22.0972 47.2266 22.0972C46.838 22.0972 46.4823 22.1944 46.1596 22.3887C45.8406 22.5794 45.5858 22.8379 45.3951 23.1642C45.2081 23.4906 45.1146 23.8517 45.1146 24.2477C45.1146 24.6474 45.2118 25.0104 45.4061 25.3367C45.6005 25.6594 45.8571 25.9161 46.1761 26.1068C46.4988 26.2974 46.849 26.3927 47.2266 26.3927Z" fill="#FFF5F5"/>
<path d="M40.2695 27.1407C39.7635 27.1407 39.3015 27.0106 38.8835 26.7502C38.4692 26.4899 38.1374 26.1416 37.888 25.7052C37.6424 25.2652 37.5195 24.7794 37.5195 24.2477C37.5195 23.8444 37.591 23.4686 37.734 23.1202C37.877 22.7682 38.0732 22.4602 38.3225 22.1962C38.5755 21.9286 38.8689 21.7196 39.2025 21.5692C39.5362 21.4189 39.8919 21.3438 40.2695 21.3438C40.6765 21.3438 41.0505 21.4244 41.3915 21.5857C41.7362 21.7471 42.0314 21.9726 42.277 22.2622C42.5264 22.5519 42.7134 22.8911 42.838 23.2797C42.9664 23.6684 43.0195 24.0882 42.9975 24.5392H38.3335C38.3775 24.8876 38.4875 25.1992 38.6635 25.4742C38.8432 25.7492 39.0705 25.9674 39.3455 26.1287C39.6242 26.2864 39.9322 26.3671 40.2695 26.3707C40.6362 26.3707 40.9662 26.2754 41.2595 26.0847C41.5565 25.8941 41.7949 25.6319 41.9745 25.2982L42.7555 25.4798C42.5355 25.9674 42.2037 26.3671 41.76 26.6787C41.3164 26.9867 40.8195 27.1407 40.2695 27.1407ZM38.3115 23.9177H42.222C42.1964 23.5767 42.0919 23.2651 41.9085 22.9827C41.7289 22.6967 41.496 22.4694 41.21 22.3007C40.924 22.1284 40.6105 22.0422 40.2695 22.0422C39.9285 22.0422 39.6169 22.1266 39.3345 22.2952C39.0522 22.4602 38.8212 22.6857 38.6415 22.9717C38.4619 23.2541 38.3519 23.5694 38.3115 23.9177Z" fill="#FFF5F5"/>
<path d="M35.0323 18.75H35.8023V27H35.0323V25.9715C34.8416 26.3235 34.5794 26.6077 34.2458 26.824C33.9158 27.0367 33.5234 27.143 33.0688 27.143C32.6691 27.143 32.2951 27.0678 31.9468 26.9175C31.5984 26.7672 31.2904 26.56 31.0228 26.296C30.7588 26.0283 30.5516 25.7203 30.4013 25.372C30.2509 25.0237 30.1758 24.6497 30.1758 24.25C30.1758 23.8503 30.2509 23.4763 30.4013 23.128C30.5516 22.776 30.7588 22.468 31.0228 22.204C31.2904 21.9363 31.5984 21.7273 31.9468 21.577C32.2951 21.4267 32.6691 21.3515 33.0688 21.3515C33.5234 21.3515 33.9158 21.4597 34.2458 21.676C34.5794 21.8887 34.8416 22.1692 35.0323 22.5175V18.75ZM33.0743 26.395C33.4666 26.395 33.8039 26.2997 34.0863 26.109C34.3686 25.9147 34.5849 25.6543 34.7353 25.328C34.8893 25.0017 34.9663 24.6423 34.9663 24.25C34.9663 23.8467 34.8893 23.4837 34.7353 23.161C34.5813 22.8347 34.3631 22.5762 34.0808 22.3855C33.7984 22.1948 33.4629 22.0995 33.0743 22.0995C32.6856 22.0995 32.3318 22.1967 32.0128 22.391C31.6938 22.5817 31.4389 22.8402 31.2483 23.1665C31.0576 23.4928 30.9623 23.854 30.9623 24.25C30.9623 24.6497 31.0594 25.0127 31.2538 25.339C31.4481 25.6617 31.7048 25.9183 32.0238 26.109C32.3464 26.2997 32.6966 26.395 33.0743 26.395Z" fill="#FFF5F5"/>
<path d="M27.6956 21.5034H28.4656V27.0034H27.6956V21.5034ZM28.0861 20.5409C27.9615 20.5409 27.8551 20.5005 27.7671 20.4199C27.6828 20.3355 27.6406 20.231 27.6406 20.1064C27.6406 19.9817 27.6828 19.879 27.7671 19.7984C27.8551 19.714 27.9615 19.6719 28.0861 19.6719C28.2071 19.6719 28.3098 19.714 28.3941 19.7984C28.4821 19.879 28.5261 19.9817 28.5261 20.1064C28.5261 20.231 28.484 20.3355 28.3996 20.4199C28.3153 20.5005 28.2108 20.5409 28.0861 20.5409Z" fill="#FFF5F5"/>
<path d="M19.6225 21.346C20.1579 21.346 20.6437 21.4762 21.08 21.7365C21.52 21.9968 21.8702 22.347 22.1305 22.787C22.3909 23.2233 22.521 23.7092 22.521 24.2445C22.521 24.6442 22.4459 25.02 22.2955 25.372C22.1452 25.7203 21.9362 26.0283 21.6685 26.296C21.4045 26.56 21.0965 26.7672 20.7445 26.9175C20.3962 27.0678 20.0222 27.143 19.6225 27.143C19.1679 27.143 18.7755 27.0348 18.4455 26.8185C18.1155 26.6022 17.8552 26.3198 17.6645 25.9715V27H16.8945V18.75H17.6645V22.5175C17.8552 22.1692 18.1155 21.8868 18.4455 21.6705C18.7755 21.4542 19.1679 21.346 19.6225 21.346ZM19.617 26.3895C20.0094 26.3895 20.365 26.2942 20.684 26.1035C21.003 25.9092 21.2579 25.6488 21.4485 25.3225C21.6392 24.9962 21.7345 24.6368 21.7345 24.2445C21.7345 23.8412 21.6374 23.4782 21.443 23.1555C21.2487 22.8292 20.9902 22.5707 20.6675 22.38C20.3485 22.1893 19.9984 22.094 19.617 22.094C19.2284 22.094 18.891 22.1912 18.605 22.3855C18.3227 22.5798 18.1045 22.8402 17.9505 23.1665C17.8002 23.4928 17.725 23.8522 17.725 24.2445C17.725 24.6442 17.802 25.0072 17.956 25.3335C18.11 25.6562 18.3282 25.9128 18.6105 26.1035C18.8965 26.2942 19.232 26.3895 19.617 26.3895Z" fill="#FFF5F5"/>
<path d="M12.498 27.1407C11.992 27.1407 11.53 27.0106 11.112 26.7502C10.6977 26.4899 10.3659 26.1416 10.1165 25.7052C9.87088 25.2652 9.74805 24.7794 9.74805 24.2477C9.74805 23.8444 9.81955 23.4686 9.96255 23.1202C10.1055 22.7682 10.3017 22.4602 10.551 22.1962C10.804 21.9286 11.0974 21.7196 11.431 21.5692C11.7647 21.4189 12.1204 21.3438 12.498 21.3438C12.905 21.3438 13.279 21.4244 13.62 21.5857C13.9647 21.7471 14.2599 21.9726 14.5055 22.2622C14.7549 22.5519 14.9419 22.8911 15.0665 23.2797C15.1949 23.6684 15.248 24.0882 15.226 24.5392H10.562C10.606 24.8876 10.716 25.1992 10.892 25.4742C11.0717 25.7492 11.299 25.9674 11.574 26.1287C11.8527 26.2864 12.1607 26.3671 12.498 26.3707C12.8647 26.3707 13.1947 26.2754 13.488 26.0847C13.785 25.8941 14.0234 25.6319 14.203 25.2982L14.984 25.4798C14.764 25.9674 14.4322 26.3671 13.9885 26.6787C13.5449 26.9867 13.048 27.1407 12.498 27.1407ZM10.54 23.9177H14.4505C14.4249 23.5767 14.3204 23.2651 14.137 22.9827C13.9574 22.6967 13.7245 22.4694 13.4385 22.3007C13.1525 22.1284 12.839 22.0422 12.498 22.0422C12.157 22.0422 11.8454 22.1266 11.563 22.2952C11.2807 22.4602 11.0497 22.6857 10.87 22.9717C10.6904 23.2541 10.5804 23.5694 10.54 23.9177Z" fill="#FFF5F5"/>
<path d="M2.96458 27H2.17258L0.330078 21.5H1.08358L2.57958 25.933L4.06458 21.5H4.87858L6.36358 25.933L7.84858 21.5H8.60758L6.76508 27H5.96758L4.46058 22.523L2.96458 27Z" fill="#FFF5F5"/>
</svg>
