<svg width="120" height="36" viewBox="0 0 120 36" fill="none" xmlns="http://www.w3.org/2000/svg">
<path d="M105.531 26.8V10H109.107L115.659 20.812V10H118.971V26.8H115.395L108.843 15.988V26.8H105.531Z" fill="black"/>
<path d="M98.9766 26.8V10H102.289V26.8H98.9766Z" fill="black"/>
<path d="M86.7952 10H90.5632L96.6592 26.8H93.1432L92.1352 24.016H85.2232L84.2152 26.8H80.6992L86.7952 10ZM86.4352 20.704H90.9232L88.6672 14.548L86.4352 20.704Z" fill="black"/>
<path d="M67.0234 26.8V10H73.6954C74.6074 10 75.4314 10.232 76.1674 10.696C76.9114 11.152 77.4994 11.768 77.9314 12.544C78.3714 13.312 78.5914 14.164 78.5914 15.1C78.5914 15.836 78.4634 16.52 78.2074 17.152C77.9514 17.776 77.5914 18.324 77.1274 18.796C76.6634 19.268 76.1234 19.636 75.5074 19.9L79.5034 26.8H75.6874L71.8594 20.2H70.3354V26.8H67.0234ZM70.3354 16.888H73.2994C73.6594 16.888 73.9874 16.8 74.2834 16.624C74.5874 16.44 74.8274 16.196 75.0034 15.892C75.1874 15.58 75.2794 15.236 75.2794 14.86C75.2794 14.492 75.1874 14.156 75.0034 13.852C74.8274 13.54 74.5874 13.292 74.2834 13.108C73.9874 12.924 73.6594 12.832 73.2994 12.832H70.3354V16.888Z" fill="black"/>
<path d="M53.2656 26.8V10H59.5176C60.4216 10 61.2416 10.188 61.9776 10.564C62.7136 10.932 63.2936 11.46 63.7176 12.148C64.1496 12.836 64.3656 13.644 64.3656 14.572C64.3656 14.948 64.3136 15.336 64.2096 15.736C64.1136 16.136 63.9456 16.504 63.7056 16.84C63.4736 17.176 63.1536 17.432 62.7456 17.608C63.2736 17.736 63.6976 17.976 64.0176 18.328C64.3376 18.672 64.5816 19.072 64.7496 19.528C64.9176 19.976 65.0296 20.436 65.0856 20.908C65.1416 21.38 65.1696 21.808 65.1696 22.192C65.1696 23.056 64.9456 23.836 64.4976 24.532C64.0496 25.228 63.4456 25.78 62.6856 26.188C61.9336 26.596 61.1016 26.8 60.1896 26.8H53.2656ZM56.5776 23.98H59.8416C60.2816 23.98 60.6816 23.876 61.0416 23.668C61.4016 23.452 61.6896 23.16 61.9056 22.792C62.1216 22.416 62.2296 21.992 62.2296 21.52C62.2296 21.12 62.1216 20.74 61.9056 20.38C61.6896 20.02 61.4016 19.728 61.0416 19.504C60.6816 19.272 60.2816 19.156 59.8416 19.156H56.5776V23.98ZM56.5776 16.396H59.1336C59.6616 16.396 60.1136 16.224 60.4896 15.88C60.8656 15.536 61.0536 15.092 61.0536 14.548C61.0536 13.988 60.8656 13.564 60.4896 13.276C60.1136 12.98 59.6616 12.832 59.1336 12.832H56.5776V16.396Z" fill="black"/>
<path d="M34.5616 26.8L30.2656 10H33.6856L36.4216 20.74L39.1576 10H42.1936L44.9296 20.74L47.6656 10H51.0856L46.8136 26.8H43.0696L40.6816 17.464L38.3056 26.8H34.5616Z" fill="black"/>
<path d="M17.3125 26.8V10H27.9445V13.312H20.6245V16.144H26.3365V19.456H20.6245V23.488H27.9445V26.8H17.3125Z" fill="black"/>
<path d="M1 26.8V10H4.576L11.128 20.812V10H14.44V26.8H10.864L4.312 15.988V26.8H1Z" fill="black"/>
</svg>
