<svg width="730" height="403" viewBox="0 0 730 403" fill="none" xmlns="http://www.w3.org/2000/svg">
<path fill-rule="evenodd" clip-rule="evenodd" d="M665.855 658.4C665.071 661.369 662.734 663.673 659.752 664.403C658.403 664.731 656.975 664.717 655.626 664.36L649.25 662.666C648.122 663.87 646.656 664.749 645.014 665.152C643.504 665.518 641.922 665.469 640.427 665.005L634.758 663.243C633.588 664.54 632.042 665.479 630.283 665.911L630.289 665.91C628.614 666.32 626.866 666.232 625.234 665.655L620.213 663.874C618.997 665.245 617.379 666.239 615.556 666.685L615.557 666.69C613.716 667.139 611.808 667.008 610.036 666.305L605.65 664.564C604.4 665.987 602.736 667.004 600.836 667.469C598.819 667.963 596.748 667.783 594.842 666.95L591.051 665.291C589.762 666.745 588.053 667.789 586.113 668.264C583.955 668.792 581.662 668.558 579.649 667.599L576.429 666.063C575.104 667.534 573.358 668.591 571.397 669.069C569.069 669.641 566.606 669.349 564.462 668.247L561.781 666.867C560.424 668.336 558.651 669.394 556.677 669.88C554.167 670.494 551.54 670.142 549.273 668.891L547.122 667.704C545.741 669.166 543.968 670.202 541.963 670.695L541.968 670.694C539.277 671.355 536.476 670.945 534.086 669.539L532.435 668.57C531.03 670.008 529.25 671.029 527.251 671.52C524.378 672.223 521.412 671.748 518.898 670.188L517.729 669.461C516.302 670.864 514.521 671.864 512.541 672.351C509.527 673.088 506.307 672.538 503.71 670.836L503.003 670.373C501.561 671.735 499.785 672.71 497.831 673.187C494.631 673.972 491.238 673.348 488.528 671.483L488.258 671.298C486.805 672.614 485.04 673.559 483.117 674.03L483.116 674.025C479.796 674.841 476.299 674.187 473.494 672.24C472.038 673.5 470.295 674.41 468.409 674.871C465.07 675.689 461.583 675.074 458.739 673.185C457.288 674.399 455.583 675.264 453.702 675.723C450.339 676.544 446.859 675.965 443.973 674.13C442.523 675.293 440.839 676.124 438.996 676.575L439.002 676.579C435.612 677.408 432.131 676.858 429.211 675.076C427.765 676.193 426.101 676.995 424.291 677.437L424.29 677.432C420.935 678.256 417.394 677.721 414.447 676.011C413.003 677.082 411.359 677.857 409.586 678.294L409.587 678.299C406.211 679.122 402.665 678.618 399.68 676.952C398.244 677.983 396.623 678.731 394.881 679.156C391.48 679.991 387.936 679.512 384.919 677.889C383.49 678.882 381.889 679.606 380.178 680.024L380.179 680.029C376.753 680.867 373.199 680.412 370.149 678.828C368.73 679.782 367.152 680.481 365.475 680.891C362.025 681.736 358.465 681.31 355.385 679.767C353.976 680.686 352.417 681.364 350.768 681.77L350.773 681.769C345.716 683.005 340.463 681.587 336.714 677.977L4.82543 358.451C1.91822 355.653 0.265129 351.886 0.183437 347.845C0.0966201 343.804 1.58614 339.978 4.37847 337.066L322.739 4.78987C324.725 2.71897 327.243 1.2657 330.017 0.582644C335.067 -0.657426 340.326 0.758996 344.075 4.36902L675.963 323.895C677.638 325.507 678.894 327.439 679.675 329.561C680.664 330.804 681.437 332.187 681.975 333.663C682.978 334.918 683.744 336.308 684.269 337.768C685.272 339.004 686.051 340.391 686.58 341.879C687.583 343.105 688.36 344.487 688.883 345.972C689.901 347.205 690.668 348.589 691.178 350.05C692.208 351.276 692.998 352.675 693.513 354.19C694.526 355.387 695.301 356.759 695.806 358.246C696.844 359.452 697.633 360.847 698.136 362.363C699.168 363.553 699.951 364.935 700.445 366.443C701.506 367.649 702.286 369.045 702.767 370.53C703.835 371.727 704.618 373.123 705.094 374.611C706.157 375.78 706.955 377.17 707.434 378.706C708.514 379.883 709.299 381.276 709.76 382.766C710.841 383.914 711.649 385.304 712.117 386.857C713.147 387.937 713.926 389.244 714.396 390.707C714.421 390.785 714.445 390.862 714.468 390.94C715.577 392.089 716.376 393.488 716.816 394.996C717.941 396.137 718.749 397.541 719.182 399.06C720.318 400.189 721.133 401.594 721.558 403.119C722.702 404.235 723.522 405.639 723.939 407.167C725.092 408.269 725.919 409.671 726.33 411.205C728.521 413.25 729.551 416.407 728.737 419.501L665.855 658.4ZM726.624 413.424C727.7 415.07 728.104 417.149 727.566 419.196L664.683 658.085C664.015 660.627 662.014 662.598 659.462 663.22C658.311 663.504 657.09 663.492 655.935 663.183L650.083 661.629C650.562 660.928 650.94 660.153 651.196 659.325L726.24 415.979C726.502 415.13 726.626 414.27 726.624 413.424ZM648.841 661.299C649.366 660.612 649.775 659.825 650.041 658.962L725.093 415.626C725.48 414.364 725.515 413.076 725.253 411.869C724.902 411.572 724.521 411.307 724.113 411.079C724.03 411.54 723.909 412 723.749 412.456L637.248 658.22L648.841 661.299ZM647.905 662.309C647.019 663.101 645.936 663.677 644.725 663.975C643.429 664.293 642.066 664.249 640.779 663.853L635.548 662.226C635.953 661.617 636.286 660.953 636.536 660.243L636.843 659.37L647.905 662.309ZM635.674 659.06L635.4 659.839C635.143 660.569 634.783 661.245 634.338 661.85L622.994 658.322L623.932 655.941L635.674 659.06ZM622.762 655.63L621.842 657.964L610.536 654.448L611.341 652.596L622.762 655.63ZM611.831 651.469L623.21 654.492L719.665 409.672L717.195 409.016L611.831 651.469ZM610.161 652.282L609.377 654.087L598.403 650.674L599.04 649.328L610.161 652.282ZM599.569 648.212L610.65 651.156L716.012 408.701L713.371 408L599.569 648.212ZM597.852 649.012L597.237 650.312L586.563 646.992L587.004 646.13L597.852 649.012ZM587.569 645.025L598.381 647.897L712.183 407.684L709.38 406.94L587.569 645.025ZM585.81 645.813L585.393 646.628L574.998 643.395L575.215 642.999L585.81 645.813ZM575.816 641.904L586.375 644.708L708.186 406.623L705.241 405.84L575.816 641.904ZM574.013 642.68L573.821 643.029L564.98 640.28L574.013 642.68ZM564.288 638.842L574.614 641.584L704.036 405.52L700.958 404.703L564.288 638.842ZM552.975 635.837L563.08 638.521L699.753 404.383L696.545 403.531L552.975 635.837ZM541.864 632.886L551.759 635.514L695.322 403.206L692.014 402.327L541.864 632.886ZM537.35 631.687L540.631 632.559L690.778 401.999L687.362 401.092L531.093 629.741L537.35 631.687ZM503.388 622.667L505.989 623.358L502.362 622.071L500.167 621.389L503.388 622.667ZM502.935 623.798L498.306 622.568L497.838 623.174L506.18 626.824L507.18 625.483L502.935 623.798ZM518.162 627.843L512.921 626.45L517.779 628.379L518.162 627.843ZM520.038 628.341L519.413 628.175L518.939 628.839L527.831 632.368L528.526 631.352L520.038 628.341ZM537.096 632.873L534.438 632.166L539.677 634.025L539.866 633.734L537.096 632.873ZM497.04 622.232L493.593 621.316L496.697 622.675L497.04 622.232ZM488.802 618.793L493.407 620.016L489.17 618.334L488.802 618.793ZM486.323 618.135L487.523 618.453L487.994 617.868L484.917 616.646L479.547 614.976L479.429 615.118L486.323 618.135ZM485.893 619.27L486.614 619.586L485.278 621.249L477.441 617.512L477.772 617.113L485.893 619.27ZM476.483 616.771L476.315 616.974L475.14 616.414L476.483 616.771ZM469.228 613.594L477.334 615.747L477.469 615.584L469.648 612.162L468.654 613.321L469.228 613.594ZM468.79 614.727L467.697 614.437L466.139 616.254L473.685 620.14L475.516 617.935L468.79 614.727ZM466.394 614.091L457.734 611.79L457.652 611.883L465.029 615.682L466.394 614.091ZM458.628 610.779L462.879 611.908L459.187 610.147L458.628 610.779ZM452.183 609.067L457.319 610.431L458.05 609.605L450.687 606.093L449.322 607.594L452.183 609.067ZM451.734 610.196L447.886 609.174L446.43 610.775L453.546 614.701L455.715 612.247L451.734 610.196ZM446.57 608.824L439.48 606.941L445.342 610.175L446.57 608.824ZM439.076 605.586L446.728 607.618L440.28 604.298L439.076 605.586ZM435.12 604.535L437.752 605.234L439.164 603.723L432.769 600.43L432.136 600.233L430.471 601.971L435.12 604.535ZM434.666 605.662L436.439 606.64L433.936 609.32L427.212 605.372L428.503 604.025L434.666 605.662ZM429.455 603.031L430.306 603.257L429.608 602.872L429.455 603.031ZM427.164 603.669L426.138 604.741L421.959 602.287L427.164 603.669ZM418.083 600.01L428.117 602.675L428.509 602.266L415.382 595.023L412.281 594.059C412.491 595.346 413.047 596.549 413.874 597.539L418.083 600.01ZM417.599 601.128L417.219 601.027C415.564 600.589 414.156 599.682 413.098 598.485L397.999 589.617L397.568 589.484C396.122 589.034 394.878 588.236 393.899 587.21L378.373 578.092L377.915 577.929C376.674 577.49 375.591 576.8 374.703 575.936L358.773 566.581L358.275 566.383C357.232 565.969 356.306 565.383 355.518 564.67L339.118 555.038L338.627 554.823C337.783 554.454 337.02 553.975 336.347 553.41L319.591 543.57L318.988 543.282C318.319 542.963 317.704 542.576 317.145 542.134L299.913 532.014L299.345 531.721C298.875 531.478 298.432 531.204 298.018 530.9L282.348 521.698L422.324 608.721L425.278 605.638L417.599 601.128ZM411.676 596.247C411.324 595.435 411.098 594.564 411.016 593.665L403.074 591.196L411.676 596.247ZM411.137 591.304L403.065 586.85L411.503 589.843L411.259 590.77C411.212 590.948 411.172 591.126 411.137 591.304ZM411.903 588.325L406.337 585.459L412.059 587.73L411.903 588.325ZM413.182 588.206L413.002 588.891L414.251 589.534L420.945 591.908L413.182 588.206ZM412.554 585.853L394.485 577.946L393.515 577.483L468.08 335.7C468.857 333.185 470.84 331.316 473.396 330.687L473.397 330.692C474.693 330.374 476.057 330.418 477.338 330.815L640.096 381.426L635.627 386.091L484.365 345.913C483.015 345.556 481.587 345.541 480.244 345.869C477.262 346.599 474.919 348.898 474.141 351.876L412.554 585.853ZM634.665 387.095L484.061 347.094C482.907 346.785 481.685 346.767 480.534 347.051L480.528 347.047C477.977 347.675 475.976 349.645 475.302 352.189L413.673 586.342L431.315 594.063L434.976 595.516L634.665 387.095ZM636.968 386.447L641.392 381.829L645.285 383.04L641.082 387.54L636.968 386.447ZM640.139 388.549L636.006 387.451L436.193 595.999L443.624 598.948L640.139 388.549ZM642.406 387.891L646.566 383.438L650.411 384.634L646.468 388.97L642.406 387.891ZM645.546 389.985L641.464 388.901L444.83 599.426L452.388 602.426L645.546 389.985ZM647.784 389.32L651.684 385.03L655.476 386.209L651.788 390.383L647.784 389.32ZM650.886 391.403L646.861 390.334L453.588 602.902L461.276 605.954L650.886 391.403ZM653.1 390.732L656.748 386.605L660.487 387.767L657.046 391.78L653.1 390.732ZM656.166 392.806L652.199 391.752L462.473 606.429L467.465 608.41L470.38 609.444L656.166 392.806ZM658.344 392.125L661.745 388.159L665.427 389.304L662.227 393.156L658.344 392.125ZM661.37 394.188L657.464 393.151L471.606 609.879L479.795 612.784L661.37 394.188ZM663.516 393.499L666.678 389.692L670.29 390.816L667.324 394.51L663.516 393.499ZM666.49 395.548L662.659 394.53L481.01 613.215L489.353 616.174L666.49 395.548ZM668.608 394.851L671.537 391.203L675.086 392.307L672.347 395.844L668.608 394.851ZM671.538 396.889L667.775 395.889L490.561 616.602L499.064 619.619L671.538 396.889ZM673.617 396.181L676.32 392.691L679.802 393.773L677.282 397.155L673.617 396.181ZM676.499 398.206L672.808 397.226L500.262 620.044L502.769 620.933L509.102 622.903L676.499 398.206ZM678.537 397.488L681.022 394.153L684.423 395.211L682.116 398.439L678.537 397.488ZM681.36 399.497L677.754 398.54L510.325 623.283L519.403 626.106L681.36 399.497ZM683.364 398.77L685.638 395.588L688.955 396.62L686.852 399.697L683.364 398.77ZM686.124 400.763L682.607 399.829L520.621 626.485L529.884 629.365L686.124 400.763ZM688.09 400.026L690.162 396.995L693.384 397.997L691.477 400.925L688.09 400.026ZM692.713 401.254L694.59 398.372L697.71 399.342L695.99 402.124L692.713 401.254ZM697.213 402.449L698.904 399.713L701.93 400.654L700.39 403.293L697.213 402.449ZM701.594 403.613L703.107 401.021L706.008 401.923L704.638 404.421L701.594 403.613ZM705.844 404.741L707.188 402.289L709.962 403.152L708.753 405.514L705.844 404.741ZM709.947 405.831L711.132 403.516L713.769 404.336L712.713 406.566L709.947 405.831ZM713.901 406.882L714.935 404.698L717.416 405.47L716.503 407.573L713.901 406.882ZM717.686 407.887L718.579 405.832L720.202 406.336C720.349 406.382 720.494 406.432 720.636 406.486C720.558 407.156 720.393 407.826 720.134 408.482L720.114 408.532L717.686 407.887ZM721.291 408.845C721.519 408.249 721.681 407.643 721.779 407.036C722.165 407.265 722.526 407.527 722.859 407.816C722.97 408.306 723.033 408.808 723.046 409.316C722.957 409.289 722.867 409.263 722.776 409.239L721.291 408.845ZM722.974 410.57C722.904 411.066 722.785 411.561 722.613 412.051L636.079 657.909L624.381 654.802L720.843 409.984L722.467 410.416C722.639 410.461 722.808 410.513 722.974 410.57ZM724.249 409.783C724.253 409.668 724.254 409.553 724.253 409.439C724.355 409.599 724.45 409.762 724.54 409.929C724.444 409.879 724.347 409.83 724.249 409.783ZM412.645 590.248L412.425 591.082C412.352 591.362 412.296 591.642 412.257 591.922L415.842 593.9L426.561 597.233L413.777 590.65L412.645 590.248ZM629.996 664.739C631.323 664.414 632.512 663.752 633.466 662.841L622.551 659.446L621.875 661.162C621.638 661.766 621.339 662.337 620.987 662.867L625.632 664.515C627.043 665.017 628.549 665.092 629.996 664.739ZM620.758 660.715L621.399 659.088L610.053 655.56L608.762 658.531L619.809 662.449C620.192 661.919 620.513 661.337 620.758 660.715ZM607.621 658.126L608.893 655.199L597.881 651.775L596.707 654.254L607.621 658.126ZM595.561 653.848L596.715 651.412L586.005 648.082L584.976 650.093L595.561 653.848ZM583.828 649.686L584.835 647.718L574.406 644.475L573.548 646.04L583.828 649.686ZM572.395 645.631L573.229 644.109L563.06 640.946L562.396 642.084L572.395 645.631ZM561.24 641.674L561.879 640.579L551.952 637.492L551.503 638.22L561.24 641.674ZM550.341 637.808L550.765 637.123L541.068 634.108L540.851 634.441L550.341 637.808ZM469.421 610.562L468.03 610.129L465.184 608.884L466.83 609.468L469.463 610.513L469.421 610.562ZM460.228 608.969L467.571 611.252L468.485 611.653L467.519 612.779L460.021 609.203L460.228 608.969ZM478.024 614.503L478.297 614.588L478.276 614.613L478.024 614.503ZM458.223 608.345L458.96 608.575L458.884 608.661L458.223 608.345ZM457.576 606.879L451.649 605.035L452.137 604.498L457.576 606.879ZM448.21 607.021L449.478 605.626L441.389 603.11L441.138 603.379L448.21 607.021ZM442.507 602.192L442.305 602.129L442.327 602.106L442.507 602.192ZM440.022 602.805L440.108 602.712L439.437 602.504L440.022 602.805ZM441.024 601.731L433.229 599.307L433.091 599.236L434.1 598.183L441.183 601.561L441.024 601.731ZM421.104 596.803L430.842 599.831L429.373 601.365L421.104 596.803ZM410.12 592.12L398.489 588.503L394.659 586.254C393.882 585.403 393.312 584.382 392.993 583.278L396.071 584.369L410.12 592.12ZM391.642 582.798C391.776 583.517 392 584.214 392.305 584.871L384.403 580.231L391.642 582.798ZM385.69 577.264L391.528 580.485C391.553 580.2 391.592 579.914 391.646 579.628L385.69 577.264ZM373.392 567.885L392.413 576.957L466.926 335.343C467.816 332.467 470.184 330.234 473.108 329.515C474.617 329.144 476.199 329.193 477.694 329.657L641.032 380.45L644.944 376.366L470.624 314.535C469.214 314.033 467.703 313.959 466.261 314.311L466.266 314.31C463.74 314.927 461.722 316.755 460.861 319.205L373.648 566.993C373.544 567.288 373.459 567.586 373.392 567.885ZM646.2 376.811L642.328 380.853L646.202 382.057L649.882 378.118L646.2 376.811ZM651.124 378.558L647.483 382.456L651.309 383.646L654.762 379.848L651.124 378.558ZM655.997 380.287L652.583 384.042L656.355 385.215L659.586 381.559L655.997 380.287ZM660.82 381.997L657.627 385.61L661.345 386.766L664.359 383.252L660.82 381.997ZM665.581 383.686L662.603 387.158L666.264 388.296L669.067 384.922L665.581 383.686ZM670.282 385.353L667.515 388.685L671.104 389.801L673.702 386.566L670.282 385.353ZM674.915 386.997L672.351 390.189L675.877 391.286L678.276 388.189L674.915 386.997ZM679.476 388.615L677.111 391.669L680.568 392.744L682.774 389.784L679.476 388.615ZM683.962 390.206L681.789 393.124L685.164 394.174L687.184 391.348L683.962 390.206ZM688.368 391.768L686.379 394.551L689.67 395.575L691.51 392.883L688.368 391.768ZM692.687 393.3L690.876 395.95L694.071 396.943L695.738 394.383L692.687 393.3ZM696.916 394.8L695.276 397.318L698.367 398.279L699.869 395.848L696.916 394.8ZM701.037 396.262L699.561 398.65L702.556 399.582L703.901 397.278L701.037 396.262ZM705.053 397.687L703.734 399.948L706.602 400.84L707.797 398.66L705.053 397.687ZM708.953 399.07L707.782 401.207L710.521 402.059L711.575 400L708.953 399.07ZM712.723 400.407L711.691 402.423L714.293 403.231L715.18 401.359C715.191 401.336 715.201 401.313 715.212 401.29L712.723 400.407ZM716.273 401.875L715.458 403.594L717.88 404.347C718.104 403.705 718.243 403.051 718.304 402.397C718.183 402.348 718.061 402.301 717.937 402.256L716.356 401.696C716.329 401.756 716.301 401.816 716.273 401.875ZM719.451 402.99C719.368 403.565 719.231 404.14 719.036 404.707L720.553 405.178C720.596 405.192 720.638 405.205 720.68 405.219C720.658 404.726 720.59 404.24 720.479 403.764C720.162 403.48 719.818 403.22 719.451 402.99ZM721.895 405.458C721.896 405.546 721.896 405.633 721.895 405.721C721.969 405.758 722.042 405.797 722.114 405.836C722.045 405.708 721.972 405.582 721.895 405.458ZM392.704 581.134C392.708 580.785 392.737 580.434 392.793 580.083L394.822 580.888L405.765 586.524L396.547 583.254L392.704 581.134ZM618.968 663.432C617.959 664.433 616.686 665.16 615.273 665.507C613.675 665.896 612.02 665.779 610.485 665.172L606.419 663.558C606.726 663.095 606.994 662.602 607.22 662.08L608.28 659.641L618.968 663.432ZM607.139 659.236L606.112 661.599C605.879 662.135 605.595 662.637 605.266 663.1L594.534 658.841L596.187 655.352L607.139 659.236ZM595.042 654.945L593.408 658.394L582.869 654.212L584.421 651.178L595.042 654.945ZM583.273 650.771L581.742 653.764L571.534 649.713L572.96 647.113L583.273 650.771ZM571.807 646.704L570.403 649.264L560.499 645.333L561.776 643.146L571.807 646.704ZM560.62 642.736L559.366 644.884L549.744 641.065L550.853 639.271L560.62 642.736ZM549.691 638.859L548.607 640.614L539.25 636.9L540.173 635.483L549.691 638.859ZM538.998 635.066L538.101 636.444L528.985 632.826L529.706 631.77L538.998 635.066ZM431.93 595.805L433.741 596.447L430.983 595.24L429.573 594.681L431.93 595.805ZM449.22 603.222L443.26 601.107L443.194 601.177L450.399 604.614L450.969 603.987L449.22 603.222ZM431.448 596.918L422.263 593.66L431.967 598.657L432.948 597.633L431.448 596.918ZM378.881 576.988L389.552 580.773L376.788 573.731L373.827 572.556C374.21 573.453 374.761 574.277 375.456 574.976L378.881 576.988ZM372.923 573.489C372.682 573 372.485 572.489 372.335 571.964L366.139 569.505L372.923 573.489ZM371.998 569.71L369.518 568.342L371.997 569.427C371.996 569.479 371.996 569.531 371.997 569.583C371.997 569.626 371.997 569.668 371.998 569.71ZM372.271 567.351L357.383 560.25L353.725 558.366C353.651 557.234 353.819 556.068 354.262 554.945L453.638 302.711C454.581 300.32 456.629 298.531 459.123 297.92L459.118 297.921C460.715 297.526 462.37 297.643 463.911 298.255L649.292 371.829L645.86 375.41L471.023 313.395C469.39 312.817 467.642 312.725 465.967 313.135C463.053 313.851 460.712 315.971 459.715 318.802L372.502 566.59C372.413 566.842 372.336 567.096 372.271 567.351ZM647.116 375.855L650.51 372.312L654.008 373.7L650.781 377.155L647.116 375.855ZM652.023 377.596L655.214 374.179L658.67 375.551L655.643 378.88L652.023 377.596ZM656.878 379.318L659.87 376.027L663.279 377.38L660.448 380.584L656.878 379.318ZM661.682 381.022L664.479 377.856L667.842 379.191L665.202 382.27L661.682 381.022ZM666.423 382.703L669.031 379.663L672.343 380.977L669.889 383.933L666.423 382.703ZM671.104 384.364L673.527 381.447L676.776 382.737L674.502 385.569L671.104 384.364ZM675.715 385.999L677.958 383.206L681.152 384.474L679.054 387.183L675.715 385.999ZM680.255 387.609L682.323 384.938L685.457 386.182L683.529 388.771L680.255 387.609ZM684.717 389.192L686.617 386.642L689.679 387.857L687.914 390.326L684.717 389.192ZM689.098 390.746L690.835 388.316L693.821 389.501L692.214 391.851L689.098 390.746ZM693.391 392.269L694.971 389.958L697.87 391.109L696.416 393.342L693.391 392.269ZM697.593 393.759L699.022 391.566L701.827 392.679L700.518 394.797L697.593 393.759ZM701.686 395.211L702.971 393.133L705.69 394.212L704.52 396.216L701.686 395.211ZM705.673 396.625L706.82 394.66L709.423 395.694L708.385 397.587L705.673 396.625ZM709.541 397.997L710.557 396.144L713.015 397.119C712.922 397.345 712.819 397.568 712.706 397.788L712.13 398.915L709.541 397.997ZM713.277 399.322L713.779 398.342C713.91 398.086 714.029 397.827 714.137 397.564L715.677 398.176C715.779 398.216 715.879 398.258 715.979 398.302C715.936 398.924 715.825 399.547 715.64 400.161L713.277 399.322ZM716.781 400.565C716.947 400.027 717.063 399.481 717.131 398.934C717.478 399.164 717.802 399.418 718.103 399.694C718.216 400.157 718.289 400.632 718.321 401.111L716.781 400.565ZM719.546 401.649C719.546 401.586 719.545 401.522 719.544 401.459C719.598 401.55 719.651 401.641 719.702 401.734C719.65 401.705 719.598 401.677 719.546 401.649ZM373.222 569.963C373.23 570.111 373.242 570.259 373.259 570.406L377.236 572.6L383.736 575.18L375.776 571.081L373.222 569.963ZM600.547 666.292C602.056 665.922 603.393 665.155 604.443 664.085L594.011 659.945L592.564 662.998C592.348 663.455 592.098 663.89 591.82 664.301L595.327 665.836C596.99 666.565 598.795 666.722 600.547 666.292ZM591.472 662.481L592.885 659.498L582.311 655.302L580.289 659.255L590.691 663.807C590.987 663.393 591.249 662.95 591.472 662.481ZM579.181 658.77L581.184 654.854L570.944 650.79L569.009 654.319L579.181 658.77ZM567.898 653.833L569.813 650.341L559.878 646.398L558.053 649.524L567.898 653.833ZM556.941 649.038L558.745 645.948L549.094 642.118L547.398 644.862L556.941 649.038ZM546.284 644.374L547.957 641.666L538.571 637.942L537.022 640.321L546.284 644.374ZM535.897 639.829L537.423 637.486L528.28 633.857L526.892 635.888L535.897 639.829ZM525.763 635.394L527.127 633.399L518.209 629.86L516.996 631.557L525.763 635.394ZM515.862 631.061L517.05 629.4L508.343 625.944L507.316 627.322L515.862 631.061ZM396.441 580.222L395.249 579.749L393.354 578.773L393.95 579.034L396.441 580.222ZM368.334 569.067L359.266 565.468L356.266 563.706C355.695 563.177 355.209 562.57 354.819 561.909L357.435 563.054L368.334 569.067ZM353.117 561.164C353.241 561.486 353.383 561.801 353.542 562.107L348.49 559.139L353.117 561.164ZM334.518 548.475L352.5 557.735C352.513 556.658 352.719 555.565 353.135 554.506L452.517 302.271C453.599 299.515 455.962 297.451 458.835 296.748C460.676 296.294 462.585 296.43 464.357 297.133L650.192 370.889L653.202 367.747L457.197 281.969C455.54 281.244 453.731 281.088 451.978 281.519L451.983 281.518C449.473 282.132 447.442 283.842 446.413 286.212L334.869 542.893C334.073 544.725 333.998 546.693 334.518 548.475ZM654.388 368.265L651.41 371.373L654.892 372.754L657.722 369.724L654.388 368.265ZM658.895 370.238L656.097 373.233L659.536 374.598L662.189 371.68L658.895 370.238ZM663.358 372.191L660.736 375.074L664.127 376.42L666.608 373.613L663.358 372.191ZM667.777 374.125L665.328 376.896L668.672 378.224L670.983 375.528L667.777 374.125ZM672.142 376.035L669.86 378.695L673.153 380.002L675.3 377.417L672.142 376.035ZM676.454 377.922L674.337 380.472L677.566 381.754L679.553 379.278L676.454 377.922ZM680.706 379.783L678.748 382.223L681.92 383.482L683.752 381.116L680.706 379.783ZM684.896 381.616L683.091 383.947L686.203 385.182L687.884 382.924L684.896 381.616ZM689.017 383.42L687.362 385.642L690.4 386.848L691.937 384.698L689.017 383.42ZM693.067 385.193L691.557 387.307L694.518 388.482L695.914 386.438L693.067 385.193ZM697.04 386.931L695.668 388.938L698.541 390.079L699.803 388.141L697.04 386.931ZM700.931 388.634L699.693 390.536L702.471 391.638L703.604 389.804L700.931 388.634ZM704.725 390.294L703.614 392.092L706.305 393.16L707.316 391.428L704.725 390.294ZM708.424 391.913L707.434 393.608L710.007 394.629L710.229 394.224C710.455 393.812 710.647 393.388 710.805 392.955L708.424 391.913ZM711.287 394.813L711.141 395.079L713.396 395.975C713.546 395.396 713.635 394.805 713.664 394.211C713.581 394.172 713.497 394.133 713.412 394.096L711.914 393.44C711.739 393.908 711.53 394.367 711.287 394.813ZM714.822 394.885C714.764 395.403 714.666 395.917 714.526 396.423L715.967 396.995C715.928 396.532 715.85 396.075 715.737 395.627C715.453 395.36 715.147 395.112 714.822 394.885ZM717.203 397.467C717.203 397.483 717.204 397.498 717.204 397.514C717.205 397.533 717.205 397.552 717.205 397.571L717.228 397.583L717.251 397.596C717.264 397.604 717.277 397.611 717.289 397.618C717.271 397.585 717.252 397.552 717.234 397.52C717.223 397.502 717.213 397.484 717.203 397.467ZM589.878 664.777C588.785 665.901 587.39 666.709 585.825 667.092C583.937 667.555 581.932 667.346 580.166 666.506L577.199 665.091C577.459 664.719 577.695 664.326 577.904 663.916L579.735 660.338L589.878 664.777ZM578.627 659.853L576.831 663.363C576.615 663.785 576.367 664.186 576.091 664.563L566.025 659.762L568.423 655.388L578.627 659.853ZM567.312 654.902L564.933 659.241L555.114 654.558L557.437 650.58L567.312 654.902ZM556.325 650.094L554.023 654.037L544.526 649.508L546.753 645.905L556.325 650.094ZM545.639 645.417L543.433 648.987L534.235 644.6L536.35 641.352L545.639 645.417ZM535.226 640.86L533.133 644.074L524.207 639.817L526.195 636.908L535.226 640.86ZM525.066 636.414L523.101 639.289L514.427 635.152L516.275 632.566L525.066 636.414ZM515.141 632.07L513.317 634.623L504.876 630.597L506.572 628.32L515.141 632.07ZM505.436 627.823L503.765 630.067L495.538 626.143L497.072 624.163L505.436 627.823ZM495.931 623.664L494.423 625.611L486.4 621.784L487.762 620.088L495.931 623.664ZM357.934 561.95L358.687 562.28L357 561.412L356.68 561.259L357.934 561.95ZM339.661 553.954L345.851 556.663L338.242 552.465L336.087 551.438C336.38 551.791 336.704 552.122 337.057 552.425L339.661 553.954ZM334.14 550.712C334.091 550.622 334.044 550.532 333.997 550.441L332.3 549.631L334.14 550.712ZM333.11 547.75L319.389 540.685L315.753 538.679C314.444 536.349 314.244 533.439 315.472 530.847L439.184 269.719C440.283 267.4 442.343 265.723 444.832 265.113L444.831 265.107C446.718 264.644 448.729 264.853 450.489 265.688L656.732 364.063L654.092 366.818L457.678 280.862C455.771 280.029 453.701 279.848 451.689 280.342C448.811 281.046 446.482 283.011 445.299 285.727L333.756 542.413C332.999 544.154 332.812 546.004 333.11 547.75ZM655.277 367.337L657.887 364.613L661.075 366.134L658.595 368.789L655.277 367.337ZM659.769 369.302L662.219 366.68L665.369 368.182L663.047 370.737L659.769 369.302ZM664.215 371.248L666.509 368.726L669.617 370.208L667.448 372.663L664.215 371.248ZM668.617 373.175L670.758 370.752L673.824 372.215L671.805 374.57L668.617 373.175ZM672.964 375.077L674.955 372.755L677.976 374.196L676.103 376.451L672.964 375.077ZM677.257 376.956L679.103 374.733L682.067 376.147L680.336 378.303L677.257 376.956ZM681.489 378.808L683.194 376.685L686.108 378.074L684.515 380.132L681.489 378.808ZM685.658 380.632L687.226 378.607L690.084 379.971L688.625 381.93L685.658 380.632ZM689.758 382.426L691.193 380.5L693.985 381.832L692.654 383.694L689.758 382.426ZM693.785 384.189L695.092 382.36L697.814 383.658L696.607 385.424L693.785 384.189ZM697.733 385.916L698.917 384.184L701.559 385.444L700.471 387.115L697.733 385.916ZM701.599 387.608L702.665 385.972L705.219 387.19L704.245 388.766L701.599 387.608ZM705.366 389.257L706.3 387.746L706.319 387.715L708.592 388.799C708.42 389.336 708.197 389.863 707.923 390.376L705.366 389.257ZM709.026 390.859C709.29 390.357 709.509 389.843 709.685 389.32L711.153 390.021C711.219 390.052 711.285 390.084 711.35 390.117C711.334 390.679 711.265 391.237 711.145 391.786L709.026 390.859ZM712.27 392.278C712.386 391.802 712.468 391.319 712.515 390.833C712.825 391.059 713.116 391.305 713.388 391.567C713.5 391.999 713.579 392.435 713.625 392.871L712.27 392.278ZM714.878 393.49L714.878 393.488L714.88 393.491L714.878 393.49ZM571.108 667.892C572.713 667.498 574.151 666.668 575.281 665.516L565.443 660.824L563.243 664.835C563.039 665.208 562.813 665.567 562.566 665.909L565.014 667.169C566.898 668.137 569.059 668.392 571.108 667.892ZM562.186 664.252L564.351 660.303L554.503 655.606L551.742 660.335L561.476 665.348C561.738 665.002 561.975 664.636 562.186 664.252ZM550.669 659.783L553.411 655.085L543.887 650.543L541.192 654.903L550.669 659.783ZM540.119 654.35L542.793 650.022L533.569 645.622L530.958 649.632L540.119 654.35ZM529.876 649.075L532.467 645.096L523.516 640.827L521.002 644.506L529.876 649.075ZM519.918 643.947L522.41 640.3L513.712 636.152L511.309 639.514L519.918 643.947ZM510.221 638.954L512.602 635.622L504.139 631.586L501.859 634.648L510.221 638.954ZM500.77 634.087L503.028 631.056L494.78 627.122L492.632 629.896L500.77 634.087ZM491.54 629.334L493.665 626.591L485.621 622.754L483.615 625.253L491.54 629.334ZM482.518 624.688L484.499 622.219L476.643 618.472L474.787 620.707L482.518 624.688ZM320.252 542.54L320.111 542.473L319.816 542.299L320.252 542.54ZM297.116 528.396L314.008 537.716C313.191 535.381 313.252 532.737 314.391 530.334L438.098 269.206C439.354 266.557 441.702 264.637 444.549 263.94C446.701 263.408 449 263.646 451.008 264.606L657.612 363.145L659.93 360.725L443.783 249.417C441.904 248.448 439.738 248.194 437.689 248.695L437.688 248.69C435.214 249.297 433.128 250.947 431.965 253.218L296.09 518.793C294.445 522.004 294.968 525.765 297.116 528.396ZM661.056 361.305L658.766 363.695L661.939 365.209L664.114 362.88L661.056 361.305ZM665.23 363.455L663.083 365.754L666.217 367.249L668.252 365.011L665.23 363.455ZM669.365 365.584L667.357 367.793L670.449 369.267L672.347 367.12L669.365 365.584ZM673.461 367.693L671.589 369.811L674.639 371.266L676.403 369.208L673.461 367.693ZM677.508 369.777L675.769 371.805L678.773 373.237L680.407 371.27L677.508 369.777ZM681.509 371.838L679.9 373.775L682.844 375.179L684.352 373.302L681.509 371.838ZM685.454 373.87L683.971 375.717L686.865 377.097L688.249 375.309L685.454 373.87ZM689.344 375.872L687.983 377.63L690.82 378.983L692.086 377.284L689.344 375.872ZM693.172 377.844L691.929 379.512L694.699 380.833L695.85 379.223L693.172 377.844ZM696.935 379.781L695.806 381.361L698.504 382.648L699.545 381.126L696.935 379.781ZM700.627 381.683L699.607 383.174L702.224 384.423L702.798 383.543C702.919 383.357 703.033 383.168 703.141 382.977L700.627 381.683ZM703.812 384.211L703.33 384.95L705.803 386.129C706.032 385.645 706.219 385.146 706.364 384.637L704.22 383.533C704.093 383.762 703.957 383.988 703.812 384.211ZM707.457 385.2C707.305 385.694 707.117 386.178 706.894 386.65L708.89 387.602C708.984 387.075 709.033 386.544 709.038 386.016C708.99 385.99 708.942 385.965 708.894 385.94L707.457 385.2ZM710.207 386.768C710.171 387.225 710.106 387.682 710.009 388.136L711.284 388.744C711.232 388.324 711.151 387.904 711.04 387.488C710.778 387.232 710.5 386.991 710.207 386.768ZM560.658 666.289C559.492 667.458 558.017 668.303 556.388 668.703C554.174 669.247 551.855 668.937 549.851 667.835L547.911 666.764C548.153 666.439 548.379 666.098 548.586 665.742L551.131 661.383L560.658 666.289ZM550.058 660.83L547.546 665.134C547.332 665.499 547.098 665.846 546.843 666.175L537.434 660.984L540.554 655.936L550.058 660.83ZM539.48 655.383L536.379 660.401L527.231 655.355L530.294 650.652L539.48 655.383ZM529.211 650.095L526.168 654.768L517.323 649.888L520.314 645.513L529.211 650.095ZM519.229 644.954L516.258 649.301L507.693 644.575L510.598 640.509L519.229 644.954ZM509.51 639.949L506.625 643.986L498.317 639.402L501.126 635.632L509.51 639.949ZM500.037 635.071L497.249 638.813L489.176 634.359L491.878 630.869L500.037 635.071ZM490.787 630.307L488.106 633.769L480.255 629.437L482.842 626.216L490.787 630.307ZM481.744 625.651L479.18 628.844L471.532 624.625L473.995 621.66L481.744 625.651ZM472.894 621.093L470.454 624.03L462.998 619.916L465.33 617.198L472.894 621.093ZM464.22 616.626L461.912 619.317L454.632 615.301L456.826 612.818L464.22 616.626ZM294.928 527.189C293.601 524.451 293.525 521.146 295.011 518.241L430.891 252.66C432.21 250.08 434.583 248.204 437.399 247.513C439.727 246.94 442.189 247.233 444.329 248.335L660.804 359.813L662.836 357.692L437.07 233.137C435.072 232.034 432.747 231.725 430.533 232.269L430.528 232.27C428.064 232.87 425.95 234.493 424.73 236.721L276.692 506.742C274.435 510.86 275.705 515.988 279.48 518.611L281.04 519.527L294.928 527.189ZM661.93 360.393L663.937 358.299L666.878 359.922L664.974 361.96L661.93 360.393ZM666.09 362.535L667.968 360.523L670.875 362.127L669.096 364.083L666.09 362.535ZM670.209 364.656L671.963 362.727L674.83 364.309L673.174 366.183L670.209 364.656ZM674.289 366.757L675.92 364.911L678.75 366.472L677.214 368.263L674.289 366.757ZM678.319 368.832L679.831 367.068L682.619 368.606L681.199 370.316L678.319 368.832ZM682.302 370.883L683.698 369.202L686.432 370.71L685.126 372.338L682.302 370.883ZM686.228 372.906L687.513 371.306L690.201 372.789L689.004 374.335L686.228 372.906ZM690.098 374.898L691.273 373.381L693.91 374.836L692.819 376.3L690.098 374.898ZM693.905 376.859L694.975 375.423L697.55 376.844L696.562 378.227L693.905 376.859ZM697.647 378.785L698.615 377.431L701.04 378.769C700.831 379.186 700.592 379.594 700.322 379.989L700.234 380.118L697.647 378.785ZM701.315 380.675L701.317 380.672C701.61 380.244 701.87 379.803 702.097 379.352L704.133 380.476C704.015 380.953 703.861 381.425 703.67 381.887L701.315 380.675ZM704.751 382.444C704.941 381.996 705.099 381.54 705.227 381.079L706.639 381.858C706.651 381.865 706.663 381.871 706.675 381.878C706.694 381.889 706.713 381.899 706.732 381.91C706.737 382.414 706.702 382.915 706.629 383.411L704.751 382.444ZM707.756 383.991C707.835 383.567 707.889 383.138 707.917 382.707C708.189 382.923 708.448 383.154 708.692 383.398C708.802 383.794 708.886 384.196 708.944 384.603L707.756 383.991ZM541.674 669.518C543.347 669.108 544.835 668.272 546.024 667.098L536.8 662.009L533.926 666.661C533.715 667.003 533.487 667.33 533.244 667.642L534.693 668.493C536.812 669.736 539.294 670.101 541.674 669.518ZM532.906 666.021L535.745 661.427L526.572 656.367L523.106 661.689L532.195 667.026C532.451 666.709 532.688 666.374 532.906 666.021ZM522.061 661.075L525.509 655.78L516.641 650.887L513.225 655.885L522.061 661.075ZM512.178 655.271L515.576 650.3L506.987 645.562L503.634 650.253L512.178 655.271ZM502.586 649.637L505.92 644.973L497.59 640.377L494.312 644.778L502.586 649.637ZM493.264 644.163L496.522 639.788L488.429 635.323L485.235 639.448L493.264 644.163ZM484.186 638.831L487.36 634.733L479.489 630.391L476.389 634.252L484.186 638.831ZM475.335 633.634L478.415 629.798L470.748 625.569L467.75 629.179L475.335 633.634ZM466.693 628.558L469.67 624.974L462.197 620.851L459.307 624.22L466.693 628.558ZM458.243 623.596L461.111 620.252L453.814 616.226L451.04 619.365L458.243 623.596ZM449.976 618.741L452.728 615.627L445.596 611.692L442.943 614.61L449.976 618.741ZM441.878 613.985L444.508 611.092L437.53 607.242L435.003 609.947L441.878 613.985ZM260.674 507.567L275.877 516.495C274.026 513.44 273.803 509.505 275.64 506.157L423.678 236.137C425.063 233.614 427.459 231.772 430.25 231.091C432.755 230.478 435.386 230.829 437.654 232.08L663.7 356.79L665.48 354.933L430.367 216.855C428.248 215.607 425.772 215.246 423.386 215.83L423.385 215.825C420.895 216.43 418.807 217.994 417.514 220.209L257.307 494.677C254.693 499.163 256.202 504.938 260.674 507.567ZM666.556 355.565L664.801 357.397L667.728 359.011L669.392 357.23L666.556 355.565ZM670.459 357.857L668.819 359.613L671.71 361.208L673.261 359.503L670.459 357.857ZM674.326 360.128L672.798 361.809L675.65 363.382L677.091 361.752L674.326 360.128ZM678.158 362.379L676.74 363.983L679.553 365.535L680.886 363.981L678.158 362.379ZM681.946 364.603L680.634 366.132L683.405 367.661L684.634 366.181L681.946 364.603ZM685.691 366.803L684.484 368.256L687.2 369.754L688.327 368.35L685.691 366.803ZM689.386 368.973L688.28 370.35L690.949 371.823L691.977 370.494L689.386 368.973ZM693.03 371.112L692.022 372.414L694.638 373.858L695.37 372.877C695.437 372.786 695.503 372.695 695.567 372.603L693.03 371.112ZM696.335 373.598L695.703 374.446L698.236 375.843C698.492 375.431 698.718 375.005 698.914 374.568L696.61 373.215C696.521 373.344 696.429 373.472 696.335 373.598ZM699.962 375.183C699.766 375.609 699.543 376.024 699.295 376.427L701.517 377.653C701.675 377.215 701.802 376.77 701.898 376.321L699.962 375.183ZM702.989 376.961C702.88 377.393 702.746 377.821 702.586 378.243L704.36 379.221C704.414 378.749 704.435 378.275 704.423 377.804C704.411 377.796 704.398 377.789 704.386 377.782L702.989 376.961ZM705.619 378.645C705.599 379.046 705.558 379.448 705.494 379.847L706.61 380.463C706.572 380.224 706.525 379.986 706.469 379.749C706.436 379.607 706.4 379.467 706.36 379.328C706.128 379.089 705.881 378.861 705.619 378.645ZM531.359 667.938C530.144 669.103 528.641 669.932 526.963 670.343C524.411 670.966 521.771 670.551 519.536 669.158L518.559 668.551C518.813 668.239 519.052 667.913 519.274 667.573L522.446 662.703L531.359 667.938ZM521.4 662.089L518.261 666.91C518.034 667.259 517.787 667.591 517.522 667.906L508.741 662.446L512.541 656.886L521.4 662.089ZM511.494 656.272L507.711 661.806L499.172 656.497L502.928 651.241L511.494 656.272ZM501.88 650.625L498.141 655.856L489.883 650.723L493.585 645.754L501.88 650.625ZM492.537 645.138L488.853 650.082L480.852 645.108L484.489 640.412L492.537 645.138ZM483.439 639.796L479.822 644.467L472.061 639.643L475.624 635.206L483.439 639.796ZM474.57 634.587L471.027 639L463.486 634.311L466.967 630.121L474.57 634.587ZM465.91 629.501L462.449 633.667L455.116 629.108L458.507 625.153L465.91 629.501ZM457.443 624.528L454.072 628.459L446.928 624.017L450.224 620.289L457.443 624.528ZM449.16 619.664L445.886 623.369L438.918 619.037L442.112 615.524L449.16 619.664ZM441.047 614.899L437.874 618.388L431.07 614.158L434.157 610.853L441.047 614.899ZM433.09 610.226L430.024 613.508L423.377 609.375L426.353 606.269L433.09 610.226ZM257.066 505.98L241.064 496.031C236.513 493.201 235.103 487.189 237.92 482.624L410.294 203.709C411.639 201.532 413.748 199.997 416.232 199.388L416.228 199.394C418.785 198.77 421.419 199.187 423.66 200.579L667.89 352.416L666.34 354.035L430.975 215.809C428.585 214.409 425.788 213.992 423.097 214.653C420.286 215.344 417.933 217.102 416.473 219.601L256.262 494.07C254.01 497.929 254.474 502.646 257.066 505.98ZM667.416 354.667L668.945 353.072L671.684 354.775L670.238 356.324L667.416 354.667ZM671.305 356.951L672.73 355.425L675.438 357.109L674.092 358.588L671.305 356.951ZM675.157 359.214L676.481 357.757L679.153 359.418L677.907 360.828L675.157 359.214ZM678.974 361.455L680.199 360.069L682.835 361.708L681.686 363.048L678.974 361.455ZM682.745 363.67L683.874 362.354L686.472 363.968L685.417 365.239L682.745 363.67ZM686.474 365.86L687.509 364.614L690.056 366.197L689.092 367.397L686.474 365.86ZM690.152 368.019L691.096 366.843L693.551 368.369C693.347 368.695 693.126 369.012 692.888 369.319L692.724 369.53L690.152 368.019ZM693.776 370.148L693.841 370.064C694.106 369.722 694.351 369.37 694.577 369.008L696.774 370.374C696.61 370.783 696.42 371.185 696.206 371.575L693.776 370.148ZM697.246 372.186C697.457 371.806 697.646 371.417 697.813 371.019L699.663 372.169C699.584 372.593 699.479 373.011 699.35 373.421L697.246 372.186ZM700.417 374.048C700.552 373.655 700.665 373.255 700.757 372.85L702.12 373.697C702.138 374.141 702.129 374.586 702.091 375.031L700.417 374.048ZM703.231 375.701C703.282 375.328 703.314 374.953 703.328 374.579C703.572 374.787 703.804 375.006 704.024 375.236C704.127 375.59 704.21 375.95 704.274 376.313L703.231 375.701ZM512.252 671.174C513.92 670.765 515.432 669.946 516.668 668.801L508.056 663.448L504.613 668.486C504.377 668.832 504.123 669.163 503.854 669.478L504.372 669.818C506.693 671.335 509.565 671.829 512.252 671.174ZM503.616 667.798L507.027 662.808L498.466 657.485L494.346 663.25L502.831 668.808C503.112 668.49 503.374 668.152 503.616 667.798ZM493.332 662.586L497.435 656.844L489.157 651.698L485.075 657.177L493.332 662.586ZM484.062 656.514L488.127 651.058L480.106 646.071L476.072 651.28L484.062 656.514ZM475.06 650.617L479.076 645.431L471.297 640.595L467.32 645.548L475.06 650.617ZM466.304 644.882L470.263 639.952L462.704 635.253L458.793 639.962L466.304 644.882ZM457.774 639.295L461.667 634.608L454.318 630.039L450.478 634.516L457.774 639.295ZM449.453 633.845L453.274 629.39L446.114 624.939L442.353 629.194L449.453 633.845ZM441.33 628.524L445.071 624.291L438.088 619.949L434.412 623.993L441.33 628.524ZM433.388 623.322L437.045 619.301L430.226 615.062L426.64 618.901L433.388 623.322ZM425.614 618.23L429.18 614.412L422.519 610.27L419.027 613.915L425.614 618.23ZM417.995 613.239L421.467 609.616L244.553 499.631L417.995 613.239ZM221.448 484.497L238.92 495.942C235.023 492.473 234.052 486.576 236.886 481.993L409.26 203.077C410.774 200.627 413.144 198.904 415.939 198.217C418.813 197.514 421.778 197.984 424.293 199.55L668.747 351.523L670.098 350.112L416.957 184.296C414.637 182.779 411.77 182.284 409.079 182.945L409.078 182.94C406.599 183.548 404.464 185.061 403.069 187.205L218.531 470.566C215.502 475.211 216.812 481.461 221.448 484.497ZM671.132 350.789L669.801 352.178L672.527 353.873L673.785 352.527L671.132 350.789ZM674.81 353.198L673.573 354.523L676.266 356.197L677.432 354.916L674.81 353.198ZM678.455 355.586L677.31 356.846L679.966 358.498L681.042 357.281L678.455 355.586ZM682.069 357.953L681.013 359.148L683.633 360.778L684.621 359.625L682.069 357.953ZM685.641 360.293L684.672 361.423L687.253 363.028L687.935 362.206C688.009 362.118 688.081 362.028 688.152 361.938L685.641 360.293ZM688.863 362.984L688.291 363.673L690.805 365.236C691.06 364.88 691.294 364.512 691.506 364.135L689.168 362.603C689.069 362.732 688.967 362.859 688.863 362.984ZM692.524 364.801C692.314 365.17 692.086 365.529 691.839 365.879L694.139 367.309C694.319 366.938 694.479 366.559 694.617 366.173L692.524 364.801ZM695.653 366.851C695.509 367.224 695.348 367.59 695.169 367.949L697.171 369.194C697.278 368.805 697.363 368.411 697.426 368.013L695.653 366.851ZM698.522 368.731C698.445 369.11 698.349 369.486 698.236 369.856L699.824 370.843C699.849 370.426 699.849 370.005 699.824 369.583L698.522 368.731ZM701.048 370.513C701.039 370.864 701.015 371.213 700.976 371.559L701.94 372.159C701.874 371.815 701.791 371.474 701.691 371.138C701.487 370.922 701.273 370.713 701.048 370.513ZM501.957 669.687C500.706 670.803 499.194 671.605 497.542 672.01C494.674 672.712 491.643 672.157 489.21 670.483L489.127 670.426C489.421 670.099 489.698 669.754 489.955 669.393L493.639 664.239L501.957 669.687ZM492.625 663.575L488.972 668.686C488.709 669.055 488.424 669.404 488.12 669.733L479.919 664.097L484.348 658.153L492.625 663.575ZM483.335 657.489L478.923 663.412L470.931 657.919L475.327 652.243L483.335 657.489ZM474.314 651.58L469.935 657.235L462.203 651.92L466.557 646.498L474.314 651.58ZM465.541 645.833L461.204 651.234L453.709 646.082L458.012 640.902L465.541 645.833ZM456.994 640.234L452.708 645.394L445.436 640.396L449.682 635.445L456.994 640.234ZM448.657 634.773L444.429 639.704L437.36 634.844L441.542 630.113L448.657 634.773ZM440.518 629.442L436.355 634.154L429.474 629.424L433.586 624.901L440.518 629.442ZM432.562 624.23L428.468 628.733L421.762 624.124L425.8 619.801L432.562 624.23ZM424.774 619.129L420.755 623.432L414.216 618.937L418.174 614.805L424.774 619.129ZM417.142 614.13L413.203 618.241L201.837 472.962C197.122 469.718 195.913 463.236 199.138 458.514L395.844 170.705C397.284 168.596 399.444 167.1 401.923 166.492L401.919 166.498C404.782 165.797 407.818 166.351 410.25 168.02L672.114 348.008L670.945 349.228L417.61 183.285C415.014 181.583 411.798 181.033 408.785 181.769C406.005 182.448 403.613 184.148 402.051 186.548L217.514 469.909C214.128 475.109 215.598 482.11 220.79 485.509L417.142 614.13ZM671.979 349.905L673.128 348.705L675.702 350.474L674.618 351.634L671.979 349.905ZM675.644 352.306L676.708 351.166L679.252 352.914L678.251 354.014L675.644 352.306ZM679.275 354.685L680.257 353.605L682.766 355.33L681.847 356.37L679.275 354.685ZM682.874 357.042L683.775 356.023L686.202 357.691C685.97 358.022 685.721 358.343 685.455 358.654L685.411 358.704L682.874 357.042ZM686.431 359.372C686.703 359.05 686.959 358.718 687.199 358.376L689.437 359.915C689.259 360.268 689.062 360.615 688.847 360.955L686.431 359.372ZM689.86 361.618C690.07 361.287 690.264 360.949 690.442 360.606L692.445 361.982C692.329 362.344 692.195 362.699 692.044 363.049L689.86 361.618ZM693.073 363.723C693.225 363.386 693.362 363.044 693.484 362.696L695.178 363.86C695.128 364.233 695.06 364.603 694.974 364.968L693.073 363.723ZM696.04 365.667C696.135 365.321 696.214 364.971 696.279 364.617L697.532 365.479C697.561 365.874 697.568 366.268 697.555 366.659L696.04 365.667ZM698.716 367.419C698.746 367.099 698.763 366.777 698.768 366.453C698.98 366.648 699.184 366.851 699.377 367.061C699.471 367.372 699.551 367.688 699.617 368.009L698.716 367.419ZM482.828 672.853C484.463 672.452 485.968 671.672 487.229 670.591L479.196 665.069L475.298 670.3C475.014 670.681 474.71 671.043 474.386 671.386C476.872 673.028 479.924 673.561 482.828 672.853ZM474.328 669.58L478.199 664.384L470.189 658.878L465.462 664.982L473.389 670.68C473.725 670.336 474.038 669.968 474.328 669.58ZM464.481 664.278L469.193 658.193L461.443 652.867L456.745 658.718L464.481 664.278ZM455.762 658.012L460.444 652.18L452.933 647.017L448.272 652.628L455.762 658.012ZM447.287 651.92L451.931 646.329L444.644 641.32L440.027 646.703L447.287 651.92ZM439.037 645.991L443.637 640.627L436.552 635.758L431.986 640.924L439.037 645.991ZM430.998 640.214L435.547 635.067L428.652 630.328L424.143 635.287L430.998 640.214ZM423.155 634.577L427.647 629.637L420.927 625.018L416.479 629.78L423.155 634.577ZM415.49 629.069L419.92 624.326L413.368 619.822L408.986 624.395L415.49 629.069ZM407.992 623.68L412.355 619.126L201.148 473.953C195.88 470.335 194.531 463.098 198.137 457.827L394.842 170.018C396.451 167.663 398.865 165.991 401.629 165.316C404.829 164.531 408.217 165.156 410.932 167.02L672.96 347.125L673.962 346.079L403.548 151.738C401.003 149.911 397.801 149.293 394.761 150.034C392.282 150.642 390.102 152.121 388.618 154.201L179.744 446.457C176.311 451.258 177.422 457.977 182.22 461.422L407.992 623.68ZM674.958 346.796L673.975 347.822L676.535 349.582L677.459 348.593L674.958 346.796ZM678.448 349.303L677.542 350.274L680.071 352.012L680.493 351.549C680.635 351.392 680.773 351.232 680.907 351.071L678.448 349.303ZM681.389 352.36L681.077 352.703L683.546 354.401C683.783 354.091 684.006 353.773 684.213 353.446L681.891 351.778C681.73 351.975 681.562 352.169 681.389 352.36ZM685.2 354.156C684.996 354.474 684.778 354.786 684.548 355.089L686.848 356.67C687.028 356.353 687.194 356.028 687.345 355.697L685.2 354.156ZM688.344 356.416C688.192 356.735 688.026 357.05 687.848 357.358L689.932 358.79C690.057 358.462 690.167 358.13 690.262 357.794L688.344 356.416ZM691.3 358.54C691.197 358.861 691.083 359.179 690.955 359.493L692.768 360.74C692.837 360.4 692.89 360.056 692.928 359.71L691.3 358.54ZM694.041 360.51C693.988 360.836 693.922 361.159 693.844 361.479L695.277 362.464C695.281 362.1 695.267 361.735 695.236 361.369L694.041 360.51ZM696.482 362.381C696.482 362.679 696.471 362.975 696.45 363.27L697.295 363.851C697.229 363.554 697.152 363.261 697.063 362.973C696.878 362.769 696.684 362.571 696.482 362.381ZM472.481 671.514C471.215 672.553 469.724 673.306 468.121 673.699C465.205 674.413 462.168 673.916 459.651 672.342C460 671.987 460.33 671.608 460.641 671.208L464.722 665.938L472.481 671.514ZM463.741 665.233L459.688 670.467C459.364 670.885 459.016 671.276 458.646 671.639L450.981 665.898L455.988 659.661L463.741 665.233ZM455.005 658.955L450.013 665.173L442.516 659.557L447.498 653.559L455.005 658.955ZM446.513 652.852L441.547 658.831L434.289 653.394L439.238 647.623L446.513 652.852ZM438.248 646.911L433.314 652.664L426.273 647.39L431.183 641.834L438.248 646.911ZM430.195 641.124L425.301 646.662L418.46 641.538L423.325 636.187L430.195 641.124ZM422.337 635.477L417.488 640.81L410.833 635.825L415.648 630.67L422.337 635.477ZM414.659 629.959L409.861 635.096L403.382 630.244L408.143 625.275L414.659 629.959ZM407.148 624.561L402.405 629.512L162.604 449.888C160.244 448.117 158.707 445.535 158.281 442.606C157.857 439.683 158.592 436.768 160.356 434.399L381.393 137.696C382.92 135.646 385.125 134.179 387.599 133.577L387.604 133.571C390.824 132.782 394.192 133.471 396.845 135.456L675.659 344.307C675.618 344.35 675.577 344.394 675.535 344.437L674.806 345.199L404.249 150.755C401.418 148.719 397.859 148.03 394.472 148.857C391.718 149.531 389.289 151.179 387.634 153.494L178.766 445.749C174.946 451.095 176.179 458.568 181.518 462.405L407.148 624.561ZM675.802 345.915L676.41 345.28C676.487 345.2 676.562 345.12 676.637 345.039L679.004 346.812C678.778 347.117 678.539 347.412 678.285 347.7L675.802 345.915ZM679.271 348.408C679.516 348.125 679.75 347.834 679.971 347.537L682.195 349.203C682.021 349.509 681.833 349.81 681.632 350.105L679.271 348.408ZM682.615 350.811C682.812 350.524 682.997 350.231 683.171 349.933L685.232 351.477C685.104 351.787 684.965 352.091 684.813 352.391L682.615 350.811ZM685.808 353.106C685.96 352.817 686.101 352.524 686.231 352.226L688.078 353.609C687.999 353.923 687.907 354.233 687.803 354.54L685.808 353.106ZM688.826 355.274C688.933 354.983 689.031 354.687 689.118 354.388L690.675 355.555C690.647 355.876 690.605 356.196 690.551 356.515L688.826 355.274ZM691.632 357.291C691.696 356.993 691.749 356.693 691.792 356.392L692.942 357.252C692.975 357.594 692.994 357.934 692.998 358.273L691.632 357.291ZM694.19 359.13C694.205 358.859 694.211 358.587 694.209 358.314C694.395 358.494 694.574 358.68 694.746 358.872C694.83 359.141 694.905 359.414 694.97 359.69L694.19 359.13ZM453.413 674.546C455.011 674.155 456.468 673.444 457.726 672.451L450.228 666.835L445.984 672.12C445.65 672.536 445.294 672.927 444.918 673.294C447.464 674.803 450.488 675.264 453.413 674.546ZM445.045 671.361L449.261 666.11L441.747 660.482L436.471 666.834L443.716 672.474C443.774 672.519 443.831 672.563 443.89 672.607C444.3 672.223 444.686 671.807 445.045 671.361ZM435.516 666.091L440.778 659.756L433.505 654.308L428.251 660.435L435.516 666.091ZM427.291 659.687L432.53 653.578L425.474 648.293L420.249 654.205L427.291 659.687ZM419.293 653.46L424.502 647.565L417.648 642.431L412.458 648.139L419.293 653.46ZM411.501 647.394L416.676 641.703L410.008 636.709L404.858 642.222L411.501 647.394ZM403.901 641.477L409.035 635.98L402.544 631.118L397.439 636.447L403.901 641.477ZM396.477 635.698L401.567 630.386L161.883 450.858C159.262 448.894 157.559 446.024 157.087 442.779C156.618 439.527 157.438 436.296 159.39 433.672L380.426 136.969C382.122 134.695 384.567 133.071 387.316 132.399C390.889 131.524 394.625 132.286 397.566 134.491L676.45 343.385C676.662 343.114 676.864 342.836 677.055 342.553L390.138 119.18C387.377 117.032 383.842 116.273 380.441 117.108L380.436 117.114C377.925 117.724 375.754 119.14 374.167 121.192L140.962 422.341C139.103 424.751 138.284 427.737 138.669 430.761C139.053 433.785 140.586 436.482 142.988 438.353L396.477 635.698ZM678.016 343.3C677.827 343.577 677.63 343.848 677.422 344.113L679.684 345.808C679.852 345.533 680.01 345.253 680.158 344.968L678.016 343.3ZM681.126 345.722C680.978 345.997 680.821 346.268 680.655 346.535L682.752 348.106C682.878 347.826 682.994 347.544 683.099 347.258L681.126 345.722ZM684.097 348.035C683.988 348.309 683.87 348.58 683.743 348.848L685.655 350.28C685.739 349.997 685.814 349.711 685.879 349.422L684.097 348.035ZM686.925 350.237C686.853 350.51 686.772 350.781 686.682 351.05L688.336 352.288C688.377 351.996 688.408 351.702 688.428 351.406L686.925 350.237ZM689.555 352.284C689.52 352.559 689.477 352.833 689.426 353.105L690.716 354.071C690.705 353.758 690.683 353.446 690.649 353.136L689.555 352.284ZM691.926 354.237C691.931 354.482 691.929 354.727 691.92 354.973L692.641 355.513C692.579 355.263 692.508 355.015 692.43 354.771C692.268 354.588 692.1 354.41 691.926 354.237ZM442.944 673.402C441.695 674.343 440.267 675.022 438.713 675.402C435.777 676.12 432.759 675.694 430.188 674.242C430.589 673.864 430.97 673.459 431.327 673.027L435.7 667.763L442.944 673.402ZM434.745 667.019L430.396 672.256C430.003 672.728 429.58 673.166 429.13 673.568C428.936 673.429 428.745 673.284 428.558 673.133L421.941 667.793L427.465 661.352L434.745 667.019ZM426.505 660.604L420.995 667.029L413.945 661.338L419.449 655.111L426.505 660.604ZM418.492 654.366L413.002 660.578L406.165 655.059L411.643 649.035L418.492 654.366ZM410.687 648.29L405.223 654.299L398.584 648.94L404.031 643.108L410.687 648.29ZM403.073 642.363L397.641 648.179L391.188 642.971L396.6 637.323L403.073 642.363ZM395.638 636.574L390.242 642.207L123.375 426.807C118.332 422.737 117.53 415.325 121.583 410.276L366.951 104.68C368.576 102.653 370.767 101.254 373.287 100.638L373.282 100.639C376.866 99.762 380.565 100.586 383.436 102.902L678.089 340.729C677.963 340.998 677.828 341.262 677.684 341.523L390.88 118.238C387.822 115.855 383.914 115.024 380.154 115.942C377.375 116.626 374.976 118.181 373.214 120.451L140.016 421.605C137.951 424.263 137.05 427.575 137.471 430.918C137.897 434.26 139.591 437.246 142.248 439.311L395.638 636.574ZM678.653 342.277C678.796 342.026 678.932 341.771 679.06 341.512L680.968 343.053C680.879 343.322 680.78 343.588 680.673 343.85L678.653 342.277ZM681.66 344.618C681.769 344.367 681.871 344.114 681.965 343.857L683.667 345.231C683.614 345.501 683.552 345.77 683.482 346.037L681.66 344.618ZM684.514 346.84C684.59 346.589 684.658 346.335 684.72 346.081L686.171 347.252C686.158 347.529 686.135 347.804 686.104 348.078L684.514 346.84ZM687.205 348.936C687.247 348.682 687.282 348.428 687.31 348.172L688.364 349.022C688.387 349.21 688.405 349.399 688.419 349.589C688.427 349.691 688.434 349.794 688.439 349.896L687.205 348.936ZM689.659 350.846C689.664 350.621 689.663 350.396 689.656 350.17C689.814 350.331 689.966 350.497 690.114 350.666C690.189 350.895 690.257 351.126 690.319 351.359L689.659 350.846ZM424.002 676.26C425.513 675.89 426.912 675.244 428.149 674.355C428.029 674.265 427.911 674.173 427.794 674.079L421.15 668.716L416.675 673.934C416.291 674.38 415.882 674.799 415.451 675.188C418.048 676.565 421.103 676.969 424.002 676.26ZM415.751 673.144L420.203 667.952L413.139 662.25L407.37 668.778L413.385 673.8C413.698 674.062 414.023 674.306 414.359 674.532C414.854 674.11 415.32 673.647 415.751 673.144ZM406.441 668.002L412.197 661.489L405.346 655.96L399.595 662.286L406.441 668.002ZM398.666 661.511L404.404 655.2L397.752 649.83L392.023 655.964L398.666 661.511ZM391.094 655.189L396.81 649.069L390.345 643.851L384.643 649.802L391.094 655.189ZM383.71 649.024L389.398 643.087L122.617 427.753C117.061 423.262 116.172 415.085 120.643 409.516L366.011 103.92C367.806 101.681 370.218 100.14 372.998 99.4609C376.95 98.4941 381.032 99.4054 384.201 101.961L678.572 339.566C678.659 339.326 678.739 339.084 678.813 338.84L376.741 86.6295C373.805 84.1793 369.837 83.2619 366.123 84.1702C363.602 84.7865 361.388 86.1741 359.725 88.1752L102.19 398.224C100.127 400.701 99.1551 403.849 99.4487 407.07C99.7413 410.286 101.269 413.202 103.754 415.274L383.71 649.024ZM679.818 339.679C679.74 339.911 679.656 340.141 679.566 340.368L681.323 341.786C681.378 341.545 681.427 341.302 681.468 341.057L679.818 339.679ZM682.525 341.939C682.475 342.168 682.419 342.396 682.358 342.622L683.863 343.836C683.885 343.589 683.899 343.341 683.907 343.093L682.525 341.939ZM685.058 344.055C685.037 344.282 685.01 344.509 684.977 344.736L686.153 345.685C686.134 345.422 686.108 345.161 686.074 344.902L685.058 344.055ZM687.384 346.099C687.392 346.296 687.395 346.491 687.394 346.686L688.001 347.177C687.946 346.977 687.886 346.78 687.822 346.584C687.681 346.419 687.535 346.258 687.384 346.099ZM413.354 675.302C412.13 676.144 410.76 676.759 409.292 677.118C406.385 677.831 403.339 677.456 400.715 676.131C401.173 675.731 401.608 675.298 402.016 674.836L406.571 669.682L412.612 674.727C412.853 674.928 413.101 675.12 413.354 675.302ZM405.642 668.907L401.107 674.038C400.639 674.566 400.134 675.052 399.596 675.491C399.114 675.181 398.65 674.836 398.21 674.457L392.782 669.779L398.782 663.179L405.642 668.907ZM397.854 662.404L391.866 668.989L385.213 663.255L391.198 656.847L397.854 662.404ZM390.27 656.071L384.298 662.465L377.842 656.901L383.807 650.675L390.27 656.071ZM382.874 649.896L376.923 656.108L84.1303 403.73C81.6139 401.556 80.0868 398.531 79.8341 395.214C79.5803 391.893 80.6363 388.674 82.7985 386.15L352.497 71.6603C354.197 69.6791 356.43 68.3041 358.956 67.6867L358.962 67.6909C362.862 66.7346 367.004 67.7316 370.044 70.3514L679.25 336.873C679.218 337.096 679.179 337.318 679.136 337.538L377.513 85.698C374.288 83.0006 369.921 81.9941 365.84 82.9921C363.065 83.6699 360.632 85.1933 358.803 87.3962L101.273 397.444C99 400.175 97.9323 403.635 98.257 407.177C98.5828 410.723 100.26 413.93 102.992 416.204L382.874 649.896ZM680.184 338.414C680.234 338.209 680.279 338.003 680.32 337.796L681.661 338.951C681.658 339.176 681.649 339.401 681.635 339.625L680.184 338.414ZM682.759 340.563C682.783 340.36 682.804 340.155 682.82 339.95L683.777 340.775C683.811 341.01 683.839 341.246 683.86 341.482L682.759 340.563ZM685.123 342.537C685.121 342.364 685.116 342.192 685.108 342.019C685.245 342.165 685.378 342.315 685.507 342.466C685.566 342.642 685.622 342.819 685.674 342.997L685.123 342.537ZM394.588 677.985C396.015 677.637 397.353 677.05 398.56 676.253C398.17 675.983 397.793 675.692 397.431 675.379L391.97 670.672L387.359 675.743C386.926 676.221 386.464 676.666 385.977 677.077C388.624 678.356 391.665 678.7 394.588 677.985ZM386.463 674.931L391.054 669.883L384.389 664.138L378.173 670.793L383.047 675.122C383.608 675.62 384.205 676.064 384.832 676.45C385.414 675.994 385.959 675.487 386.463 674.931ZM377.269 669.99L383.473 663.348L377.006 657.774L370.803 664.247L377.269 669.99ZM369.896 663.442L376.086 656.981L83.3461 404.653C80.5819 402.272 78.9095 398.956 78.6351 395.312C78.3554 391.669 79.5121 388.137 81.8869 385.369L351.586 70.8791C353.454 68.7067 355.905 67.1958 358.675 66.519C362.948 65.4719 367.489 66.5634 370.825 69.4397L679.388 335.407C679.396 335.206 679.4 335.005 679.4 334.803L363.341 54.0692C360.197 51.2798 355.882 50.2084 351.8 51.2064L351.796 51.2126C349.266 51.8363 347.014 53.1987 345.278 55.16L63.4109 374.097C58.7367 379.385 59.2337 387.504 64.5142 392.196L369.896 663.442ZM680.576 335.848C680.564 336.03 680.549 336.211 680.53 336.391L681.585 337.301C681.563 337.09 681.536 336.88 681.504 336.672L680.576 335.848ZM682.859 338.252C682.861 338.302 682.862 338.352 682.863 338.403L683.342 338.815C683.295 338.662 683.246 338.51 683.195 338.359C683.082 338.225 682.966 338.092 682.847 337.962C682.852 338.058 682.856 338.155 682.859 338.252ZM383.772 677.199C382.582 677.955 381.273 678.514 379.885 678.853C376.949 679.572 373.908 679.254 371.24 678.018C371.754 677.598 372.243 677.142 372.702 676.65L377.352 671.672L382.254 676.026C382.736 676.454 383.244 676.846 383.772 677.199ZM376.448 670.869L371.819 675.825C371.278 676.405 370.692 676.931 370.067 677.402C369.294 676.944 368.562 676.403 367.884 675.782L363.547 671.82L369.97 665.116L376.448 670.869ZM369.064 664.311L362.653 671.002L44.8984 380.662C42.2984 378.286 40.7819 375.042 40.6141 371.523C40.4463 368.005 41.6624 364.635 44.0266 362.032L338.056 38.6492C339.824 36.7089 342.094 35.3538 344.634 34.728C348.903 33.682 353.395 34.8268 356.64 37.792L679.218 332.551C679.248 332.733 679.274 332.917 679.296 333.101L364.136 53.1711C360.694 50.1148 355.973 48.9446 351.508 50.0407C348.74 50.7228 346.273 52.2096 344.373 54.3611L62.5065 373.298C57.3937 379.086 57.9299 387.976 63.7112 393.107L369.064 664.311ZM680.598 334.258L681.032 334.643C680.993 334.519 680.952 334.396 680.909 334.273C680.802 334.143 680.693 334.015 680.58 333.889C680.588 334.012 680.594 334.135 680.598 334.258ZM365.187 679.719C366.53 679.388 367.805 678.857 368.973 678.145C368.306 677.714 367.67 677.224 367.072 676.678L362.711 672.693L358.045 677.563C357.563 678.066 357.049 678.532 356.508 678.96C359.196 680.152 362.236 680.444 365.187 679.719ZM357.176 676.719L361.816 671.875L44.089 381.541C41.2559 378.951 39.5932 375.409 39.4152 371.566C39.2319 367.725 40.555 364.045 43.138 361.203L337.168 37.8199C339.095 35.7008 341.58 34.2214 344.35 33.5446C349.012 32.4037 353.912 33.6524 357.457 36.8951L678.703 330.436C678.673 330.348 678.643 330.259 678.612 330.172C678.232 329.707 677.819 329.264 677.374 328.847L349.944 21.519C346.593 18.3739 341.932 17.1483 337.472 18.2433L337.467 18.2444C334.926 18.8649 332.632 20.2137 330.835 22.1383L24.6369 349.969C19.5484 355.415 19.8399 364.005 25.2802 369.117L352.72 676.442C353.515 677.189 354.383 677.828 355.305 678.353C355.972 677.868 356.598 677.322 357.176 676.719ZM354.179 679.09C353.369 678.584 352.602 677.995 351.89 677.326L24.4488 369.995C18.5214 364.431 18.2065 355.068 23.7525 349.133L329.95 21.3028C331.909 19.2047 334.414 17.743 337.183 17.0609C342.038 15.8763 347.117 17.2088 350.763 20.6326L676.681 326.536C676.218 325.91 675.698 325.319 675.126 324.769L343.238 5.24812C339.792 1.926 334.952 0.622001 330.305 1.75977L330.304 1.75456C327.758 2.37609 325.44 3.71334 323.612 5.62225L5.25139 337.899C2.68519 340.58 1.31414 344.1 1.39079 347.816C1.46848 351.538 2.98475 355 5.66302 357.577L337.546 677.104C340.997 680.42 345.831 681.725 350.484 680.586C351.789 680.268 353.032 679.763 354.179 679.09Z" fill="url(#paint0_linear_4627_20110)"/>
<defs>
<linearGradient id="paint0_linear_4627_20110" x1="597.434" y1="364.051" x2="548.823" y2="120.022" gradientUnits="userSpaceOnUse">
<stop stop-color="#A345EC"/>
<stop offset="1" stop-color="#003E99"/>
</linearGradient>
</defs>
</svg>
